{"glyphs":{"0":{"ha":648,"o":"m 324 -14 l 324 -14 q 200 -14 125 55 q 50 123 50 262 l 50 262 l 50 438 q 50 573 125 644 q 200 714 324 714 l 324 714 q 449 714 524 644 q 598 573 598 438 l 598 438 l 598 262 q 598 123 524 55 q 449 -14 324 -14 z m 324 100 l 324 100 q 399 100 435 141 q 470 182 470 258 l 470 258 l 470 444 q 470 521 431 561 q 391 600 324 600 l 324 600 q 255 600 217 559 q 178 518 178 444 l 178 444 l 178 258 q 178 179 215 140 q 251 100 324 100 z"},"1":{"ha":452,"o":"m 386 0 l 258 0 l 258 606 l 240 606 l 146 384 l 12 384 l 155 700 l 386 700 l 386 0 z"},"2":{"ha":594,"o":"m 550 0 l 42 0 l 42 84 q 42 157 66 206 q 90 254 136 286 q 181 317 247 337 l 247 337 l 314 358 q 351 370 376 388 q 401 405 415 430 q 428 455 428 487 l 428 487 l 428 491 q 428 541 394 571 q 360 600 301 600 l 301 600 q 243 600 208 569 q 172 537 172 478 l 172 478 l 172 460 l 44 460 l 44 476 q 44 552 78 605 q 112 658 171 686 q 229 714 301 714 l 301 714 q 373 714 431 687 q 489 659 523 610 q 556 560 556 493 l 556 493 l 556 483 q 556 416 529 370 q 501 323 454 294 q 407 264 347 245 l 347 245 l 283 225 q 240 212 216 197 q 192 181 183 163 q 173 144 173 118 l 173 118 l 173 114 l 550 114 l 550 0 z"},"3":{"ha":608,"o":"m 304 -14 l 304 -14 q 225 -14 164 14 q 103 42 69 95 q 34 147 34 219 l 34 219 l 34 237 l 162 237 l 162 223 q 162 167 201 134 q 240 100 304 100 l 304 100 q 369 100 405 131 q 440 162 440 209 l 440 209 l 440 219 q 440 251 424 271 q 408 291 381 301 q 354 310 320 310 l 320 310 l 180 310 l 180 450 l 406 570 l 406 586 l 52 586 l 52 700 l 548 700 l 548 530 l 337 418 l 337 402 l 374 402 q 421 402 466 383 q 510 364 539 325 q 568 285 568 222 l 568 222 l 568 210 q 568 142 535 92 q 502 41 443 14 q 383 -14 304 -14 z"},"4":{"ha":636,"o":"m 498 0 l 370 0 l 370 142 l 26 142 l 26 290 l 268 700 l 498 700 l 498 256 l 614 256 l 614 142 l 498 142 l 498 0 z m 148 272 l 148 256 l 370 256 l 370 618 l 352 618 l 148 272 z"},"5":{"ha":600,"o":"m 303 -14 l 303 -14 q 221 -14 162 15 q 102 44 70 97 q 38 150 38 220 l 38 220 l 38 230 l 168 230 l 168 221 q 168 171 202 136 q 235 100 301 100 l 301 100 q 367 100 403 136 q 438 171 438 228 l 438 228 l 438 238 q 438 294 403 327 q 367 360 314 360 l 314 360 q 285 360 266 352 q 247 344 235 332 q 223 320 215 308 l 215 308 l 60 308 l 60 700 l 538 700 l 538 584 l 188 584 l 188 413 l 206 413 q 216 426 233 438 q 250 450 277 458 q 304 466 341 466 l 341 466 q 403 466 454 440 q 505 414 536 364 q 566 313 566 239 l 566 239 l 566 227 q 566 153 535 99 q 503 45 444 16 q 385 -14 303 -14 z"},"6":{"ha":618,"o":"m 312 -14 l 312 -14 q 232 -14 173 16 q 114 46 82 99 q 50 152 50 221 l 50 221 l 50 460 q 50 545 85 602 q 119 658 180 686 q 240 714 318 714 l 318 714 q 396 714 454 688 q 511 662 543 613 q 574 564 574 496 l 574 496 l 444 496 q 444 538 415 569 q 386 600 318 600 l 318 600 q 251 600 215 565 q 178 530 178 468 l 178 468 l 178 396 l 196 396 q 213 416 248 434 q 283 452 350 452 l 350 452 q 411 452 463 426 q 514 400 546 351 q 578 301 578 231 l 578 231 l 578 219 q 578 150 545 98 q 512 45 452 16 q 392 -14 312 -14 z m 314 100 l 314 100 q 377 100 414 133 q 450 166 450 221 l 450 221 l 450 229 q 450 266 434 293 q 417 320 387 335 q 356 350 314 350 l 314 350 q 273 350 242 335 q 211 320 195 293 q 178 266 178 229 l 178 229 l 178 221 q 178 166 215 133 q 251 100 314 100 z"},"7":{"ha":554,"o":"m 259 0 l 131 0 l 131 26 q 131 65 137 93 q 143 120 163 155 l 163 155 l 398 570 l 398 586 l 26 586 l 26 700 l 530 700 l 530 548 l 282 105 q 269 82 264 64 q 259 46 259 20 l 259 20 l 259 0 z"},"8":{"ha":600,"o":"m 300 -14 l 300 -14 q 220 -14 159 10 q 97 34 63 80 q 28 125 28 187 l 28 187 l 28 199 q 28 247 45 279 q 62 310 88 328 q 113 346 136 353 l 136 353 l 136 371 q 113 379 90 397 q 67 415 53 445 q 38 475 38 517 l 38 517 l 38 529 q 38 584 71 626 q 103 667 162 691 q 221 714 300 714 l 300 714 q 379 714 438 691 q 497 667 530 626 q 562 584 562 529 l 562 529 l 562 517 q 562 475 548 445 q 533 415 511 397 q 488 379 464 371 l 464 371 l 464 353 q 488 346 513 328 q 538 310 555 279 q 572 247 572 199 l 572 199 l 572 187 q 572 125 538 80 q 503 34 442 10 q 380 -14 300 -14 z m 300 100 l 300 100 q 369 100 407 127 q 444 153 444 197 l 444 197 l 444 205 q 444 249 408 276 q 371 302 300 302 l 300 302 q 230 302 193 276 q 156 249 156 205 l 156 205 l 156 197 q 156 153 194 127 q 231 100 300 100 z m 300 416 l 300 416 q 364 416 399 439 q 434 462 434 504 l 434 504 l 434 512 q 434 554 398 577 q 362 600 300 600 l 300 600 q 238 600 202 577 q 166 554 166 512 l 166 512 l 166 504 q 166 462 201 439 q 236 416 300 416 z"},"9":{"ha":618,"o":"m 300 -14 l 300 -14 q 222 -14 165 12 q 107 38 76 87 q 44 136 44 204 l 44 204 l 174 204 q 174 162 204 131 q 233 100 300 100 l 300 100 q 368 100 404 136 q 440 171 440 232 l 440 232 l 440 304 l 422 304 q 405 284 371 266 q 336 248 268 248 l 268 248 q 208 248 156 274 q 104 300 72 350 q 40 399 40 469 l 40 469 l 40 481 q 40 551 73 603 q 106 655 166 685 q 226 714 306 714 l 306 714 q 386 714 445 684 q 504 654 536 601 q 568 548 568 479 l 568 479 l 568 240 q 568 155 534 99 q 499 42 439 14 q 378 -14 300 -14 z m 304 350 l 304 350 q 346 350 377 365 q 407 380 424 407 q 440 434 440 471 l 440 471 l 440 479 q 440 535 404 568 q 367 600 304 600 l 304 600 q 241 600 205 568 q 168 535 168 479 l 168 479 l 168 471 q 168 434 185 407 q 201 380 232 365 q 263 350 304 350 z"},"\r":{"ha":600,"o":""}," ":{"ha":254,"o":""},"A":{"ha":634,"o":"m 154 0 l 18 0 l 202 700 l 432 700 l 616 0 l 480 0 l 442 154 l 192 154 l 154 0 z m 308 617 l 223 276 l 411 276 l 326 617 l 308 617 z"},"B":{"ha":664,"o":"m 410 0 l 46 0 l 46 116 l 138 116 l 138 584 l 46 584 l 46 700 l 406 700 q 470 700 518 679 q 565 657 592 618 q 618 578 618 523 l 618 523 l 618 513 q 618 465 600 435 q 582 404 558 388 q 533 371 511 364 l 511 364 l 511 346 q 533 340 559 324 q 585 307 604 276 q 622 245 622 195 l 622 195 l 622 185 q 622 127 595 86 q 568 44 521 22 q 473 0 410 0 l 410 0 z m 270 292 l 270 120 l 394 120 q 437 120 464 141 q 490 162 490 201 l 490 201 l 490 211 q 490 250 464 271 q 438 292 394 292 l 394 292 l 270 292 z m 270 580 l 270 412 l 392 412 q 433 412 460 433 q 486 454 486 491 l 486 491 l 486 501 q 486 539 460 560 q 434 580 392 580 l 392 580 l 270 580 z"},"C":{"ha":644,"o":"m 332 -14 l 332 -14 q 202 -14 126 59 q 50 131 50 266 l 50 266 l 50 434 q 50 569 126 642 q 202 714 332 714 l 332 714 q 461 714 532 644 q 602 573 602 450 l 602 450 l 602 444 l 472 444 l 472 454 q 472 516 438 556 q 403 596 332 596 l 332 596 q 262 596 222 553 q 182 510 182 436 l 182 436 l 182 264 q 182 191 222 148 q 262 104 332 104 l 332 104 q 403 104 438 145 q 472 185 472 246 l 472 246 l 472 264 l 602 264 l 602 250 q 602 127 532 57 q 461 -14 332 -14 z"},"D":{"ha":666,"o":"m 334 0 l 46 0 l 46 116 l 138 116 l 138 584 l 46 584 l 46 700 l 334 700 q 475 700 549 629 q 622 557 622 416 l 622 416 l 622 284 q 622 143 549 72 q 475 0 334 0 l 334 0 z m 270 580 l 270 120 l 336 120 q 416 120 453 162 q 490 204 490 280 l 490 280 l 490 420 q 490 497 453 539 q 416 580 336 580 l 336 580 l 270 580 z"},"E":{"ha":554,"o":"m 522 0 l 66 0 l 66 700 l 516 700 l 516 580 l 198 580 l 198 413 l 488 413 l 488 293 l 198 293 l 198 120 l 522 120 l 522 0 z"},"F":{"ha":534,"o":"m 198 0 l 66 0 l 66 700 l 506 700 l 506 580 l 198 580 l 198 411 l 482 411 l 482 291 l 198 291 l 198 0 z"},"G":{"ha":662,"o":"m 308 -14 l 308 -14 q 236 -14 178 19 q 119 51 85 114 q 50 176 50 266 l 50 266 l 50 434 q 50 569 126 642 q 202 714 332 714 l 332 714 q 461 714 532 646 q 602 577 602 460 l 602 460 l 602 456 l 472 456 l 472 464 q 472 501 457 531 q 441 561 410 579 q 379 596 332 596 l 332 596 q 262 596 222 553 q 182 510 182 436 l 182 436 l 182 264 q 182 191 222 147 q 262 102 334 102 l 334 102 q 406 102 439 140 q 472 178 472 236 l 472 236 l 472 246 l 306 246 l 306 358 l 602 358 l 602 0 l 480 0 l 480 67 l 462 67 q 455 50 440 31 q 424 12 393 -1 q 362 -14 308 -14 z"},"H":{"ha":656,"o":"m 198 0 l 66 0 l 66 700 l 198 700 l 198 411 l 458 411 l 458 700 l 590 700 l 590 0 l 458 0 l 458 291 l 198 291 l 198 0 z"},"I":{"ha":264,"o":"m 198 0 l 66 0 l 66 700 l 198 700 l 198 0 z"},"J":{"ha":610,"o":"m 267 -14 l 267 -14 q 159 -14 96 45 q 32 104 32 210 l 32 210 l 32 276 l 164 276 l 164 210 q 164 163 190 137 q 216 110 263 110 l 263 110 q 307 110 332 136 q 356 162 356 210 l 356 210 l 356 580 l 236 580 l 236 700 l 568 700 l 568 580 l 488 580 l 488 210 q 488 101 429 44 q 370 -14 267 -14 z"},"K":{"ha":626,"o":"m 198 0 l 66 0 l 66 700 l 198 700 l 198 422 l 216 422 l 443 700 l 612 700 l 320 355 l 622 0 l 448 0 l 216 284 l 198 284 l 198 0 z"},"L":{"ha":542,"o":"m 518 0 l 66 0 l 66 700 l 198 700 l 198 120 l 518 120 l 518 0 z"},"M":{"ha":882,"o":"m 194 0 l 66 0 l 66 700 l 311 700 l 432 90 l 450 90 l 571 700 l 816 700 l 816 0 l 688 0 l 688 603 l 670 603 l 550 0 l 332 0 l 212 603 l 194 603 l 194 0 z"},"N":{"ha":670,"o":"m 196 0 l 66 0 l 66 700 l 317 700 l 456 90 l 474 90 l 474 700 l 604 700 l 604 0 l 353 0 l 214 610 l 196 610 l 196 0 z"},"O":{"ha":676,"o":"m 338 -14 l 338 -14 q 206 -14 128 59 q 50 131 50 266 l 50 266 l 50 434 q 50 569 128 642 q 206 714 338 714 l 338 714 q 470 714 548 642 q 626 569 626 434 l 626 434 l 626 266 q 626 131 548 59 q 470 -14 338 -14 z m 338 104 l 338 104 q 412 104 453 147 q 494 190 494 262 l 494 262 l 494 438 q 494 510 453 553 q 412 596 338 596 l 338 596 q 265 596 224 553 q 182 510 182 438 l 182 438 l 182 262 q 182 190 224 147 q 265 104 338 104 z"},"P":{"ha":604,"o":"m 198 0 l 66 0 l 66 700 l 354 700 q 420 700 471 674 q 521 647 550 599 q 578 551 578 485 l 578 485 l 578 471 q 578 406 549 358 q 519 309 469 283 q 418 256 354 256 l 354 256 l 198 256 l 198 0 z m 198 580 l 198 376 l 341 376 q 388 376 417 402 q 446 428 446 473 l 446 473 l 446 483 q 446 528 417 554 q 388 580 341 580 l 341 580 l 198 580 z"},"Q":{"ha":676,"o":"m 338 -14 l 338 -14 q 206 -14 128 59 q 50 131 50 266 l 50 266 l 50 434 q 50 569 128 642 q 206 714 338 714 l 338 714 q 470 714 548 642 q 626 569 626 434 l 626 434 l 626 266 q 626 131 548 59 q 470 -14 338 -14 z m 338 104 l 338 104 q 412 104 453 147 q 494 190 494 262 l 494 262 l 494 438 q 494 510 453 553 q 412 596 338 596 l 338 596 q 265 596 224 553 q 182 510 182 438 l 182 438 l 182 262 q 182 190 224 147 q 265 104 338 104 z m 489 -180 l 384 -180 q 335 -180 305 -149 q 274 -119 274 -68 l 274 -68 l 274 0 l 402 0 l 402 -48 q 402 -78 430 -78 l 430 -78 l 489 -78 l 489 -180 z"},"R":{"ha":632,"o":"m 198 0 l 66 0 l 66 700 l 370 700 q 436 700 485 677 q 534 654 561 612 q 588 570 588 513 l 588 513 l 588 501 q 588 438 558 399 q 528 360 484 342 l 484 342 l 484 324 q 524 322 546 297 q 568 271 568 229 l 568 229 l 568 0 l 436 0 l 436 210 q 436 234 424 249 q 411 264 382 264 l 382 264 l 198 264 l 198 0 z m 198 580 l 198 384 l 356 384 q 403 384 430 410 q 456 435 456 477 l 456 477 l 456 487 q 456 529 430 555 q 404 580 356 580 l 356 580 l 198 580 z"},"S":{"ha":606,"o":"m 309 -14 l 309 -14 q 228 -14 166 15 q 104 44 69 98 q 34 152 34 228 l 34 228 l 34 256 l 164 256 l 164 228 q 164 165 203 134 q 242 102 309 102 l 309 102 q 377 102 411 129 q 444 156 444 198 l 444 198 q 444 227 428 245 q 411 263 380 275 q 348 286 303 296 l 303 296 l 280 301 q 208 317 157 342 q 105 366 78 406 q 50 446 50 510 l 50 510 q 50 574 81 620 q 111 665 167 690 q 222 714 297 714 l 297 714 q 372 714 431 689 q 489 663 523 613 q 556 562 556 486 l 556 486 l 556 456 l 426 456 l 426 486 q 426 526 411 551 q 395 575 366 587 q 337 598 297 598 l 297 598 q 237 598 209 576 q 180 553 180 514 l 180 514 q 180 488 194 470 q 207 452 234 440 q 261 428 303 419 l 303 419 l 326 414 q 401 398 457 373 q 512 348 543 307 q 574 266 574 202 l 574 202 q 574 138 542 90 q 509 41 450 14 q 390 -14 309 -14 z"},"T":{"ha":588,"o":"m 360 0 l 228 0 l 228 580 l 24 580 l 24 700 l 564 700 l 564 580 l 360 580 l 360 0 z"},"U":{"ha":672,"o":"m 336 -14 l 336 -14 q 250 -14 189 18 q 127 49 95 108 q 62 166 62 246 l 62 246 l 62 700 l 194 700 l 194 242 q 194 178 231 141 q 267 104 336 104 l 336 104 q 405 104 442 141 q 478 178 478 242 l 478 242 l 478 700 l 610 700 l 610 246 q 610 166 578 108 q 545 49 484 18 q 422 -14 336 -14 z"},"V":{"ha":618,"o":"m 422 0 l 196 0 l 18 700 l 154 700 l 302 85 l 316 85 l 464 700 l 600 700 l 422 0 z"},"W":{"ha":898,"o":"m 350 0 l 122 0 l 30 700 l 161 700 l 229 92 l 247 92 l 335 700 l 563 700 l 651 92 l 669 92 l 737 700 l 868 700 l 776 0 l 548 0 l 458 622 l 440 622 l 350 0 z"},"X":{"ha":644,"o":"m 172 0 l 22 0 l 227 353 l 24 700 l 174 700 l 313 447 l 331 447 l 470 700 l 620 700 l 417 353 l 622 0 l 472 0 l 331 259 l 313 259 l 172 0 z"},"Y":{"ha":624,"o":"m 378 0 l 246 0 l 246 241 l 8 700 l 155 700 l 303 400 l 321 400 l 469 700 l 616 700 l 378 241 l 378 0 z"},"Z":{"ha":576,"o":"m 532 0 l 46 0 l 46 168 l 392 566 l 392 582 l 56 582 l 56 700 l 530 700 l 530 532 l 184 134 l 184 118 l 532 118 l 532 0 z"},"a":{"ha":578,"o":"m 224 -14 l 224 -14 q 171 -14 129 5 q 87 23 63 59 q 38 94 38 145 l 38 145 q 38 196 63 231 q 87 265 131 283 q 174 300 230 300 l 230 300 l 366 300 l 366 328 q 366 363 344 386 q 322 408 274 408 l 274 408 q 227 408 204 387 q 181 365 174 331 l 174 331 l 58 370 q 70 408 97 440 q 123 471 168 491 q 212 510 276 510 l 276 510 q 374 510 431 461 q 488 412 488 319 l 488 319 l 488 134 q 488 104 516 104 l 516 104 l 556 104 l 556 0 l 472 0 q 435 0 411 18 q 387 36 387 66 l 387 66 l 387 67 l 368 67 q 364 55 350 36 q 336 16 306 1 q 276 -14 224 -14 z m 246 88 l 246 88 q 299 88 333 118 q 366 147 366 196 l 366 196 l 366 206 l 239 206 q 204 206 184 191 q 164 176 164 149 l 164 149 q 164 122 185 105 q 206 88 246 88 z"},"b":{"ha":638,"o":"m 368 -14 l 368 -14 q 301 -14 265 9 q 229 32 212 60 l 212 60 l 194 60 l 194 0 l 70 0 l 70 700 l 196 700 l 196 439 l 214 439 q 225 457 244 473 q 262 489 293 500 q 323 510 368 510 l 368 510 q 428 510 479 481 q 530 451 561 394 q 592 337 592 256 l 592 256 l 592 240 q 592 159 561 102 q 530 45 479 16 q 428 -14 368 -14 z m 330 96 l 330 96 q 388 96 427 134 q 466 171 466 243 l 466 243 l 466 253 q 466 325 428 363 q 389 400 330 400 l 330 400 q 272 400 233 363 q 194 325 194 253 l 194 253 l 194 243 q 194 171 233 134 q 272 96 330 96 z"},"c":{"ha":586,"o":"m 303 -14 l 303 -14 q 231 -14 173 16 q 114 46 80 103 q 46 160 46 241 l 46 241 l 46 255 q 46 336 80 393 q 114 450 173 480 q 231 510 303 510 l 303 510 q 374 510 425 485 q 476 460 508 417 q 539 373 549 318 l 549 318 l 427 292 q 423 322 409 346 q 395 370 370 384 q 344 398 306 398 l 306 398 q 268 398 238 382 q 207 365 190 333 q 172 300 172 253 l 172 253 l 172 243 q 172 196 190 164 q 207 131 238 115 q 268 98 306 98 l 306 98 q 363 98 393 128 q 422 157 430 205 l 430 205 l 552 176 q 539 123 508 80 q 476 36 425 11 q 374 -14 303 -14 z"},"d":{"ha":638,"o":"m 270 -14 l 270 -14 q 211 -14 160 16 q 108 45 77 102 q 46 159 46 240 l 46 240 l 46 256 q 46 337 77 394 q 108 451 159 481 q 210 510 270 510 l 270 510 q 315 510 346 500 q 376 489 395 473 q 414 457 424 439 l 424 439 l 442 439 l 442 700 l 568 700 l 568 0 l 444 0 l 444 60 l 426 60 q 409 32 374 9 q 338 -14 270 -14 z m 308 96 l 308 96 q 366 96 405 134 q 444 171 444 243 l 444 243 l 444 253 q 444 325 406 363 q 367 400 308 400 l 308 400 q 250 400 211 363 q 172 325 172 253 l 172 253 l 172 243 q 172 171 211 134 q 250 96 308 96 z"},"e":{"ha":577,"o":"m 296 -14 l 296 -14 q 222 -14 166 18 q 109 49 78 107 q 46 164 46 242 l 46 242 l 46 254 q 46 332 77 390 q 108 447 164 479 q 220 510 294 510 l 294 510 q 367 510 421 478 q 475 445 505 388 q 535 330 535 254 l 535 254 l 535 211 l 174 211 q 176 160 212 128 q 248 96 300 96 l 300 96 q 353 96 378 119 q 403 142 416 170 l 416 170 l 519 116 q 505 90 479 60 q 452 29 408 8 q 364 -14 296 -14 z m 175 305 l 175 305 l 407 305 q 403 348 373 374 q 342 400 293 400 l 293 400 q 242 400 212 374 q 182 348 175 305 z"},"f":{"ha":436,"o":"m 278 0 l 152 0 l 152 392 l 26 392 l 26 496 l 152 496 l 152 588 q 152 639 183 670 q 213 700 262 700 l 262 700 l 392 700 l 392 596 l 306 596 q 278 596 278 566 l 278 566 l 278 496 l 408 496 l 408 392 l 278 392 l 278 0 z"},"g":{"ha":638,"o":"m 46 246 l 46 246 l 46 262 q 46 340 77 396 q 108 451 160 481 q 211 510 272 510 l 272 510 q 340 510 375 486 q 410 462 426 436 l 426 436 l 444 436 l 444 496 l 568 496 l 568 -88 q 568 -139 538 -169 q 508 -200 458 -200 l 458 -200 l 126 -200 l 126 -90 l 414 -90 q 442 -90 442 -60 l 442 -60 l 442 69 l 424 69 q 414 53 396 37 q 378 20 348 9 q 318 -2 272 -2 l 272 -2 q 211 -2 160 28 q 108 57 77 113 q 46 168 46 246 z m 308 108 l 308 108 q 366 108 405 145 q 444 182 444 249 l 444 249 l 444 259 q 444 327 406 364 q 367 400 308 400 l 308 400 q 250 400 211 364 q 172 327 172 259 l 172 259 l 172 249 q 172 182 211 145 q 250 108 308 108 z"},"h":{"ha":616,"o":"m 196 0 l 70 0 l 70 700 l 196 700 l 196 435 l 214 435 q 222 451 239 467 q 256 483 285 494 q 313 504 357 504 l 357 504 q 415 504 459 478 q 502 451 526 405 q 550 358 550 296 l 550 296 l 550 0 l 424 0 l 424 286 q 424 342 397 370 q 369 398 318 398 l 318 398 q 260 398 228 360 q 196 321 196 252 l 196 252 l 196 0 z"},"i":{"ha":266,"o":"m 196 0 l 70 0 l 70 496 l 196 496 l 196 0 z m 133 554 l 133 554 q 99 554 76 576 q 52 598 52 634 l 52 634 q 52 670 76 692 q 99 714 133 714 l 133 714 q 168 714 191 692 q 214 670 214 634 l 214 634 q 214 598 191 576 q 168 554 133 554 z"},"j":{"ha":268,"o":"m 88 -200 l -22 -200 l -22 -92 l 44 -92 q 72 -92 72 -62 l 72 -62 l 72 496 l 198 496 l 198 -88 q 198 -139 168 -169 q 138 -200 88 -200 l 88 -200 z m 135 554 l 135 554 q 101 554 78 576 q 54 598 54 634 l 54 634 q 54 670 78 692 q 101 714 135 714 l 135 714 q 170 714 193 692 q 216 670 216 634 l 216 634 q 216 598 193 576 q 170 554 135 554 z"},"k":{"ha":564,"o":"m 196 0 l 70 0 l 70 700 l 196 700 l 196 313 l 214 313 l 378 496 l 542 496 l 313 256 l 550 0 l 388 0 l 214 197 l 196 197 l 196 0 z"},"l":{"ha":266,"o":"m 196 0 l 70 0 l 70 700 l 196 700 l 196 0 z"},"m":{"ha":854,"o":"m 196 0 l 70 0 l 70 496 l 194 496 l 194 442 l 212 442 q 225 467 255 486 q 285 504 334 504 l 334 504 q 387 504 419 484 q 451 463 468 430 l 468 430 l 486 430 q 503 462 534 483 q 565 504 622 504 l 622 504 q 668 504 706 485 q 743 465 766 426 q 788 386 788 326 l 788 326 l 788 0 l 662 0 l 662 317 q 662 358 641 379 q 620 399 582 399 l 582 399 q 539 399 516 372 q 492 344 492 293 l 492 293 l 492 0 l 366 0 l 366 317 q 366 358 345 379 q 324 399 286 399 l 286 399 q 243 399 220 372 q 196 344 196 293 l 196 293 l 196 0 z"},"n":{"ha":616,"o":"m 196 0 l 70 0 l 70 496 l 194 496 l 194 431 l 212 431 q 224 457 257 481 q 290 504 357 504 l 357 504 q 415 504 459 478 q 502 451 526 405 q 550 358 550 296 l 550 296 l 550 0 l 424 0 l 424 286 q 424 342 397 370 q 369 398 318 398 l 318 398 q 260 398 228 360 q 196 321 196 252 l 196 252 l 196 0 z"},"o":{"ha":612,"o":"m 306 -14 l 306 -14 q 232 -14 173 16 q 114 46 80 103 q 46 160 46 240 l 46 240 l 46 256 q 46 336 80 393 q 114 450 173 480 q 232 510 306 510 l 306 510 q 380 510 439 480 q 498 450 532 393 q 566 336 566 256 l 566 256 l 566 240 q 566 160 532 103 q 498 46 439 16 q 380 -14 306 -14 z m 306 98 l 306 98 q 364 98 402 136 q 440 173 440 243 l 440 243 l 440 253 q 440 323 403 361 q 365 398 306 398 l 306 398 q 248 398 210 361 q 172 323 172 253 l 172 253 l 172 243 q 172 173 210 136 q 248 98 306 98 z"},"p":{"ha":638,"o":"m 196 -200 l 70 -200 l 70 496 l 194 496 l 194 436 l 212 436 q 229 465 265 488 q 301 510 368 510 l 368 510 q 428 510 479 481 q 530 451 561 394 q 592 337 592 256 l 592 256 l 592 240 q 592 159 561 102 q 530 45 479 16 q 428 -14 368 -14 l 368 -14 q 323 -14 293 -3 q 262 7 244 24 q 225 40 214 57 l 214 57 l 196 57 l 196 -200 z m 330 96 l 330 96 q 389 96 428 134 q 466 171 466 243 l 466 243 l 466 253 q 466 325 427 363 q 388 400 330 400 l 330 400 q 272 400 233 363 q 194 325 194 253 l 194 253 l 194 243 q 194 171 233 134 q 272 96 330 96 z"},"q":{"ha":638,"o":"m 568 -200 l 442 -200 l 442 57 l 424 57 q 414 40 395 24 q 376 7 346 -3 q 315 -14 270 -14 l 270 -14 q 210 -14 159 16 q 108 45 77 102 q 46 159 46 240 l 46 240 l 46 256 q 46 337 77 394 q 108 451 160 481 q 211 510 270 510 l 270 510 q 338 510 374 488 q 409 465 426 436 l 426 436 l 444 436 l 444 496 l 568 496 l 568 -200 z m 308 96 l 308 96 q 367 96 406 134 q 444 171 444 243 l 444 243 l 444 253 q 444 325 405 363 q 366 400 308 400 l 308 400 q 250 400 211 363 q 172 325 172 253 l 172 253 l 172 243 q 172 171 211 134 q 250 96 308 96 z"},"r":{"ha":396,"o":"m 196 0 l 70 0 l 70 496 l 194 496 l 194 440 l 212 440 q 223 470 249 484 q 274 498 308 498 l 308 498 l 368 498 l 368 386 l 306 386 q 258 386 227 361 q 196 335 196 282 l 196 282 l 196 0 z"},"s":{"ha":524,"o":"m 276 -14 l 276 -14 q 179 -14 117 28 q 55 70 42 148 l 42 148 l 158 178 q 165 143 182 123 q 198 103 223 95 q 247 86 276 86 l 276 86 q 320 86 341 102 q 362 117 362 140 l 362 140 q 362 163 342 176 q 322 188 278 196 l 278 196 l 250 201 q 198 211 155 229 q 112 246 86 277 q 60 308 60 357 l 60 357 q 60 431 114 471 q 168 510 256 510 l 256 510 q 339 510 394 473 q 449 436 466 376 l 466 376 l 349 340 q 341 378 317 394 q 292 410 256 410 l 256 410 q 220 410 201 398 q 182 385 182 363 l 182 363 q 182 339 202 328 q 222 316 256 310 l 256 310 l 284 305 q 340 295 386 279 q 431 262 458 232 q 484 201 484 149 l 484 149 q 484 71 428 29 q 371 -14 276 -14 z"},"t":{"ha":456,"o":"m 400 0 l 260 0 q 211 0 181 31 q 150 61 150 112 l 150 112 l 150 392 l 26 392 l 26 496 l 150 496 l 150 650 l 276 650 l 276 496 l 412 496 l 412 392 l 276 392 l 276 134 q 276 104 304 104 l 304 104 l 400 104 l 400 0 z"},"u":{"ha":616,"o":"m 259 -8 l 259 -8 q 201 -8 158 19 q 114 45 90 92 q 66 139 66 200 l 66 200 l 66 496 l 192 496 l 192 210 q 192 154 220 126 q 247 98 298 98 l 298 98 q 356 98 388 137 q 420 175 420 244 l 420 244 l 420 496 l 546 496 l 546 0 l 422 0 l 422 65 l 404 65 q 392 40 359 16 q 326 -8 259 -8 z"},"v":{"ha":548,"o":"m 374 0 l 174 0 l 16 496 l 150 496 l 265 92 l 283 92 l 398 496 l 532 496 l 374 0 z"},"w":{"ha":784,"o":"m 319 0 l 110 0 l 40 496 l 165 496 l 209 85 l 227 85 l 291 496 l 493 496 l 557 85 l 575 85 l 619 496 l 744 496 l 674 0 l 465 0 l 401 411 l 383 411 l 319 0 z"},"x":{"ha":592,"o":"m 174 0 l 26 0 l 206 250 l 28 496 l 174 496 l 287 331 l 305 331 l 418 496 l 564 496 l 386 250 l 566 0 l 418 0 l 305 167 l 287 167 l 174 0 z"},"y":{"ha":616,"o":"m 436 -200 l 124 -200 l 124 -90 l 394 -90 q 422 -90 422 -60 l 422 -60 l 422 65 l 404 65 q 396 48 379 31 q 362 14 333 3 q 304 -8 259 -8 l 259 -8 q 201 -8 158 19 q 114 45 90 92 q 66 139 66 200 l 66 200 l 66 496 l 192 496 l 192 210 q 192 154 220 126 q 247 98 298 98 l 298 98 q 356 98 388 137 q 420 175 420 244 l 420 244 l 420 496 l 546 496 l 546 -88 q 546 -139 516 -169 q 486 -200 436 -200 l 436 -200 z"},"z":{"ha":518,"o":"m 470 0 l 52 0 l 52 150 l 324 376 l 324 392 l 62 392 l 62 496 l 462 496 l 462 346 l 190 120 l 190 104 l 470 104 l 470 0 z"},"[":{"ha":358,"o":"m 342 -246 l 172 -246 q 127 -246 99 -217 q 70 -189 70 -144 l 70 -144 l 70 654 q 70 699 99 728 q 127 756 172 756 l 172 756 l 342 756 l 342 648 l 219 648 q 192 648 192 618 l 192 618 l 192 -108 q 192 -138 219 -138 l 219 -138 l 342 -138 l 342 -246 z"},"]":{"ha":358,"o":"m 186 -246 l 16 -246 l 16 -138 l 139 -138 q 166 -138 166 -108 l 166 -108 l 166 618 q 166 648 139 648 l 139 648 l 16 648 l 16 756 l 186 756 q 231 756 260 728 q 288 699 288 654 l 288 654 l 288 -144 q 288 -189 260 -217 q 231 -246 186 -246 l 186 -246 z"},"{":{"ha":466,"o":"m 450 -246 l 280 -246 q 235 -246 207 -217 q 178 -189 178 -144 l 178 -144 l 178 166 q 178 195 151 195 l 151 195 l 36 195 l 36 315 l 151 315 q 178 315 178 344 l 178 344 l 178 654 q 178 699 207 728 q 235 756 280 756 l 280 756 l 450 756 l 450 648 l 327 648 q 300 648 300 618 l 300 618 l 300 344 q 300 310 279 287 q 257 264 222 264 l 222 264 l 206 264 l 206 246 l 222 246 q 257 246 279 223 q 300 200 300 166 l 300 166 l 300 -108 q 300 -138 327 -138 l 327 -138 l 450 -138 l 450 -246 z"},"}":{"ha":466,"o":"m 186 -246 l 16 -246 l 16 -138 l 139 -138 q 166 -138 166 -108 l 166 -108 l 166 166 q 166 200 188 223 q 209 246 244 246 l 244 246 l 260 246 l 260 264 l 244 264 q 209 264 188 287 q 166 310 166 344 l 166 344 l 166 618 q 166 648 139 648 l 139 648 l 16 648 l 16 756 l 186 756 q 231 756 260 728 q 288 699 288 654 l 288 654 l 288 344 q 288 315 315 315 l 315 315 l 430 315 l 430 195 l 315 195 q 288 195 288 166 l 288 166 l 288 -144 q 288 -189 260 -217 q 231 -246 186 -246 l 186 -246 z"},"(":{"ha":398,"o":"m 390 -138 l 390 -246 q 279 -246 203 -207 q 127 -168 89 -88 q 50 -8 50 116 l 50 116 l 50 394 q 50 518 89 598 q 127 678 203 717 q 279 756 390 756 l 390 756 l 390 648 q 281 648 227 586 q 172 523 172 390 l 172 390 l 172 120 q 172 -13 227 -75 q 281 -138 390 -138 l 390 -138 z"},")":{"ha":390,"o":"m 0 -246 l 0 -246 l 0 -138 q 110 -138 164 -75 q 218 -13 218 120 l 218 120 l 218 390 q 218 523 164 586 q 110 648 0 648 l 0 648 l 0 756 q 112 756 188 717 q 263 678 302 598 q 340 518 340 394 l 340 394 l 340 116 q 340 -8 302 -88 q 263 -168 188 -207 q 112 -246 0 -246 z"},"/":{"ha":388,"o":"m 110 -200 l -16 -200 l 278 700 l 404 700 l 110 -200 z"},"|":{"ha":258,"o":"m 192 -246 l 66 -246 l 66 806 l 192 806 l 192 -246 z"},"¦":{"ha":258,"o":"m 192 366 l 66 366 l 66 806 l 192 806 l 192 366 z m 192 -246 l 66 -246 l 66 194 l 192 194 l 192 -246 z"},"\\":{"ha":388,"o":"m 404 -200 l 278 -200 l -16 700 l 110 700 l 404 -200 z"},"'":{"ha":294,"o":"m 128 393 l 79 393 l 79 461 l 118 461 q 164 461 164 507 l 164 507 l 164 539 l 147 539 q 107 539 81 563 q 54 587 54 624 l 54 624 q 54 664 81 689 q 107 714 147 714 l 147 714 q 188 714 214 689 q 240 663 240 620 l 240 620 l 240 505 q 240 393 128 393 l 128 393 z"},"\"":{"ha":514,"o":"m 128 393 l 79 393 l 79 461 l 118 461 q 164 461 164 507 l 164 507 l 164 539 l 147 539 q 107 539 81 563 q 54 587 54 624 l 54 624 q 54 664 81 689 q 107 714 147 714 l 147 714 q 188 714 214 689 q 240 663 240 620 l 240 620 l 240 505 q 240 393 128 393 l 128 393 z m 348 393 l 299 393 l 299 461 l 338 461 q 384 461 384 507 l 384 507 l 384 539 l 367 539 q 327 539 301 563 q 274 587 274 624 l 274 624 q 274 664 301 689 q 327 714 367 714 l 367 714 q 408 714 434 689 q 460 663 460 620 l 460 620 l 460 505 q 460 393 348 393 l 348 393 z"},"‘":{"ha":294,"o":"m 166 714 l 215 714 l 215 646 l 176 646 q 130 646 130 600 l 130 600 l 130 568 l 147 568 q 187 568 214 544 q 240 520 240 483 l 240 483 q 240 443 214 418 q 187 393 147 393 l 147 393 q 106 393 80 419 q 54 444 54 487 l 54 487 l 54 602 q 54 714 166 714 l 166 714 z"},"’":{"ha":294,"o":"m 128 393 l 79 393 l 79 461 l 118 461 q 164 461 164 507 l 164 507 l 164 539 l 147 539 q 107 539 81 563 q 54 587 54 624 l 54 624 q 54 664 81 689 q 107 714 147 714 l 147 714 q 188 714 214 689 q 240 663 240 620 l 240 620 l 240 505 q 240 393 128 393 l 128 393 z"},"“":{"ha":514,"o":"m 386 714 l 435 714 l 435 646 l 396 646 q 350 646 350 600 l 350 600 l 350 568 l 367 568 q 407 568 434 544 q 460 520 460 483 l 460 483 q 460 443 434 418 q 407 393 367 393 l 367 393 q 326 393 300 419 q 274 444 274 487 l 274 487 l 274 602 q 274 714 386 714 l 386 714 z m 166 714 l 215 714 l 215 646 l 176 646 q 130 646 130 600 l 130 600 l 130 568 l 147 568 q 187 568 214 544 q 240 520 240 483 l 240 483 q 240 443 214 418 q 187 393 147 393 l 147 393 q 106 393 80 419 q 54 444 54 487 l 54 487 l 54 602 q 54 714 166 714 l 166 714 z"},"”":{"ha":514,"o":"m 128 393 l 79 393 l 79 461 l 118 461 q 164 461 164 507 l 164 507 l 164 539 l 147 539 q 107 539 81 563 q 54 587 54 624 l 54 624 q 54 664 81 689 q 107 714 147 714 l 147 714 q 188 714 214 689 q 240 663 240 620 l 240 620 l 240 505 q 240 393 128 393 l 128 393 z m 348 393 l 299 393 l 299 461 l 338 461 q 384 461 384 507 l 384 507 l 384 539 l 367 539 q 327 539 301 563 q 274 587 274 624 l 274 624 q 274 664 301 689 q 327 714 367 714 l 367 714 q 408 714 434 689 q 460 663 460 620 l 460 620 l 460 505 q 460 393 348 393 l 348 393 z"},"‚":{"ha":294,"o":"m 128 -147 l 79 -147 l 79 -79 l 118 -79 q 164 -79 164 -33 l 164 -33 l 164 -1 l 147 -1 q 107 -1 81 23 q 54 47 54 84 l 54 84 q 54 124 81 149 q 107 174 147 174 l 147 174 q 188 174 214 149 q 240 123 240 80 l 240 80 l 240 -35 q 240 -147 128 -147 l 128 -147 z"},"„":{"ha":514,"o":"m 128 -147 l 79 -147 l 79 -79 l 118 -79 q 164 -79 164 -33 l 164 -33 l 164 -1 l 147 -1 q 107 -1 81 23 q 54 47 54 84 l 54 84 q 54 124 81 149 q 107 174 147 174 l 147 174 q 188 174 214 149 q 240 123 240 80 l 240 80 l 240 -35 q 240 -147 128 -147 l 128 -147 z m 348 -147 l 299 -147 l 299 -79 l 338 -79 q 384 -79 384 -33 l 384 -33 l 384 -1 l 367 -1 q 327 -1 301 23 q 274 47 274 84 l 274 84 q 274 124 301 149 q 327 174 367 174 l 367 174 q 408 174 434 149 q 460 123 460 80 l 460 80 l 460 -35 q 460 -147 348 -147 l 348 -147 z"},".":{"ha":298,"o":"m 150 -14 l 150 -14 q 109 -14 82 13 q 54 39 54 81 l 54 81 q 54 123 82 150 q 109 176 150 176 l 150 176 q 190 176 217 150 q 244 123 244 81 l 244 81 q 244 39 217 13 q 190 -14 150 -14 z"},",":{"ha":294,"o":"m 128 -147 l 79 -147 l 79 -79 l 118 -79 q 164 -79 164 -33 l 164 -33 l 164 -1 l 147 -1 q 107 -1 81 23 q 54 47 54 84 l 54 84 q 54 124 81 149 q 107 174 147 174 l 147 174 q 188 174 214 149 q 240 123 240 80 l 240 80 l 240 -35 q 240 -147 128 -147 l 128 -147 z"},":":{"ha":298,"o":"m 150 -14 l 150 -14 q 109 -14 82 13 q 54 39 54 81 l 54 81 q 54 123 82 150 q 109 176 150 176 l 150 176 q 190 176 217 150 q 244 123 244 81 l 244 81 q 244 39 217 13 q 190 -14 150 -14 z m 150 320 l 150 320 q 109 320 82 347 q 54 373 54 415 l 54 415 q 54 457 82 484 q 109 510 150 510 l 150 510 q 190 510 217 484 q 244 457 244 415 l 244 415 q 244 373 217 347 q 190 320 150 320 z"},";":{"ha":298,"o":"m 150 320 l 150 320 q 109 320 82 347 q 54 373 54 415 l 54 415 q 54 457 82 484 q 109 510 150 510 l 150 510 q 190 510 217 484 q 244 457 244 415 l 244 415 q 244 373 217 347 q 190 320 150 320 z m 130 -147 l 81 -147 l 81 -79 l 120 -79 q 166 -79 166 -33 l 166 -33 l 166 -1 l 149 -1 q 109 -1 83 23 q 56 47 56 84 l 56 84 q 56 124 83 149 q 109 174 149 174 l 149 174 q 190 174 216 149 q 242 123 242 80 l 242 80 l 242 -35 q 242 -147 130 -147 l 130 -147 z"},"…":{"ha":798,"o":"m 150 -14 l 150 -14 q 109 -14 82 13 q 54 39 54 81 l 54 81 q 54 123 82 150 q 109 176 150 176 l 150 176 q 190 176 217 150 q 244 123 244 81 l 244 81 q 244 39 217 13 q 190 -14 150 -14 z m 400 -14 l 400 -14 q 359 -14 332 13 q 304 39 304 81 l 304 81 q 304 123 332 150 q 359 176 400 176 l 400 176 q 440 176 467 150 q 494 123 494 81 l 494 81 q 494 39 467 13 q 440 -14 400 -14 z m 650 -14 l 650 -14 q 609 -14 582 13 q 554 39 554 81 l 554 81 q 554 123 582 150 q 609 176 650 176 l 650 176 q 690 176 717 150 q 744 123 744 81 l 744 81 q 744 39 717 13 q 690 -14 650 -14 z"},"!":{"ha":298,"o":"m 213 230 l 85 230 l 85 700 l 213 700 l 213 230 z m 150 -14 l 150 -14 q 109 -14 82 13 q 54 39 54 81 l 54 81 q 54 123 82 150 q 109 176 150 176 l 150 176 q 190 176 217 150 q 244 123 244 81 l 244 81 q 244 39 217 13 q 190 -14 150 -14 z"},"¡":{"ha":298,"o":"m 213 -200 l 85 -200 l 85 266 l 213 266 l 213 -200 z m 150 510 l 150 510 q 190 510 217 484 q 244 457 244 415 l 244 415 q 244 373 217 347 q 190 320 150 320 l 150 320 q 109 320 82 347 q 54 373 54 415 l 54 415 q 54 457 82 484 q 109 510 150 510 z"},"?":{"ha":578,"o":"m 341 230 l 209 230 l 209 254 q 209 305 230 338 q 250 371 296 393 l 296 393 l 313 401 q 358 422 382 446 q 406 470 406 510 l 406 510 q 406 539 392 560 q 377 580 351 591 q 325 602 290 602 l 290 602 q 254 602 226 590 q 197 578 181 554 q 164 530 164 494 l 164 494 l 164 472 l 34 472 l 34 492 q 34 561 68 611 q 102 661 160 688 q 218 714 290 714 l 290 714 q 361 714 417 688 q 472 662 504 616 q 536 570 536 510 l 536 510 q 536 450 514 412 q 492 373 459 350 q 425 326 390 309 l 390 309 l 373 301 q 355 293 348 282 q 341 270 341 248 l 341 248 l 341 230 z m 279 -14 l 279 -14 q 239 -14 212 13 q 184 39 184 81 l 184 81 q 184 123 212 150 q 239 176 279 176 l 279 176 q 320 176 347 150 q 374 123 374 81 l 374 81 q 374 39 347 13 q 320 -14 279 -14 z"},"¿":{"ha":578,"o":"m 288 -214 l 288 -214 q 217 -214 162 -188 q 106 -162 74 -116 q 42 -70 42 -10 l 42 -10 q 42 50 64 89 q 86 127 120 151 q 153 175 188 191 l 188 191 l 205 199 q 223 207 230 219 q 237 230 237 252 l 237 252 l 237 266 l 369 266 l 369 246 q 369 195 349 162 q 329 129 282 107 l 282 107 l 265 99 q 220 78 196 55 q 172 31 172 -10 l 172 -10 q 172 -39 187 -59 q 201 -80 227 -91 q 253 -102 288 -102 l 288 -102 q 324 -102 353 -90 q 381 -78 398 -54 q 414 -30 414 6 l 414 6 l 414 28 l 544 28 l 544 8 q 544 -61 510 -110 q 476 -160 418 -187 q 360 -214 288 -214 z m 299 510 l 299 510 q 340 510 367 484 q 394 457 394 415 l 394 415 q 394 373 367 347 q 340 320 299 320 l 299 320 q 259 320 232 347 q 204 373 204 415 l 204 415 q 204 457 232 484 q 259 510 299 510 z"},"‹":{"ha":480,"o":"m 412 6 l 406 6 l 52 176 l 52 320 l 406 490 l 412 490 l 412 355 l 178 257 l 178 239 l 412 141 l 412 6 z"},"›":{"ha":480,"o":"m 74 6 l 68 6 l 68 141 l 302 239 l 302 257 l 68 355 l 68 490 l 74 490 l 428 320 l 428 176 l 74 6 z"},"-":{"ha":432,"o":"m 364 198 l 68 198 l 68 312 l 364 312 l 364 198 z"},"–":{"ha":584,"o":"m 516 198 l 68 198 l 68 312 l 516 312 l 516 198 z"},"—":{"ha":888,"o":"m 820 198 l 68 198 l 68 312 l 820 312 l 820 198 z"},"·":{"ha":218,"o":"m 110 191 l 110 191 q 69 191 42 218 q 14 244 14 286 l 14 286 q 14 328 42 355 q 69 381 110 381 l 110 381 q 150 381 177 355 q 204 328 204 286 l 204 286 q 204 244 177 218 q 150 191 110 191 z"},"•":{"ha":400,"o":"m 200 111 l 200 111 q 160 111 128 130 q 95 149 76 182 q 56 215 56 256 l 56 256 q 56 296 75 329 q 93 361 126 380 q 159 399 200 399 l 200 399 q 242 399 275 381 q 307 362 326 330 q 344 297 344 255 l 344 255 q 344 213 325 181 q 305 148 272 130 q 239 111 200 111 z"},"_":{"ha":620,"o":"m 555 -162 l 65 -162 l 65 -48 l 555 -48 l 555 -162 z"},"@":{"ha":1014,"o":"m 740 -200 l 524 -200 q 381 -200 279 -145 q 176 -91 121 9 q 66 109 66 246 l 66 246 l 66 270 q 66 407 120 507 q 174 606 274 660 q 374 714 512 714 l 512 714 l 534 714 q 660 714 754 662 q 848 609 900 515 q 952 421 952 296 l 952 296 l 952 222 q 952 117 909 59 q 866 0 780 0 l 780 0 l 722 0 q 675 0 650 19 q 625 38 625 70 l 625 70 l 625 72 l 607 72 q 599 51 584 33 q 568 15 544 5 q 520 -6 483 -6 l 483 -6 q 420 -6 375 28 q 329 61 305 117 q 280 173 280 242 l 280 242 l 280 258 q 280 328 304 384 q 327 440 371 473 q 414 506 473 506 l 473 506 q 510 506 534 497 q 558 488 573 473 q 588 458 598 440 l 598 440 l 616 440 l 616 500 l 738 500 l 738 146 q 738 129 745 121 q 752 112 769 112 l 769 112 l 773 112 q 802 112 815 140 q 828 167 828 222 l 828 222 l 828 294 q 828 389 796 458 q 763 526 697 563 q 631 600 530 600 l 530 600 l 516 600 q 415 600 342 562 q 269 524 230 450 q 190 375 190 266 l 190 266 l 190 250 q 190 141 231 66 q 271 -9 348 -47 q 424 -86 532 -86 l 532 -86 l 740 -86 l 740 -200 z m 509 102 l 509 102 q 558 102 587 140 q 616 178 616 244 l 616 244 l 616 256 q 616 322 587 360 q 558 398 509 398 l 509 398 q 460 398 432 360 q 404 322 404 256 l 404 256 l 404 244 q 404 178 432 140 q 460 102 509 102 z"},"&":{"ha":591,"o":"m 485 0 l 235 0 q 173 0 127 23 q 80 45 54 88 q 28 130 28 189 l 28 189 q 28 232 44 264 q 59 296 86 317 q 113 338 146 348 l 146 348 l 146 362 q 96 377 64 414 q 32 451 32 512 l 32 512 q 32 573 59 615 q 86 657 133 679 q 179 700 239 700 l 239 700 l 348 700 l 348 596 l 262 596 q 217 596 188 572 q 158 548 158 501 l 158 501 q 158 468 173 447 q 187 426 211 416 q 234 406 262 406 l 262 406 l 359 406 l 359 496 l 485 496 l 485 406 l 577 406 l 577 302 l 485 302 l 485 0 z m 258 104 l 258 104 l 359 104 l 359 302 l 258 302 q 214 302 184 277 q 154 252 154 203 l 154 203 q 154 153 186 129 q 217 104 258 104 z"},"*":{"ha":540,"o":"m 122 437 l 44 437 l 44 511 l 122 511 l 194 498 l 199 511 l 139 552 l 84 608 l 136 660 l 192 605 l 233 545 l 246 550 l 233 622 l 233 700 l 307 700 l 307 622 l 294 550 l 307 545 l 348 605 l 404 660 l 456 608 l 401 552 l 341 511 l 346 498 l 418 511 l 496 511 l 496 437 l 418 437 l 346 450 l 341 437 l 401 396 l 456 340 l 404 288 l 348 343 l 307 403 l 294 398 l 307 326 l 307 248 l 233 248 l 233 326 l 246 398 l 233 403 l 192 343 l 136 288 l 84 340 l 139 396 l 199 437 l 194 450 l 122 437 z"},"À":{"ha":634,"o":"m 154 0 l 18 0 l 202 700 l 432 700 l 616 0 l 480 0 l 442 154 l 192 154 l 154 0 z m 308 617 l 223 276 l 411 276 l 326 617 l 308 617 z m 395 758 l 283 758 l 179 888 l 325 888 l 395 758 z"},"Á":{"ha":634,"o":"m 154 0 l 18 0 l 202 700 l 432 700 l 616 0 l 480 0 l 442 154 l 192 154 l 154 0 z m 308 617 l 223 276 l 411 276 l 326 617 l 308 617 z m 351 758 l 239 758 l 309 888 l 455 888 l 351 758 z"},"Â":{"ha":634,"o":"m 154 0 l 18 0 l 202 700 l 432 700 l 616 0 l 480 0 l 442 154 l 192 154 l 154 0 z m 308 617 l 223 276 l 411 276 l 326 617 l 308 617 z m 259 758 l 125 758 l 239 888 l 395 888 l 509 758 l 375 758 l 326 824 l 308 824 l 259 758 z"},"Ã":{"ha":634,"o":"m 154 0 l 18 0 l 202 700 l 432 700 l 616 0 l 480 0 l 442 154 l 192 154 l 154 0 z m 308 617 l 223 276 l 411 276 l 326 617 l 308 617 z m 217 768 l 200 746 l 136 797 l 168 840 q 186 864 207 877 q 227 890 255 890 l 255 890 q 279 890 294 883 q 309 876 326 862 l 326 862 q 336 854 347 846 q 357 837 372 837 l 372 837 q 388 837 398 847 q 408 857 417 868 l 417 868 l 434 890 l 498 839 l 466 796 q 448 772 428 759 q 407 746 379 746 l 379 746 q 355 746 340 753 q 325 760 308 774 l 308 774 q 298 782 288 791 q 277 799 262 799 l 262 799 q 246 799 236 789 q 226 779 217 768 l 217 768 z"},"Ä":{"ha":634,"o":"m 154 0 l 18 0 l 202 700 l 432 700 l 616 0 l 480 0 l 442 154 l 192 154 l 154 0 z m 308 617 l 223 276 l 411 276 l 326 617 l 308 617 z m 428 754 l 428 754 q 394 754 371 776 q 347 797 347 834 l 347 834 q 347 871 371 893 q 394 914 428 914 l 428 914 q 463 914 486 893 q 509 871 509 834 l 509 834 q 509 797 486 776 q 463 754 428 754 z m 206 754 l 206 754 q 172 754 149 776 q 125 797 125 834 l 125 834 q 125 871 149 893 q 172 914 206 914 l 206 914 q 241 914 264 893 q 287 871 287 834 l 287 834 q 287 797 264 776 q 241 754 206 754 z"},"Ā":{"ha":634,"o":"m 154 0 l 18 0 l 202 700 l 432 700 l 616 0 l 480 0 l 442 154 l 192 154 l 154 0 z m 308 617 l 223 276 l 411 276 l 326 617 l 308 617 z m 481 762 l 153 762 l 153 862 l 481 862 l 481 762 z"},"Ă":{"ha":634,"o":"m 154 0 l 18 0 l 202 700 l 432 700 l 616 0 l 480 0 l 442 154 l 192 154 l 154 0 z m 308 617 l 223 276 l 411 276 l 326 617 l 308 617 z m 317 752 l 317 752 q 240 752 197 788 q 153 823 153 884 l 153 884 l 153 888 l 255 888 l 255 884 q 255 860 270 843 q 284 826 317 826 l 317 826 q 350 826 365 843 q 379 860 379 884 l 379 884 l 379 888 l 481 888 l 481 884 q 481 823 438 788 q 394 752 317 752 z"},"Å":{"ha":634,"o":"m 154 0 l 18 0 l 202 700 l 432 700 l 616 0 l 480 0 l 442 154 l 192 154 l 154 0 z m 308 617 l 223 276 l 411 276 l 326 617 l 308 617 z m 317 748 l 317 748 q 274 748 244 777 q 213 805 213 848 l 213 848 q 213 891 243 920 q 273 948 317 948 l 317 948 q 361 948 391 920 q 421 892 421 848 l 421 848 q 421 802 390 775 q 358 748 317 748 z m 317 818 l 317 818 q 331 818 339 827 q 347 835 347 848 l 347 848 q 347 861 339 870 q 331 878 317 878 l 317 878 q 304 878 296 870 q 287 861 287 848 l 287 848 q 287 835 296 827 q 304 818 317 818 z"},"Ą":{"ha":634,"o":"m 154 0 l 18 0 l 202 700 l 432 700 l 616 0 l 480 0 l 442 154 l 192 154 l 154 0 z m 308 617 l 223 276 l 411 276 l 326 617 l 308 617 z m 647 -170 l 567 -170 q 533 -170 511 -151 q 489 -132 489 -101 l 489 -101 q 489 -86 492 -69 q 494 -52 498 -36 l 498 -36 l 511 20 l 592 20 l 582 -35 q 581 -42 580 -49 q 578 -57 578 -64 l 578 -64 q 578 -86 601 -86 l 601 -86 l 647 -86 l 647 -170 z"},"Æ":{"ha":821,"o":"m 789 0 l 375 0 l 375 700 l 783 700 l 783 580 l 505 580 l 505 413 l 755 413 l 755 293 l 505 293 l 505 120 l 789 120 l 789 0 z m 153 0 l 18 0 l 252 700 l 375 700 l 375 630 l 357 630 l 242 276 l 375 276 l 375 154 l 203 154 l 153 0 z"},"Ç":{"ha":644,"o":"m 332 -14 l 332 -14 q 202 -14 126 59 q 50 131 50 266 l 50 266 l 50 434 q 50 569 126 642 q 202 714 332 714 l 332 714 q 461 714 532 644 q 602 573 602 450 l 602 450 l 602 444 l 472 444 l 472 454 q 472 516 438 556 q 403 596 332 596 l 332 596 q 262 596 222 553 q 182 510 182 436 l 182 436 l 182 264 q 182 191 222 148 q 262 104 332 104 l 332 104 q 403 104 438 145 q 472 185 472 246 l 472 246 l 472 264 l 602 264 l 602 250 q 602 127 532 57 q 461 -14 332 -14 z m 332 -214 l 332 -214 q 300 -214 270 -208 q 239 -202 217 -195 l 217 -195 l 237 -120 q 256 -126 278 -131 q 299 -136 326 -136 l 326 -136 q 346 -136 359 -129 q 372 -122 372 -107 l 372 -107 q 372 -93 361 -86 q 349 -80 323 -80 l 323 -80 l 285 -80 l 292 20 l 378 20 l 374 -39 q 412 -39 439 -60 q 465 -81 465 -122 l 465 -122 q 465 -154 446 -174 q 427 -195 397 -204 q 366 -214 332 -214 z"},"Ć":{"ha":644,"o":"m 332 -14 l 332 -14 q 202 -14 126 59 q 50 131 50 266 l 50 266 l 50 434 q 50 569 126 642 q 202 714 332 714 l 332 714 q 461 714 532 644 q 602 573 602 450 l 602 450 l 602 444 l 472 444 l 472 454 q 472 516 438 556 q 403 596 332 596 l 332 596 q 262 596 222 553 q 182 510 182 436 l 182 436 l 182 264 q 182 191 222 148 q 262 104 332 104 l 332 104 q 403 104 438 145 q 472 185 472 246 l 472 246 l 472 264 l 602 264 l 602 250 q 602 127 532 57 q 461 -14 332 -14 z m 366 758 l 254 758 l 324 888 l 470 888 l 366 758 z"},"Ĉ":{"ha":644,"o":"m 332 -14 l 332 -14 q 202 -14 126 59 q 50 131 50 266 l 50 266 l 50 434 q 50 569 126 642 q 202 714 332 714 l 332 714 q 461 714 532 644 q 602 573 602 450 l 602 450 l 602 444 l 472 444 l 472 454 q 472 516 438 556 q 403 596 332 596 l 332 596 q 262 596 222 553 q 182 510 182 436 l 182 436 l 182 264 q 182 191 222 148 q 262 104 332 104 l 332 104 q 403 104 438 145 q 472 185 472 246 l 472 246 l 472 264 l 602 264 l 602 250 q 602 127 532 57 q 461 -14 332 -14 z m 274 758 l 140 758 l 254 888 l 410 888 l 524 758 l 390 758 l 341 824 l 323 824 l 274 758 z"},"Č":{"ha":644,"o":"m 332 -14 l 332 -14 q 202 -14 126 59 q 50 131 50 266 l 50 266 l 50 434 q 50 569 126 642 q 202 714 332 714 l 332 714 q 461 714 532 644 q 602 573 602 450 l 602 450 l 602 444 l 472 444 l 472 454 q 472 516 438 556 q 403 596 332 596 l 332 596 q 262 596 222 553 q 182 510 182 436 l 182 436 l 182 264 q 182 191 222 148 q 262 104 332 104 l 332 104 q 403 104 438 145 q 472 185 472 246 l 472 246 l 472 264 l 602 264 l 602 250 q 602 127 532 57 q 461 -14 332 -14 z m 410 758 l 254 758 l 140 888 l 274 888 l 323 822 l 341 822 l 390 888 l 524 888 l 410 758 z"},"Ċ":{"ha":644,"o":"m 332 -14 l 332 -14 q 202 -14 126 59 q 50 131 50 266 l 50 266 l 50 434 q 50 569 126 642 q 202 714 332 714 l 332 714 q 461 714 532 644 q 602 573 602 450 l 602 450 l 602 444 l 472 444 l 472 454 q 472 516 438 556 q 403 596 332 596 l 332 596 q 262 596 222 553 q 182 510 182 436 l 182 436 l 182 264 q 182 191 222 148 q 262 104 332 104 l 332 104 q 403 104 438 145 q 472 185 472 246 l 472 246 l 472 264 l 602 264 l 602 250 q 602 127 532 57 q 461 -14 332 -14 z m 332 754 l 332 754 q 298 754 275 776 q 251 798 251 834 l 251 834 q 251 870 275 892 q 298 914 332 914 l 332 914 q 367 914 390 892 q 413 870 413 834 l 413 834 q 413 798 390 776 q 367 754 332 754 z"},"Ð":{"ha":666,"o":"m 334 0 l 46 0 l 46 116 l 138 116 l 138 584 l 46 584 l 46 700 l 334 700 q 475 700 549 629 q 622 557 622 416 l 622 416 l 622 284 q 622 143 549 72 q 475 0 334 0 l 334 0 z m 270 580 l 270 120 l 336 120 q 416 120 453 162 q 490 204 490 280 l 490 280 l 490 420 q 490 497 453 539 q 416 580 336 580 l 336 580 l 270 580 z m 386 306 l 46 306 l 46 396 l 386 396 l 386 306 z"},"Ď":{"ha":666,"o":"m 334 0 l 46 0 l 46 116 l 138 116 l 138 584 l 46 584 l 46 700 l 334 700 q 475 700 549 629 q 622 557 622 416 l 622 416 l 622 284 q 622 143 549 72 q 475 0 334 0 l 334 0 z m 270 580 l 270 120 l 336 120 q 416 120 453 162 q 490 204 490 280 l 490 280 l 490 420 q 490 497 453 539 q 416 580 336 580 l 336 580 l 270 580 z m 398 758 l 242 758 l 128 888 l 262 888 l 311 822 l 329 822 l 378 888 l 512 888 l 398 758 z"},"Đ":{"ha":666,"o":"m 334 0 l 46 0 l 46 116 l 138 116 l 138 584 l 46 584 l 46 700 l 334 700 q 475 700 549 629 q 622 557 622 416 l 622 416 l 622 284 q 622 143 549 72 q 475 0 334 0 l 334 0 z m 270 580 l 270 120 l 336 120 q 416 120 453 162 q 490 204 490 280 l 490 280 l 490 420 q 490 497 453 539 q 416 580 336 580 l 336 580 l 270 580 z m 386 306 l 46 306 l 46 396 l 386 396 l 386 306 z"},"È":{"ha":554,"o":"m 522 0 l 66 0 l 66 700 l 516 700 l 516 580 l 198 580 l 198 413 l 488 413 l 488 293 l 198 293 l 198 120 l 522 120 l 522 0 z m 374 758 l 262 758 l 158 888 l 304 888 l 374 758 z"},"É":{"ha":554,"o":"m 522 0 l 66 0 l 66 700 l 516 700 l 516 580 l 198 580 l 198 413 l 488 413 l 488 293 l 198 293 l 198 120 l 522 120 l 522 0 z m 330 758 l 218 758 l 288 888 l 434 888 l 330 758 z"},"Ê":{"ha":554,"o":"m 522 0 l 66 0 l 66 700 l 516 700 l 516 580 l 198 580 l 198 413 l 488 413 l 488 293 l 198 293 l 198 120 l 522 120 l 522 0 z m 238 758 l 104 758 l 218 888 l 374 888 l 488 758 l 354 758 l 305 824 l 287 824 l 238 758 z"},"Ě":{"ha":554,"o":"m 522 0 l 66 0 l 66 700 l 516 700 l 516 580 l 198 580 l 198 413 l 488 413 l 488 293 l 198 293 l 198 120 l 522 120 l 522 0 z m 374 758 l 218 758 l 104 888 l 238 888 l 287 822 l 305 822 l 354 888 l 488 888 l 374 758 z"},"Ë":{"ha":554,"o":"m 522 0 l 66 0 l 66 700 l 516 700 l 516 580 l 198 580 l 198 413 l 488 413 l 488 293 l 198 293 l 198 120 l 522 120 l 522 0 z m 407 754 l 407 754 q 373 754 350 776 q 326 797 326 834 l 326 834 q 326 871 350 893 q 373 914 407 914 l 407 914 q 442 914 465 893 q 488 871 488 834 l 488 834 q 488 797 465 776 q 442 754 407 754 z m 185 754 l 185 754 q 151 754 128 776 q 104 797 104 834 l 104 834 q 104 871 128 893 q 151 914 185 914 l 185 914 q 220 914 243 893 q 266 871 266 834 l 266 834 q 266 797 243 776 q 220 754 185 754 z"},"Ē":{"ha":554,"o":"m 522 0 l 66 0 l 66 700 l 516 700 l 516 580 l 198 580 l 198 413 l 488 413 l 488 293 l 198 293 l 198 120 l 522 120 l 522 0 z m 460 762 l 132 762 l 132 862 l 460 862 l 460 762 z"},"Ĕ":{"ha":554,"o":"m 522 0 l 66 0 l 66 700 l 516 700 l 516 580 l 198 580 l 198 413 l 488 413 l 488 293 l 198 293 l 198 120 l 522 120 l 522 0 z m 296 752 l 296 752 q 219 752 176 788 q 132 823 132 884 l 132 884 l 132 888 l 234 888 l 234 884 q 234 860 249 843 q 263 826 296 826 l 296 826 q 329 826 344 843 q 358 860 358 884 l 358 884 l 358 888 l 460 888 l 460 884 q 460 823 417 788 q 373 752 296 752 z"},"Ė":{"ha":554,"o":"m 522 0 l 66 0 l 66 700 l 516 700 l 516 580 l 198 580 l 198 413 l 488 413 l 488 293 l 198 293 l 198 120 l 522 120 l 522 0 z m 296 754 l 296 754 q 262 754 239 776 q 215 798 215 834 l 215 834 q 215 870 239 892 q 262 914 296 914 l 296 914 q 331 914 354 892 q 377 870 377 834 l 377 834 q 377 798 354 776 q 331 754 296 754 z"},"Ę":{"ha":554,"o":"m 522 0 l 66 0 l 66 700 l 516 700 l 516 580 l 198 580 l 198 413 l 488 413 l 488 293 l 198 293 l 198 120 l 522 120 l 522 0 z m 522 -170 l 442 -170 q 408 -170 386 -151 q 364 -132 364 -101 l 364 -101 q 364 -86 367 -69 q 369 -52 373 -36 l 373 -36 l 386 20 l 467 20 l 457 -35 q 456 -42 455 -49 q 453 -57 453 -64 l 453 -64 q 453 -86 476 -86 l 476 -86 l 522 -86 l 522 -170 z"},"Ĝ":{"ha":662,"o":"m 308 -14 l 308 -14 q 236 -14 178 19 q 119 51 85 114 q 50 176 50 266 l 50 266 l 50 434 q 50 569 126 642 q 202 714 332 714 l 332 714 q 461 714 532 646 q 602 577 602 460 l 602 460 l 602 456 l 472 456 l 472 464 q 472 501 457 531 q 441 561 410 579 q 379 596 332 596 l 332 596 q 262 596 222 553 q 182 510 182 436 l 182 436 l 182 264 q 182 191 222 147 q 262 102 334 102 l 334 102 q 406 102 439 140 q 472 178 472 236 l 472 236 l 472 246 l 306 246 l 306 358 l 602 358 l 602 0 l 480 0 l 480 67 l 462 67 q 455 50 440 31 q 424 12 393 -1 q 362 -14 308 -14 z m 277 758 l 143 758 l 257 888 l 413 888 l 527 758 l 393 758 l 344 824 l 326 824 l 277 758 z"},"Ğ":{"ha":662,"o":"m 308 -14 l 308 -14 q 236 -14 178 19 q 119 51 85 114 q 50 176 50 266 l 50 266 l 50 434 q 50 569 126 642 q 202 714 332 714 l 332 714 q 461 714 532 646 q 602 577 602 460 l 602 460 l 602 456 l 472 456 l 472 464 q 472 501 457 531 q 441 561 410 579 q 379 596 332 596 l 332 596 q 262 596 222 553 q 182 510 182 436 l 182 436 l 182 264 q 182 191 222 147 q 262 102 334 102 l 334 102 q 406 102 439 140 q 472 178 472 236 l 472 236 l 472 246 l 306 246 l 306 358 l 602 358 l 602 0 l 480 0 l 480 67 l 462 67 q 455 50 440 31 q 424 12 393 -1 q 362 -14 308 -14 z m 335 752 l 335 752 q 258 752 215 788 q 171 823 171 884 l 171 884 l 171 888 l 273 888 l 273 884 q 273 860 288 843 q 302 826 335 826 l 335 826 q 368 826 383 843 q 397 860 397 884 l 397 884 l 397 888 l 499 888 l 499 884 q 499 823 456 788 q 412 752 335 752 z"},"Ġ":{"ha":662,"o":"m 308 -14 l 308 -14 q 236 -14 178 19 q 119 51 85 114 q 50 176 50 266 l 50 266 l 50 434 q 50 569 126 642 q 202 714 332 714 l 332 714 q 461 714 532 646 q 602 577 602 460 l 602 460 l 602 456 l 472 456 l 472 464 q 472 501 457 531 q 441 561 410 579 q 379 596 332 596 l 332 596 q 262 596 222 553 q 182 510 182 436 l 182 436 l 182 264 q 182 191 222 147 q 262 102 334 102 l 334 102 q 406 102 439 140 q 472 178 472 236 l 472 236 l 472 246 l 306 246 l 306 358 l 602 358 l 602 0 l 480 0 l 480 67 l 462 67 q 455 50 440 31 q 424 12 393 -1 q 362 -14 308 -14 z m 335 754 l 335 754 q 301 754 278 776 q 254 798 254 834 l 254 834 q 254 870 278 892 q 301 914 335 914 l 335 914 q 370 914 393 892 q 416 870 416 834 l 416 834 q 416 798 393 776 q 370 754 335 754 z"},"Ĥ":{"ha":656,"o":"m 198 0 l 66 0 l 66 700 l 198 700 l 198 411 l 458 411 l 458 700 l 590 700 l 590 0 l 458 0 l 458 291 l 198 291 l 198 0 z m 270 758 l 136 758 l 250 888 l 406 888 l 520 758 l 386 758 l 337 824 l 319 824 l 270 758 z"},"Ħ":{"ha":656,"o":"m 198 0 l 66 0 l 66 700 l 198 700 l 198 411 l 458 411 l 458 700 l 590 700 l 590 0 l 458 0 l 458 291 l 198 291 l 198 0 z m 668 506 l -12 506 l -12 596 l 668 596 l 668 506 z"},"Ì":{"ha":264,"o":"m 198 0 l 66 0 l 66 700 l 198 700 l 198 0 z m 210 758 l 98 758 l -6 888 l 140 888 l 210 758 z"},"Í":{"ha":264,"o":"m 198 0 l 66 0 l 66 700 l 198 700 l 198 0 z m 166 758 l 54 758 l 124 888 l 270 888 l 166 758 z"},"Î":{"ha":264,"o":"m 198 0 l 66 0 l 66 700 l 198 700 l 198 0 z m 74 758 l -60 758 l 54 888 l 210 888 l 324 758 l 190 758 l 141 824 l 123 824 l 74 758 z"},"Ĩ":{"ha":264,"o":"m 198 0 l 66 0 l 66 700 l 198 700 l 198 0 z m 32 768 l 15 746 l -49 797 l -17 840 q 1 864 22 877 q 42 890 70 890 l 70 890 q 94 890 109 883 q 124 876 141 862 l 141 862 q 151 854 162 846 q 172 837 187 837 l 187 837 q 203 837 213 847 q 223 857 232 868 l 232 868 l 249 890 l 313 839 l 281 796 q 263 772 243 759 q 222 746 194 746 l 194 746 q 170 746 155 753 q 140 760 123 774 l 123 774 q 113 782 103 791 q 92 799 77 799 l 77 799 q 61 799 51 789 q 41 779 32 768 l 32 768 z"},"Ï":{"ha":264,"o":"m 198 0 l 66 0 l 66 700 l 198 700 l 198 0 z m 243 754 l 243 754 q 209 754 186 776 q 162 797 162 834 l 162 834 q 162 871 186 893 q 209 914 243 914 l 243 914 q 278 914 301 893 q 324 871 324 834 l 324 834 q 324 797 301 776 q 278 754 243 754 z m 21 754 l 21 754 q -13 754 -36 776 q -60 797 -60 834 l -60 834 q -60 871 -36 893 q -13 914 21 914 l 21 914 q 56 914 79 893 q 102 871 102 834 l 102 834 q 102 797 79 776 q 56 754 21 754 z"},"Ī":{"ha":264,"o":"m 198 0 l 66 0 l 66 700 l 198 700 l 198 0 z m 296 762 l -32 762 l -32 862 l 296 862 l 296 762 z"},"İ":{"ha":264,"o":"m 198 0 l 66 0 l 66 700 l 198 700 l 198 0 z m 132 754 l 132 754 q 98 754 75 776 q 51 798 51 834 l 51 834 q 51 870 75 892 q 98 914 132 914 l 132 914 q 167 914 190 892 q 213 870 213 834 l 213 834 q 213 798 190 776 q 167 754 132 754 z"},"Į":{"ha":264,"o":"m 198 0 l 66 0 l 66 700 l 198 700 l 198 0 z m 228 -170 l 148 -170 q 114 -170 92 -151 q 70 -132 70 -101 l 70 -101 q 70 -86 73 -69 q 75 -52 79 -36 l 79 -36 l 92 20 l 173 20 l 163 -35 q 162 -42 161 -49 q 159 -57 159 -64 l 159 -64 q 159 -86 182 -86 l 182 -86 l 228 -86 l 228 -170 z"},"Ĭ":{"ha":264,"o":"m 198 0 l 66 0 l 66 700 l 198 700 l 198 0 z m 132 752 l 132 752 q 55 752 12 788 q -32 823 -32 884 l -32 884 l -32 888 l 70 888 l 70 884 q 70 860 85 843 q 99 826 132 826 l 132 826 q 165 826 180 843 q 194 860 194 884 l 194 884 l 194 888 l 296 888 l 296 884 q 296 823 253 788 q 209 752 132 752 z"},"Ĵ":{"ha":610,"o":"m 267 -14 l 267 -14 q 159 -14 96 45 q 32 104 32 210 l 32 210 l 32 276 l 164 276 l 164 210 q 164 163 190 137 q 216 110 263 110 l 263 110 q 307 110 332 136 q 356 162 356 210 l 356 210 l 356 580 l 236 580 l 236 700 l 568 700 l 568 580 l 488 580 l 488 210 q 488 101 429 44 q 370 -14 267 -14 z m 344 758 l 210 758 l 324 888 l 480 888 l 594 758 l 460 758 l 411 824 l 393 824 l 344 758 z"},"Ĺ":{"ha":542,"o":"m 518 0 l 66 0 l 66 700 l 198 700 l 198 120 l 518 120 l 518 0 z m 166 758 l 54 758 l 124 888 l 270 888 l 166 758 z"},"Ľ":{"ha":542,"o":"m 518 0 l 66 0 l 66 700 l 198 700 l 198 120 l 518 120 l 518 0 z m 340 498 l 254 498 l 262 700 l 382 700 l 340 498 z"},"Ḹ":{"ha":542,"o":"m 518 0 l 66 0 l 66 700 l 198 700 l 198 120 l 518 120 l 518 0 z m 292 -214 l 292 -214 q 258 -214 235 -192 q 211 -170 211 -134 l 211 -134 q 211 -98 235 -76 q 258 -54 292 -54 l 292 -54 q 327 -54 350 -76 q 373 -98 373 -134 l 373 -134 q 373 -170 350 -192 q 327 -214 292 -214 z m 296 762 l -32 762 l -32 862 l 296 862 l 296 762 z"},"Ł":{"ha":612,"o":"m 588 0 l 136 0 l 136 700 l 268 700 l 268 120 l 588 120 l 588 0 z m 396 393 l 48 221 l 8 302 l 356 474 l 396 393 z"},"Ŀ":{"ha":542,"o":"m 518 0 l 66 0 l 66 700 l 198 700 l 198 120 l 518 120 l 518 0 z m 390 284 l 390 284 q 356 284 333 306 q 309 328 309 364 l 309 364 q 309 400 333 422 q 356 444 390 444 l 390 444 q 425 444 448 422 q 471 400 471 364 l 471 364 q 471 328 448 306 q 425 284 390 284 z"},"Ń":{"ha":670,"o":"m 196 0 l 66 0 l 66 700 l 317 700 l 456 90 l 474 90 l 474 700 l 604 700 l 604 0 l 353 0 l 214 610 l 196 610 l 196 0 z m 368 758 l 256 758 l 326 888 l 472 888 l 368 758 z"},"Ň":{"ha":670,"o":"m 196 0 l 66 0 l 66 700 l 317 700 l 456 90 l 474 90 l 474 700 l 604 700 l 604 0 l 353 0 l 214 610 l 196 610 l 196 0 z m 412 758 l 256 758 l 142 888 l 276 888 l 325 822 l 343 822 l 392 888 l 526 888 l 412 758 z"},"Ñ":{"ha":670,"o":"m 196 0 l 66 0 l 66 700 l 317 700 l 456 90 l 474 90 l 474 700 l 604 700 l 604 0 l 353 0 l 214 610 l 196 610 l 196 0 z m 234 768 l 217 746 l 153 797 l 185 840 q 203 864 224 877 q 244 890 272 890 l 272 890 q 296 890 311 883 q 326 876 343 862 l 343 862 q 353 854 364 846 q 374 837 389 837 l 389 837 q 405 837 415 847 q 425 857 434 868 l 434 868 l 451 890 l 515 839 l 483 796 q 465 772 445 759 q 424 746 396 746 l 396 746 q 372 746 357 753 q 342 760 325 774 l 325 774 q 315 782 305 791 q 294 799 279 799 l 279 799 q 263 799 253 789 q 243 779 234 768 l 234 768 z"},"Ò":{"ha":676,"o":"m 338 -14 l 338 -14 q 206 -14 128 59 q 50 131 50 266 l 50 266 l 50 434 q 50 569 128 642 q 206 714 338 714 l 338 714 q 470 714 548 642 q 626 569 626 434 l 626 434 l 626 266 q 626 131 548 59 q 470 -14 338 -14 z m 338 104 l 338 104 q 412 104 453 147 q 494 190 494 262 l 494 262 l 494 438 q 494 510 453 553 q 412 596 338 596 l 338 596 q 265 596 224 553 q 182 510 182 438 l 182 438 l 182 262 q 182 190 224 147 q 265 104 338 104 z m 416 758 l 304 758 l 200 888 l 346 888 l 416 758 z"},"Ó":{"ha":676,"o":"m 338 -14 l 338 -14 q 206 -14 128 59 q 50 131 50 266 l 50 266 l 50 434 q 50 569 128 642 q 206 714 338 714 l 338 714 q 470 714 548 642 q 626 569 626 434 l 626 434 l 626 266 q 626 131 548 59 q 470 -14 338 -14 z m 338 104 l 338 104 q 412 104 453 147 q 494 190 494 262 l 494 262 l 494 438 q 494 510 453 553 q 412 596 338 596 l 338 596 q 265 596 224 553 q 182 510 182 438 l 182 438 l 182 262 q 182 190 224 147 q 265 104 338 104 z m 372 758 l 260 758 l 330 888 l 476 888 l 372 758 z"},"Ô":{"ha":676,"o":"m 338 -14 l 338 -14 q 206 -14 128 59 q 50 131 50 266 l 50 266 l 50 434 q 50 569 128 642 q 206 714 338 714 l 338 714 q 470 714 548 642 q 626 569 626 434 l 626 434 l 626 266 q 626 131 548 59 q 470 -14 338 -14 z m 338 104 l 338 104 q 412 104 453 147 q 494 190 494 262 l 494 262 l 494 438 q 494 510 453 553 q 412 596 338 596 l 338 596 q 265 596 224 553 q 182 510 182 438 l 182 438 l 182 262 q 182 190 224 147 q 265 104 338 104 z m 280 758 l 146 758 l 260 888 l 416 888 l 530 758 l 396 758 l 347 824 l 329 824 l 280 758 z"},"Õ":{"ha":676,"o":"m 338 -14 l 338 -14 q 206 -14 128 59 q 50 131 50 266 l 50 266 l 50 434 q 50 569 128 642 q 206 714 338 714 l 338 714 q 470 714 548 642 q 626 569 626 434 l 626 434 l 626 266 q 626 131 548 59 q 470 -14 338 -14 z m 338 104 l 338 104 q 412 104 453 147 q 494 190 494 262 l 494 262 l 494 438 q 494 510 453 553 q 412 596 338 596 l 338 596 q 265 596 224 553 q 182 510 182 438 l 182 438 l 182 262 q 182 190 224 147 q 265 104 338 104 z m 238 768 l 221 746 l 157 797 l 189 840 q 207 864 228 877 q 248 890 276 890 l 276 890 q 300 890 315 883 q 330 876 347 862 l 347 862 q 357 854 368 846 q 378 837 393 837 l 393 837 q 409 837 419 847 q 429 857 438 868 l 438 868 l 455 890 l 519 839 l 487 796 q 469 772 449 759 q 428 746 400 746 l 400 746 q 376 746 361 753 q 346 760 329 774 l 329 774 q 319 782 309 791 q 298 799 283 799 l 283 799 q 267 799 257 789 q 247 779 238 768 l 238 768 z"},"Ö":{"ha":676,"o":"m 338 -14 l 338 -14 q 206 -14 128 59 q 50 131 50 266 l 50 266 l 50 434 q 50 569 128 642 q 206 714 338 714 l 338 714 q 470 714 548 642 q 626 569 626 434 l 626 434 l 626 266 q 626 131 548 59 q 470 -14 338 -14 z m 338 104 l 338 104 q 412 104 453 147 q 494 190 494 262 l 494 262 l 494 438 q 494 510 453 553 q 412 596 338 596 l 338 596 q 265 596 224 553 q 182 510 182 438 l 182 438 l 182 262 q 182 190 224 147 q 265 104 338 104 z m 449 754 l 449 754 q 415 754 392 776 q 368 797 368 834 l 368 834 q 368 871 392 893 q 415 914 449 914 l 449 914 q 484 914 507 893 q 530 871 530 834 l 530 834 q 530 797 507 776 q 484 754 449 754 z m 227 754 l 227 754 q 193 754 170 776 q 146 797 146 834 l 146 834 q 146 871 170 893 q 193 914 227 914 l 227 914 q 262 914 285 893 q 308 871 308 834 l 308 834 q 308 797 285 776 q 262 754 227 754 z"},"Ō":{"ha":676,"o":"m 338 -14 l 338 -14 q 206 -14 128 59 q 50 131 50 266 l 50 266 l 50 434 q 50 569 128 642 q 206 714 338 714 l 338 714 q 470 714 548 642 q 626 569 626 434 l 626 434 l 626 266 q 626 131 548 59 q 470 -14 338 -14 z m 338 104 l 338 104 q 412 104 453 147 q 494 190 494 262 l 494 262 l 494 438 q 494 510 453 553 q 412 596 338 596 l 338 596 q 265 596 224 553 q 182 510 182 438 l 182 438 l 182 262 q 182 190 224 147 q 265 104 338 104 z m 502 762 l 174 762 l 174 862 l 502 862 l 502 762 z"},"Ő":{"ha":676,"o":"m 338 -14 l 338 -14 q 206 -14 128 59 q 50 131 50 266 l 50 266 l 50 434 q 50 569 128 642 q 206 714 338 714 l 338 714 q 470 714 548 642 q 626 569 626 434 l 626 434 l 626 266 q 626 131 548 59 q 470 -14 338 -14 z m 338 104 l 338 104 q 412 104 453 147 q 494 190 494 262 l 494 262 l 494 438 q 494 510 453 553 q 412 596 338 596 l 338 596 q 265 596 224 553 q 182 510 182 438 l 182 438 l 182 262 q 182 190 224 147 q 265 104 338 104 z m 456 758 l 352 758 l 423 888 l 553 888 l 456 758 z m 289 758 l 195 758 l 249 888 l 369 888 l 289 758 z"},"Ŏ":{"ha":676,"o":"m 338 -14 l 338 -14 q 206 -14 128 59 q 50 131 50 266 l 50 266 l 50 434 q 50 569 128 642 q 206 714 338 714 l 338 714 q 470 714 548 642 q 626 569 626 434 l 626 434 l 626 266 q 626 131 548 59 q 470 -14 338 -14 z m 338 104 l 338 104 q 412 104 453 147 q 494 190 494 262 l 494 262 l 494 438 q 494 510 453 553 q 412 596 338 596 l 338 596 q 265 596 224 553 q 182 510 182 438 l 182 438 l 182 262 q 182 190 224 147 q 265 104 338 104 z m 338 752 l 338 752 q 261 752 218 788 q 174 823 174 884 l 174 884 l 174 888 l 276 888 l 276 884 q 276 860 291 843 q 305 826 338 826 l 338 826 q 371 826 386 843 q 400 860 400 884 l 400 884 l 400 888 l 502 888 l 502 884 q 502 823 459 788 q 415 752 338 752 z"},"Ø":{"ha":676,"o":"m 338 -14 l 338 -14 q 206 -14 128 59 q 50 131 50 266 l 50 266 l 50 434 q 50 569 128 642 q 206 714 338 714 l 338 714 q 470 714 548 642 q 626 569 626 434 l 626 434 l 626 266 q 626 131 548 59 q 470 -14 338 -14 z m 338 104 l 338 104 q 412 104 453 147 q 494 190 494 262 l 494 262 l 494 438 q 494 510 453 553 q 412 596 338 596 l 338 596 q 265 596 224 553 q 182 510 182 438 l 182 438 l 182 262 q 182 190 224 147 q 265 104 338 104 z m 553 747 l 207 -93 l 124 -59 l 470 781 l 553 747 z"},"Œ":{"ha":836,"o":"m 804 0 l 390 0 l 390 700 l 798 700 l 798 580 l 520 580 l 520 413 l 770 413 l 770 293 l 520 293 l 520 120 l 804 120 l 804 0 z m 390 112 l 390 0 q 228 0 139 82 q 50 164 50 318 l 50 318 l 50 382 q 50 537 139 619 q 228 700 390 700 l 390 700 l 390 588 q 278 588 230 535 q 182 481 182 388 l 182 388 l 182 312 q 182 219 230 166 q 278 112 390 112 l 390 112 z"},"Ŕ":{"ha":632,"o":"m 198 0 l 66 0 l 66 700 l 370 700 q 436 700 485 677 q 534 654 561 612 q 588 570 588 513 l 588 513 l 588 501 q 588 438 558 399 q 528 360 484 342 l 484 342 l 484 324 q 524 322 546 297 q 568 271 568 229 l 568 229 l 568 0 l 436 0 l 436 210 q 436 234 424 249 q 411 264 382 264 l 382 264 l 198 264 l 198 0 z m 198 580 l 198 384 l 356 384 q 403 384 430 410 q 456 435 456 477 l 456 477 l 456 487 q 456 529 430 555 q 404 580 356 580 l 356 580 l 198 580 z m 335 758 l 223 758 l 293 888 l 439 888 l 335 758 z"},"Ř":{"ha":632,"o":"m 198 0 l 66 0 l 66 700 l 370 700 q 436 700 485 677 q 534 654 561 612 q 588 570 588 513 l 588 513 l 588 501 q 588 438 558 399 q 528 360 484 342 l 484 342 l 484 324 q 524 322 546 297 q 568 271 568 229 l 568 229 l 568 0 l 436 0 l 436 210 q 436 234 424 249 q 411 264 382 264 l 382 264 l 198 264 l 198 0 z m 198 580 l 198 384 l 356 384 q 403 384 430 410 q 456 435 456 477 l 456 477 l 456 487 q 456 529 430 555 q 404 580 356 580 l 356 580 l 198 580 z m 379 758 l 223 758 l 109 888 l 243 888 l 292 822 l 310 822 l 359 888 l 493 888 l 379 758 z"},"Ṝ":{"ha":632,"o":"m 198 0 l 66 0 l 66 700 l 370 700 q 436 700 485 677 q 534 654 561 612 q 588 570 588 513 l 588 513 l 588 501 q 588 438 558 399 q 528 360 484 342 l 484 342 l 484 324 q 524 322 546 297 q 568 271 568 229 l 568 229 l 568 0 l 436 0 l 436 210 q 436 234 424 249 q 411 264 382 264 l 382 264 l 198 264 l 198 0 z m 198 580 l 198 384 l 356 384 q 403 384 430 410 q 456 435 456 477 l 456 477 l 456 487 q 456 529 430 555 q 404 580 356 580 l 356 580 l 198 580 z m 313 -214 l 313 -214 q 279 -214 256 -192 q 232 -170 232 -134 l 232 -134 q 232 -98 256 -76 q 279 -54 313 -54 l 313 -54 q 348 -54 371 -76 q 394 -98 394 -134 l 394 -134 q 394 -170 371 -192 q 348 -214 313 -214 z m 465 762 l 137 762 l 137 862 l 465 862 l 465 762 z"},"Ś":{"ha":606,"o":"m 309 -14 l 309 -14 q 228 -14 166 15 q 104 44 69 98 q 34 152 34 228 l 34 228 l 34 256 l 164 256 l 164 228 q 164 165 203 134 q 242 102 309 102 l 309 102 q 377 102 411 129 q 444 156 444 198 l 444 198 q 444 227 428 245 q 411 263 380 275 q 348 286 303 296 l 303 296 l 280 301 q 208 317 157 342 q 105 366 78 406 q 50 446 50 510 l 50 510 q 50 574 81 620 q 111 665 167 690 q 222 714 297 714 l 297 714 q 372 714 431 689 q 489 663 523 613 q 556 562 556 486 l 556 486 l 556 456 l 426 456 l 426 486 q 426 526 411 551 q 395 575 366 587 q 337 598 297 598 l 297 598 q 237 598 209 576 q 180 553 180 514 l 180 514 q 180 488 194 470 q 207 452 234 440 q 261 428 303 419 l 303 419 l 326 414 q 401 398 457 373 q 512 348 543 307 q 574 266 574 202 l 574 202 q 574 138 542 90 q 509 41 450 14 q 390 -14 309 -14 z m 335 758 l 223 758 l 293 888 l 439 888 l 335 758 z"},"Ŝ":{"ha":606,"o":"m 309 -14 l 309 -14 q 228 -14 166 15 q 104 44 69 98 q 34 152 34 228 l 34 228 l 34 256 l 164 256 l 164 228 q 164 165 203 134 q 242 102 309 102 l 309 102 q 377 102 411 129 q 444 156 444 198 l 444 198 q 444 227 428 245 q 411 263 380 275 q 348 286 303 296 l 303 296 l 280 301 q 208 317 157 342 q 105 366 78 406 q 50 446 50 510 l 50 510 q 50 574 81 620 q 111 665 167 690 q 222 714 297 714 l 297 714 q 372 714 431 689 q 489 663 523 613 q 556 562 556 486 l 556 486 l 556 456 l 426 456 l 426 486 q 426 526 411 551 q 395 575 366 587 q 337 598 297 598 l 297 598 q 237 598 209 576 q 180 553 180 514 l 180 514 q 180 488 194 470 q 207 452 234 440 q 261 428 303 419 l 303 419 l 326 414 q 401 398 457 373 q 512 348 543 307 q 574 266 574 202 l 574 202 q 574 138 542 90 q 509 41 450 14 q 390 -14 309 -14 z m 243 758 l 109 758 l 223 888 l 379 888 l 493 758 l 359 758 l 310 824 l 292 824 l 243 758 z"},"Š":{"ha":606,"o":"m 309 -14 l 309 -14 q 228 -14 166 15 q 104 44 69 98 q 34 152 34 228 l 34 228 l 34 256 l 164 256 l 164 228 q 164 165 203 134 q 242 102 309 102 l 309 102 q 377 102 411 129 q 444 156 444 198 l 444 198 q 444 227 428 245 q 411 263 380 275 q 348 286 303 296 l 303 296 l 280 301 q 208 317 157 342 q 105 366 78 406 q 50 446 50 510 l 50 510 q 50 574 81 620 q 111 665 167 690 q 222 714 297 714 l 297 714 q 372 714 431 689 q 489 663 523 613 q 556 562 556 486 l 556 486 l 556 456 l 426 456 l 426 486 q 426 526 411 551 q 395 575 366 587 q 337 598 297 598 l 297 598 q 237 598 209 576 q 180 553 180 514 l 180 514 q 180 488 194 470 q 207 452 234 440 q 261 428 303 419 l 303 419 l 326 414 q 401 398 457 373 q 512 348 543 307 q 574 266 574 202 l 574 202 q 574 138 542 90 q 509 41 450 14 q 390 -14 309 -14 z m 379 758 l 223 758 l 109 888 l 243 888 l 292 822 l 310 822 l 359 888 l 493 888 l 379 758 z"},"Ş":{"ha":606,"o":"m 309 -14 l 309 -14 q 228 -14 166 15 q 104 44 69 98 q 34 152 34 228 l 34 228 l 34 256 l 164 256 l 164 228 q 164 165 203 134 q 242 102 309 102 l 309 102 q 377 102 411 129 q 444 156 444 198 l 444 198 q 444 227 428 245 q 411 263 380 275 q 348 286 303 296 l 303 296 l 280 301 q 208 317 157 342 q 105 366 78 406 q 50 446 50 510 l 50 510 q 50 574 81 620 q 111 665 167 690 q 222 714 297 714 l 297 714 q 372 714 431 689 q 489 663 523 613 q 556 562 556 486 l 556 486 l 556 456 l 426 456 l 426 486 q 426 526 411 551 q 395 575 366 587 q 337 598 297 598 l 297 598 q 237 598 209 576 q 180 553 180 514 l 180 514 q 180 488 194 470 q 207 452 234 440 q 261 428 303 419 l 303 419 l 326 414 q 401 398 457 373 q 512 348 543 307 q 574 266 574 202 l 574 202 q 574 138 542 90 q 509 41 450 14 q 390 -14 309 -14 z m 315 -214 l 315 -214 q 283 -214 253 -208 q 222 -202 200 -195 l 200 -195 l 220 -120 q 239 -126 261 -131 q 282 -136 309 -136 l 309 -136 q 329 -136 342 -129 q 355 -122 355 -107 l 355 -107 q 355 -93 344 -86 q 332 -80 306 -80 l 306 -80 l 268 -80 l 275 20 l 361 20 l 357 -39 q 395 -39 422 -60 q 448 -81 448 -122 l 448 -122 q 448 -154 429 -174 q 410 -195 380 -204 q 349 -214 315 -214 z"},"Ť":{"ha":588,"o":"m 360 0 l 228 0 l 228 580 l 24 580 l 24 700 l 564 700 l 564 580 l 360 580 l 360 0 z m 372 758 l 216 758 l 102 888 l 236 888 l 285 822 l 303 822 l 352 888 l 486 888 l 372 758 z"},"Ŧ":{"ha":588,"o":"m 360 0 l 228 0 l 228 580 l 24 580 l 24 700 l 564 700 l 564 580 l 360 580 l 360 0 z m 464 306 l 124 306 l 124 396 l 464 396 l 464 306 z"},"Ù":{"ha":672,"o":"m 336 -14 l 336 -14 q 250 -14 189 18 q 127 49 95 108 q 62 166 62 246 l 62 246 l 62 700 l 194 700 l 194 242 q 194 178 231 141 q 267 104 336 104 l 336 104 q 405 104 442 141 q 478 178 478 242 l 478 242 l 478 700 l 610 700 l 610 246 q 610 166 578 108 q 545 49 484 18 q 422 -14 336 -14 z m 414 758 l 302 758 l 198 888 l 344 888 l 414 758 z"},"Ú":{"ha":672,"o":"m 336 -14 l 336 -14 q 250 -14 189 18 q 127 49 95 108 q 62 166 62 246 l 62 246 l 62 700 l 194 700 l 194 242 q 194 178 231 141 q 267 104 336 104 l 336 104 q 405 104 442 141 q 478 178 478 242 l 478 242 l 478 700 l 610 700 l 610 246 q 610 166 578 108 q 545 49 484 18 q 422 -14 336 -14 z m 370 758 l 258 758 l 328 888 l 474 888 l 370 758 z"},"Û":{"ha":672,"o":"m 336 -14 l 336 -14 q 250 -14 189 18 q 127 49 95 108 q 62 166 62 246 l 62 246 l 62 700 l 194 700 l 194 242 q 194 178 231 141 q 267 104 336 104 l 336 104 q 405 104 442 141 q 478 178 478 242 l 478 242 l 478 700 l 610 700 l 610 246 q 610 166 578 108 q 545 49 484 18 q 422 -14 336 -14 z m 278 758 l 144 758 l 258 888 l 414 888 l 528 758 l 394 758 l 345 824 l 327 824 l 278 758 z"},"Ũ":{"ha":672,"o":"m 336 -14 l 336 -14 q 250 -14 189 18 q 127 49 95 108 q 62 166 62 246 l 62 246 l 62 700 l 194 700 l 194 242 q 194 178 231 141 q 267 104 336 104 l 336 104 q 405 104 442 141 q 478 178 478 242 l 478 242 l 478 700 l 610 700 l 610 246 q 610 166 578 108 q 545 49 484 18 q 422 -14 336 -14 z m 236 768 l 219 746 l 155 797 l 187 840 q 205 864 226 877 q 246 890 274 890 l 274 890 q 298 890 313 883 q 328 876 345 862 l 345 862 q 355 854 366 846 q 376 837 391 837 l 391 837 q 407 837 417 847 q 427 857 436 868 l 436 868 l 453 890 l 517 839 l 485 796 q 467 772 447 759 q 426 746 398 746 l 398 746 q 374 746 359 753 q 344 760 327 774 l 327 774 q 317 782 307 791 q 296 799 281 799 l 281 799 q 265 799 255 789 q 245 779 236 768 l 236 768 z"},"Ü":{"ha":672,"o":"m 336 -14 l 336 -14 q 250 -14 189 18 q 127 49 95 108 q 62 166 62 246 l 62 246 l 62 700 l 194 700 l 194 242 q 194 178 231 141 q 267 104 336 104 l 336 104 q 405 104 442 141 q 478 178 478 242 l 478 242 l 478 700 l 610 700 l 610 246 q 610 166 578 108 q 545 49 484 18 q 422 -14 336 -14 z m 447 754 l 447 754 q 413 754 390 776 q 366 797 366 834 l 366 834 q 366 871 390 893 q 413 914 447 914 l 447 914 q 482 914 505 893 q 528 871 528 834 l 528 834 q 528 797 505 776 q 482 754 447 754 z m 225 754 l 225 754 q 191 754 168 776 q 144 797 144 834 l 144 834 q 144 871 168 893 q 191 914 225 914 l 225 914 q 260 914 283 893 q 306 871 306 834 l 306 834 q 306 797 283 776 q 260 754 225 754 z"},"Ū":{"ha":672,"o":"m 336 -14 l 336 -14 q 250 -14 189 18 q 127 49 95 108 q 62 166 62 246 l 62 246 l 62 700 l 194 700 l 194 242 q 194 178 231 141 q 267 104 336 104 l 336 104 q 405 104 442 141 q 478 178 478 242 l 478 242 l 478 700 l 610 700 l 610 246 q 610 166 578 108 q 545 49 484 18 q 422 -14 336 -14 z m 500 762 l 172 762 l 172 862 l 500 862 l 500 762 z"},"Ŭ":{"ha":672,"o":"m 336 -14 l 336 -14 q 250 -14 189 18 q 127 49 95 108 q 62 166 62 246 l 62 246 l 62 700 l 194 700 l 194 242 q 194 178 231 141 q 267 104 336 104 l 336 104 q 405 104 442 141 q 478 178 478 242 l 478 242 l 478 700 l 610 700 l 610 246 q 610 166 578 108 q 545 49 484 18 q 422 -14 336 -14 z m 336 752 l 336 752 q 259 752 216 788 q 172 823 172 884 l 172 884 l 172 888 l 274 888 l 274 884 q 274 860 289 843 q 303 826 336 826 l 336 826 q 369 826 384 843 q 398 860 398 884 l 398 884 l 398 888 l 500 888 l 500 884 q 500 823 457 788 q 413 752 336 752 z"},"Ů":{"ha":672,"o":"m 336 -14 l 336 -14 q 250 -14 189 18 q 127 49 95 108 q 62 166 62 246 l 62 246 l 62 700 l 194 700 l 194 242 q 194 178 231 141 q 267 104 336 104 l 336 104 q 405 104 442 141 q 478 178 478 242 l 478 242 l 478 700 l 610 700 l 610 246 q 610 166 578 108 q 545 49 484 18 q 422 -14 336 -14 z m 336 748 l 336 748 q 293 748 263 777 q 232 805 232 848 l 232 848 q 232 891 262 920 q 292 948 336 948 l 336 948 q 380 948 410 920 q 440 892 440 848 l 440 848 q 440 802 409 775 q 377 748 336 748 z m 336 818 l 336 818 q 350 818 358 827 q 366 835 366 848 l 366 848 q 366 861 358 870 q 350 878 336 878 l 336 878 q 323 878 315 870 q 306 861 306 848 l 306 848 q 306 835 315 827 q 323 818 336 818 z"},"Ű":{"ha":672,"o":"m 336 -14 l 336 -14 q 250 -14 189 18 q 127 49 95 108 q 62 166 62 246 l 62 246 l 62 700 l 194 700 l 194 242 q 194 178 231 141 q 267 104 336 104 l 336 104 q 405 104 442 141 q 478 178 478 242 l 478 242 l 478 700 l 610 700 l 610 246 q 610 166 578 108 q 545 49 484 18 q 422 -14 336 -14 z m 454 758 l 350 758 l 421 888 l 551 888 l 454 758 z m 287 758 l 193 758 l 247 888 l 367 888 l 287 758 z"},"Ų":{"ha":672,"o":"m 336 -14 l 336 -14 q 250 -14 189 18 q 127 49 95 108 q 62 166 62 246 l 62 246 l 62 700 l 194 700 l 194 242 q 194 178 231 141 q 267 104 336 104 l 336 104 q 405 104 442 141 q 478 178 478 242 l 478 242 l 478 700 l 610 700 l 610 246 q 610 166 578 108 q 545 49 484 18 q 422 -14 336 -14 z m 520 -170 l 440 -170 q 406 -170 384 -151 q 362 -132 362 -101 l 362 -101 q 362 -86 365 -69 q 367 -52 371 -36 l 371 -36 l 384 20 l 465 20 l 455 -35 q 454 -42 453 -49 q 451 -57 451 -64 l 451 -64 q 451 -86 474 -86 l 474 -86 l 520 -86 l 520 -170 z"},"Ŵ":{"ha":898,"o":"m 350 0 l 122 0 l 30 700 l 161 700 l 229 92 l 247 92 l 335 700 l 563 700 l 651 92 l 669 92 l 737 700 l 868 700 l 776 0 l 548 0 l 458 622 l 440 622 l 350 0 z m 391 758 l 257 758 l 371 888 l 527 888 l 641 758 l 507 758 l 458 824 l 440 824 l 391 758 z"},"Ý":{"ha":624,"o":"m 378 0 l 246 0 l 246 241 l 8 700 l 155 700 l 303 400 l 321 400 l 469 700 l 616 700 l 378 241 l 378 0 z m 346 758 l 234 758 l 304 888 l 450 888 l 346 758 z"},"Ŷ":{"ha":624,"o":"m 378 0 l 246 0 l 246 241 l 8 700 l 155 700 l 303 400 l 321 400 l 469 700 l 616 700 l 378 241 l 378 0 z m 254 758 l 120 758 l 234 888 l 390 888 l 504 758 l 370 758 l 321 824 l 303 824 l 254 758 z"},"Ÿ":{"ha":624,"o":"m 378 0 l 246 0 l 246 241 l 8 700 l 155 700 l 303 400 l 321 400 l 469 700 l 616 700 l 378 241 l 378 0 z m 423 754 l 423 754 q 389 754 366 776 q 342 797 342 834 l 342 834 q 342 871 366 893 q 389 914 423 914 l 423 914 q 458 914 481 893 q 504 871 504 834 l 504 834 q 504 797 481 776 q 458 754 423 754 z m 201 754 l 201 754 q 167 754 144 776 q 120 797 120 834 l 120 834 q 120 871 144 893 q 167 914 201 914 l 201 914 q 236 914 259 893 q 282 871 282 834 l 282 834 q 282 797 259 776 q 236 754 201 754 z"},"Ź":{"ha":576,"o":"m 532 0 l 46 0 l 46 168 l 392 566 l 392 582 l 56 582 l 56 700 l 530 700 l 530 532 l 184 134 l 184 118 l 532 118 l 532 0 z m 327 758 l 215 758 l 285 888 l 431 888 l 327 758 z"},"Ž":{"ha":576,"o":"m 532 0 l 46 0 l 46 168 l 392 566 l 392 582 l 56 582 l 56 700 l 530 700 l 530 532 l 184 134 l 184 118 l 532 118 l 532 0 z m 371 758 l 215 758 l 101 888 l 235 888 l 284 822 l 302 822 l 351 888 l 485 888 l 371 758 z"},"Ż":{"ha":576,"o":"m 532 0 l 46 0 l 46 168 l 392 566 l 392 582 l 56 582 l 56 700 l 530 700 l 530 532 l 184 134 l 184 118 l 532 118 l 532 0 z m 293 754 l 293 754 q 259 754 236 776 q 212 798 212 834 l 212 834 q 212 870 236 892 q 259 914 293 914 l 293 914 q 328 914 351 892 q 374 870 374 834 l 374 834 q 374 798 351 776 q 328 754 293 754 z"},"Þ":{"ha":604,"o":"m 354 138 l 198 138 l 198 258 l 341 258 q 388 258 417 284 q 446 310 446 355 l 446 355 l 446 365 q 446 410 417 436 q 388 462 341 462 l 341 462 l 198 462 l 198 582 l 354 582 q 420 582 471 556 q 521 529 550 481 q 578 433 578 367 l 578 367 l 578 353 q 578 288 549 240 q 519 191 469 165 q 418 138 354 138 l 354 138 z m 198 0 l 66 0 l 66 700 l 198 700 l 198 0 z"},"Ŋ":{"ha":670,"o":"m 198 0 l 66 0 l 66 700 l 317 700 l 454 90 l 472 90 l 472 700 l 604 700 l 604 0 l 353 0 l 216 610 l 198 610 l 198 0 z m 494 -200 l 354 -200 l 354 -96 l 448 -96 q 476 -96 476 -66 l 476 -66 l 476 0 l 604 0 l 604 -88 q 604 -140 574 -170 q 544 -200 494 -200 l 494 -200 z"},"Ĳ":{"ha":730,"o":"m 369 -14 l 369 -14 q 252 -14 184 45 q 116 104 116 210 l 116 210 l 116 230 l 248 230 l 248 210 q 248 163 279 137 q 309 110 365 110 l 365 110 q 418 110 447 136 q 476 162 476 210 l 476 210 l 476 580 l 396 580 l 396 700 l 688 700 l 688 580 l 608 580 l 608 210 q 608 101 545 44 q 481 -14 369 -14 z m 248 320 l 116 320 l 116 580 l 36 580 l 36 700 l 328 700 l 328 580 l 248 580 l 248 320 z"},"":{"ha":734,"o":"m 369 -14 l 369 -14 q 252 -14 184 45 q 116 104 116 210 l 116 210 l 116 230 l 248 230 l 248 210 q 248 163 279 137 q 309 110 365 110 l 365 110 q 418 110 447 136 q 476 162 476 210 l 476 210 l 476 580 l 396 580 l 396 700 l 688 700 l 688 580 l 608 580 l 608 210 q 608 101 545 44 q 481 -14 369 -14 z m 248 320 l 116 320 l 116 580 l 36 580 l 36 700 l 328 700 l 328 580 l 248 580 l 248 320 z m 216 758 l 104 758 l 174 888 l 320 888 l 216 758 z m 576 758 l 464 758 l 546 888 l 692 888 l 576 758 z"},"à":{"ha":578,"o":"m 224 -14 l 224 -14 q 171 -14 129 5 q 87 23 63 59 q 38 94 38 145 l 38 145 q 38 196 63 231 q 87 265 131 283 q 174 300 230 300 l 230 300 l 366 300 l 366 328 q 366 363 344 386 q 322 408 274 408 l 274 408 q 227 408 204 387 q 181 365 174 331 l 174 331 l 58 370 q 70 408 97 440 q 123 471 168 491 q 212 510 276 510 l 276 510 q 374 510 431 461 q 488 412 488 319 l 488 319 l 488 134 q 488 104 516 104 l 516 104 l 556 104 l 556 0 l 472 0 q 435 0 411 18 q 387 36 387 66 l 387 66 l 387 67 l 368 67 q 364 55 350 36 q 336 16 306 1 q 276 -14 224 -14 z m 246 88 l 246 88 q 299 88 333 118 q 366 147 366 196 l 366 196 l 366 206 l 239 206 q 204 206 184 191 q 164 176 164 149 l 164 149 q 164 122 185 105 q 206 88 246 88 z m 357 552 l 247 552 l 141 700 l 283 700 l 357 552 z"},"á":{"ha":578,"o":"m 224 -14 l 224 -14 q 171 -14 129 5 q 87 23 63 59 q 38 94 38 145 l 38 145 q 38 196 63 231 q 87 265 131 283 q 174 300 230 300 l 230 300 l 366 300 l 366 328 q 366 363 344 386 q 322 408 274 408 l 274 408 q 227 408 204 387 q 181 365 174 331 l 174 331 l 58 370 q 70 408 97 440 q 123 471 168 491 q 212 510 276 510 l 276 510 q 374 510 431 461 q 488 412 488 319 l 488 319 l 488 134 q 488 104 516 104 l 516 104 l 556 104 l 556 0 l 472 0 q 435 0 411 18 q 387 36 387 66 l 387 66 l 387 67 l 368 67 q 364 55 350 36 q 336 16 306 1 q 276 -14 224 -14 z m 246 88 l 246 88 q 299 88 333 118 q 366 147 366 196 l 366 196 l 366 206 l 239 206 q 204 206 184 191 q 164 176 164 149 l 164 149 q 164 122 185 105 q 206 88 246 88 z m 315 552 l 205 552 l 279 700 l 421 700 l 315 552 z"},"â":{"ha":578,"o":"m 224 -14 l 224 -14 q 171 -14 129 5 q 87 23 63 59 q 38 94 38 145 l 38 145 q 38 196 63 231 q 87 265 131 283 q 174 300 230 300 l 230 300 l 366 300 l 366 328 q 366 363 344 386 q 322 408 274 408 l 274 408 q 227 408 204 387 q 181 365 174 331 l 174 331 l 58 370 q 70 408 97 440 q 123 471 168 491 q 212 510 276 510 l 276 510 q 374 510 431 461 q 488 412 488 319 l 488 319 l 488 134 q 488 104 516 104 l 516 104 l 556 104 l 556 0 l 472 0 q 435 0 411 18 q 387 36 387 66 l 387 66 l 387 67 l 368 67 q 364 55 350 36 q 336 16 306 1 q 276 -14 224 -14 z m 246 88 l 246 88 q 299 88 333 118 q 366 147 366 196 l 366 196 l 366 206 l 239 206 q 204 206 184 191 q 164 176 164 149 l 164 149 q 164 122 185 105 q 206 88 246 88 z m 216 552 l 89 552 l 206 700 l 356 700 l 473 552 l 346 552 l 290 626 l 272 626 l 216 552 z"},"ã":{"ha":578,"o":"m 224 -14 l 224 -14 q 171 -14 129 5 q 87 23 63 59 q 38 94 38 145 l 38 145 q 38 196 63 231 q 87 265 131 283 q 174 300 230 300 l 230 300 l 366 300 l 366 328 q 366 363 344 386 q 322 408 274 408 l 274 408 q 227 408 204 387 q 181 365 174 331 l 174 331 l 58 370 q 70 408 97 440 q 123 471 168 491 q 212 510 276 510 l 276 510 q 374 510 431 461 q 488 412 488 319 l 488 319 l 488 134 q 488 104 516 104 l 516 104 l 556 104 l 556 0 l 472 0 q 435 0 411 18 q 387 36 387 66 l 387 66 l 387 67 l 368 67 q 364 55 350 36 q 336 16 306 1 q 276 -14 224 -14 z m 246 88 l 246 88 q 299 88 333 118 q 366 147 366 196 l 366 196 l 366 206 l 239 206 q 204 206 184 191 q 164 176 164 149 l 164 149 q 164 122 185 105 q 206 88 246 88 z m 185 566 l 169 542 l 100 586 l 133 643 q 148 669 170 681 q 191 692 216 692 l 216 692 q 238 692 255 684 q 271 675 287 661 l 287 661 q 296 653 307 645 q 317 637 330 637 l 330 637 q 345 637 355 647 q 364 657 371 668 l 371 668 l 387 692 l 456 648 l 423 591 q 408 566 387 554 q 366 542 340 542 l 340 542 q 318 542 302 551 q 285 559 269 573 l 269 573 q 260 581 250 589 q 240 597 226 597 l 226 597 q 211 597 202 587 q 193 577 185 566 l 185 566 z"},"ä":{"ha":578,"o":"m 224 -14 l 224 -14 q 171 -14 129 5 q 87 23 63 59 q 38 94 38 145 l 38 145 q 38 196 63 231 q 87 265 131 283 q 174 300 230 300 l 230 300 l 366 300 l 366 328 q 366 363 344 386 q 322 408 274 408 l 274 408 q 227 408 204 387 q 181 365 174 331 l 174 331 l 58 370 q 70 408 97 440 q 123 471 168 491 q 212 510 276 510 l 276 510 q 374 510 431 461 q 488 412 488 319 l 488 319 l 488 134 q 488 104 516 104 l 516 104 l 556 104 l 556 0 l 472 0 q 435 0 411 18 q 387 36 387 66 l 387 66 l 387 67 l 368 67 q 364 55 350 36 q 336 16 306 1 q 276 -14 224 -14 z m 246 88 l 246 88 q 299 88 333 118 q 366 147 366 196 l 366 196 l 366 206 l 239 206 q 204 206 184 191 q 164 176 164 149 l 164 149 q 164 122 185 105 q 206 88 246 88 z m 384 550 l 384 550 q 350 550 327 572 q 303 593 303 630 l 303 630 q 303 667 327 689 q 350 710 384 710 l 384 710 q 419 710 442 689 q 465 667 465 630 l 465 630 q 465 593 442 572 q 419 550 384 550 z m 178 550 l 178 550 q 144 550 121 572 q 97 593 97 630 l 97 630 q 97 667 121 689 q 144 710 178 710 l 178 710 q 213 710 236 689 q 259 667 259 630 l 259 630 q 259 593 236 572 q 213 550 178 550 z"},"ā":{"ha":578,"o":"m 224 -14 l 224 -14 q 171 -14 129 5 q 87 23 63 59 q 38 94 38 145 l 38 145 q 38 196 63 231 q 87 265 131 283 q 174 300 230 300 l 230 300 l 366 300 l 366 328 q 366 363 344 386 q 322 408 274 408 l 274 408 q 227 408 204 387 q 181 365 174 331 l 174 331 l 58 370 q 70 408 97 440 q 123 471 168 491 q 212 510 276 510 l 276 510 q 374 510 431 461 q 488 412 488 319 l 488 319 l 488 134 q 488 104 516 104 l 516 104 l 556 104 l 556 0 l 472 0 q 435 0 411 18 q 387 36 387 66 l 387 66 l 387 67 l 368 67 q 364 55 350 36 q 336 16 306 1 q 276 -14 224 -14 z m 246 88 l 246 88 q 299 88 333 118 q 366 147 366 196 l 366 196 l 366 206 l 239 206 q 204 206 184 191 q 164 176 164 149 l 164 149 q 164 122 185 105 q 206 88 246 88 z m 445 566 l 117 566 l 117 666 l 445 666 l 445 566 z"},"ă":{"ha":578,"o":"m 224 -14 l 224 -14 q 171 -14 129 5 q 87 23 63 59 q 38 94 38 145 l 38 145 q 38 196 63 231 q 87 265 131 283 q 174 300 230 300 l 230 300 l 366 300 l 366 328 q 366 363 344 386 q 322 408 274 408 l 274 408 q 227 408 204 387 q 181 365 174 331 l 174 331 l 58 370 q 70 408 97 440 q 123 471 168 491 q 212 510 276 510 l 276 510 q 374 510 431 461 q 488 412 488 319 l 488 319 l 488 134 q 488 104 516 104 l 516 104 l 556 104 l 556 0 l 472 0 q 435 0 411 18 q 387 36 387 66 l 387 66 l 387 67 l 368 67 q 364 55 350 36 q 336 16 306 1 q 276 -14 224 -14 z m 246 88 l 246 88 q 299 88 333 118 q 366 147 366 196 l 366 196 l 366 206 l 239 206 q 204 206 184 191 q 164 176 164 149 l 164 149 q 164 122 185 105 q 206 88 246 88 z m 281 548 l 281 548 q 202 548 159 587 q 115 626 115 694 l 115 694 l 115 700 l 219 700 l 219 696 q 219 668 234 649 q 248 630 281 630 l 281 630 q 314 630 329 649 q 343 668 343 696 l 343 696 l 343 700 l 447 700 l 447 694 q 447 626 404 587 q 360 548 281 548 z"},"å":{"ha":578,"o":"m 224 -14 l 224 -14 q 171 -14 129 5 q 87 23 63 59 q 38 94 38 145 l 38 145 q 38 196 63 231 q 87 265 131 283 q 174 300 230 300 l 230 300 l 366 300 l 366 328 q 366 363 344 386 q 322 408 274 408 l 274 408 q 227 408 204 387 q 181 365 174 331 l 174 331 l 58 370 q 70 408 97 440 q 123 471 168 491 q 212 510 276 510 l 276 510 q 374 510 431 461 q 488 412 488 319 l 488 319 l 488 134 q 488 104 516 104 l 516 104 l 556 104 l 556 0 l 472 0 q 435 0 411 18 q 387 36 387 66 l 387 66 l 387 67 l 368 67 q 364 55 350 36 q 336 16 306 1 q 276 -14 224 -14 z m 246 88 l 246 88 q 299 88 333 118 q 366 147 366 196 l 366 196 l 366 206 l 239 206 q 204 206 184 191 q 164 176 164 149 l 164 149 q 164 122 185 105 q 206 88 246 88 z m 281 539 l 281 539 q 238 539 208 568 q 177 596 177 639 l 177 639 q 177 682 207 711 q 237 739 281 739 l 281 739 q 325 739 355 711 q 385 683 385 639 l 385 639 q 385 593 354 566 q 322 539 281 539 z m 281 609 l 281 609 q 295 609 303 618 q 311 626 311 639 l 311 639 q 311 652 303 661 q 295 669 281 669 l 281 669 q 268 669 260 661 q 251 652 251 639 l 251 639 q 251 626 260 618 q 268 609 281 609 z"},"ą":{"ha":578,"o":"m 224 -14 l 224 -14 q 171 -14 129 5 q 87 23 63 59 q 38 94 38 145 l 38 145 q 38 196 63 231 q 87 265 131 283 q 174 300 230 300 l 230 300 l 366 300 l 366 328 q 366 363 344 386 q 322 408 274 408 l 274 408 q 227 408 204 387 q 181 365 174 331 l 174 331 l 58 370 q 70 408 97 440 q 123 471 168 491 q 212 510 276 510 l 276 510 q 374 510 431 461 q 488 412 488 319 l 488 319 l 488 134 q 488 104 516 104 l 516 104 l 556 104 l 556 0 l 472 0 q 435 0 411 18 q 387 36 387 66 l 387 66 l 387 67 l 368 67 q 364 55 350 36 q 336 16 306 1 q 276 -14 224 -14 z m 246 88 l 246 88 q 299 88 333 118 q 366 147 366 196 l 366 196 l 366 206 l 239 206 q 204 206 184 191 q 164 176 164 149 l 164 149 q 164 122 185 105 q 206 88 246 88 z m 564 -170 l 484 -170 q 450 -170 428 -151 q 406 -132 406 -101 l 406 -101 q 406 -86 409 -69 q 411 -52 415 -36 l 415 -36 l 428 20 l 509 20 l 499 -35 q 498 -42 497 -49 q 495 -57 495 -64 l 495 -64 q 495 -86 518 -86 l 518 -86 l 564 -86 l 564 -170 z"},"æ":{"ha":874,"o":"m 615 -14 l 615 -14 q 544 -14 491 22 q 437 58 408 119 q 378 179 378 252 l 378 252 q 378 325 408 384 q 437 442 489 476 q 540 510 607 510 l 607 510 q 679 510 729 477 q 779 444 806 389 q 832 333 832 266 l 832 266 l 832 205 l 491 205 q 493 158 525 127 q 557 96 609 96 l 609 96 q 660 96 687 118 q 713 139 726 161 l 726 161 l 819 94 q 800 67 774 42 q 747 17 709 2 q 671 -14 615 -14 z m 250 88 l 250 88 q 303 88 336 119 q 368 149 368 198 l 368 198 l 368 205 l 243 205 q 205 205 184 191 q 162 176 162 149 l 162 149 q 162 122 185 105 q 207 88 250 88 z m 236 -14 l 236 -14 q 149 -14 94 27 q 38 68 38 144 l 38 144 q 38 221 93 260 q 147 299 234 299 l 234 299 l 368 299 l 368 328 q 368 362 343 385 q 318 408 270 408 l 270 408 q 224 408 199 386 q 174 364 164 331 l 164 331 l 52 370 q 66 408 93 440 q 120 471 164 491 q 208 510 270 510 l 270 510 q 331 510 369 491 q 406 472 430 442 l 430 442 l 458 442 l 436 260 l 445 75 l 417 75 q 408 60 388 39 q 368 18 332 2 q 295 -14 236 -14 z m 492 299 l 492 299 l 708 299 q 707 346 678 373 q 649 400 602 400 l 602 400 q 552 400 523 373 q 494 345 492 299 z"},"ç":{"ha":586,"o":"m 303 -14 l 303 -14 q 231 -14 173 16 q 114 46 80 103 q 46 160 46 241 l 46 241 l 46 255 q 46 336 80 393 q 114 450 173 480 q 231 510 303 510 l 303 510 q 374 510 425 485 q 476 460 508 417 q 539 373 549 318 l 549 318 l 427 292 q 423 322 409 346 q 395 370 370 384 q 344 398 306 398 l 306 398 q 268 398 238 382 q 207 365 190 333 q 172 300 172 253 l 172 253 l 172 243 q 172 196 190 164 q 207 131 238 115 q 268 98 306 98 l 306 98 q 363 98 393 128 q 422 157 430 205 l 430 205 l 552 176 q 539 123 508 80 q 476 36 425 11 q 374 -14 303 -14 z m 303 -214 l 303 -214 q 271 -214 241 -208 q 210 -202 188 -195 l 188 -195 l 208 -120 q 227 -126 249 -131 q 270 -136 297 -136 l 297 -136 q 317 -136 330 -129 q 343 -122 343 -107 l 343 -107 q 343 -93 332 -86 q 320 -80 294 -80 l 294 -80 l 256 -80 l 263 20 l 349 20 l 345 -39 q 383 -39 410 -60 q 436 -81 436 -122 l 436 -122 q 436 -154 417 -174 q 398 -195 368 -204 q 337 -214 303 -214 z"},"ć":{"ha":586,"o":"m 303 -14 l 303 -14 q 231 -14 173 16 q 114 46 80 103 q 46 160 46 241 l 46 241 l 46 255 q 46 336 80 393 q 114 450 173 480 q 231 510 303 510 l 303 510 q 374 510 425 485 q 476 460 508 417 q 539 373 549 318 l 549 318 l 427 292 q 423 322 409 346 q 395 370 370 384 q 344 398 306 398 l 306 398 q 268 398 238 382 q 207 365 190 333 q 172 300 172 253 l 172 253 l 172 243 q 172 196 190 164 q 207 131 238 115 q 268 98 306 98 l 306 98 q 363 98 393 128 q 422 157 430 205 l 430 205 l 552 176 q 539 123 508 80 q 476 36 425 11 q 374 -14 303 -14 z m 337 552 l 227 552 l 301 700 l 443 700 l 337 552 z"},"ĉ":{"ha":586,"o":"m 303 -14 l 303 -14 q 231 -14 173 16 q 114 46 80 103 q 46 160 46 241 l 46 241 l 46 255 q 46 336 80 393 q 114 450 173 480 q 231 510 303 510 l 303 510 q 374 510 425 485 q 476 460 508 417 q 539 373 549 318 l 549 318 l 427 292 q 423 322 409 346 q 395 370 370 384 q 344 398 306 398 l 306 398 q 268 398 238 382 q 207 365 190 333 q 172 300 172 253 l 172 253 l 172 243 q 172 196 190 164 q 207 131 238 115 q 268 98 306 98 l 306 98 q 363 98 393 128 q 422 157 430 205 l 430 205 l 552 176 q 539 123 508 80 q 476 36 425 11 q 374 -14 303 -14 z m 238 552 l 111 552 l 228 700 l 378 700 l 495 552 l 368 552 l 312 626 l 294 626 l 238 552 z"},"č":{"ha":586,"o":"m 303 -14 l 303 -14 q 231 -14 173 16 q 114 46 80 103 q 46 160 46 241 l 46 241 l 46 255 q 46 336 80 393 q 114 450 173 480 q 231 510 303 510 l 303 510 q 374 510 425 485 q 476 460 508 417 q 539 373 549 318 l 549 318 l 427 292 q 423 322 409 346 q 395 370 370 384 q 344 398 306 398 l 306 398 q 268 398 238 382 q 207 365 190 333 q 172 300 172 253 l 172 253 l 172 243 q 172 196 190 164 q 207 131 238 115 q 268 98 306 98 l 306 98 q 363 98 393 128 q 422 157 430 205 l 430 205 l 552 176 q 539 123 508 80 q 476 36 425 11 q 374 -14 303 -14 z m 378 552 l 228 552 l 111 700 l 238 700 l 294 626 l 312 626 l 368 700 l 495 700 l 378 552 z"},"ċ":{"ha":586,"o":"m 303 -14 l 303 -14 q 231 -14 173 16 q 114 46 80 103 q 46 160 46 241 l 46 241 l 46 255 q 46 336 80 393 q 114 450 173 480 q 231 510 303 510 l 303 510 q 374 510 425 485 q 476 460 508 417 q 539 373 549 318 l 549 318 l 427 292 q 423 322 409 346 q 395 370 370 384 q 344 398 306 398 l 306 398 q 268 398 238 382 q 207 365 190 333 q 172 300 172 253 l 172 253 l 172 243 q 172 196 190 164 q 207 131 238 115 q 268 98 306 98 l 306 98 q 363 98 393 128 q 422 157 430 205 l 430 205 l 552 176 q 539 123 508 80 q 476 36 425 11 q 374 -14 303 -14 z m 303 554 l 303 554 q 269 554 246 576 q 222 598 222 634 l 222 634 q 222 670 246 692 q 269 714 303 714 l 303 714 q 338 714 361 692 q 384 670 384 634 l 384 634 q 384 598 361 576 q 338 554 303 554 z"},"ð":{"ha":616,"o":"m 307 -14 l 307 -14 q 230 -15 171 17 q 112 49 79 108 q 46 166 46 242 l 46 242 l 46 252 q 46 327 77 382 q 108 437 159 468 q 210 499 271 500 l 271 500 q 322 501 356 484 q 390 467 413 440 l 413 440 l 431 440 q 412 519 349 577 q 285 635 188 669 l 188 669 l 228 770 q 340 733 416 663 q 491 592 530 497 q 568 401 568 289 l 568 289 q 568 189 535 122 q 502 55 444 21 q 385 -13 307 -14 z m 306 98 l 306 98 q 345 98 375 115 q 405 132 423 165 q 440 198 440 245 l 440 245 l 440 249 q 440 320 403 358 q 365 396 306 396 l 306 396 q 248 396 210 358 q 172 320 172 249 l 172 249 l 172 245 q 172 175 210 137 q 248 98 306 98 z m 436 740 l 282 530 l 224 573 l 377 784 l 436 740 z"},"ď":{"ha":728,"o":"m 270 -14 l 270 -14 q 211 -14 160 16 q 108 45 77 102 q 46 159 46 240 l 46 240 l 46 256 q 46 337 77 394 q 108 451 159 481 q 210 510 270 510 l 270 510 q 315 510 346 500 q 376 489 395 473 q 414 457 424 439 l 424 439 l 442 439 l 442 700 l 568 700 l 568 0 l 444 0 l 444 60 l 426 60 q 409 32 374 9 q 338 -14 270 -14 z m 308 96 l 308 96 q 366 96 405 134 q 444 171 444 243 l 444 243 l 444 253 q 444 325 406 363 q 367 400 308 400 l 308 400 q 250 400 211 363 q 172 325 172 253 l 172 253 l 172 243 q 172 171 211 134 q 250 96 308 96 z m 710 498 l 624 498 l 632 700 l 752 700 l 710 498 z"},"đ":{"ha":638,"o":"m 270 -14 l 270 -14 q 211 -14 160 16 q 108 45 77 102 q 46 159 46 240 l 46 240 l 46 256 q 46 337 77 394 q 108 451 159 481 q 210 510 270 510 l 270 510 q 315 510 346 500 q 376 489 395 473 q 414 457 424 439 l 424 439 l 442 439 l 442 700 l 568 700 l 568 0 l 444 0 l 444 60 l 426 60 q 409 32 374 9 q 338 -14 270 -14 z m 308 96 l 308 96 q 366 96 405 134 q 444 171 444 243 l 444 243 l 444 253 q 444 325 406 363 q 367 400 308 400 l 308 400 q 250 400 211 363 q 172 325 172 253 l 172 253 l 172 243 q 172 171 211 134 q 250 96 308 96 z m 638 556 l 298 556 l 298 626 l 638 626 l 638 556 z"},"è":{"ha":577,"o":"m 296 -14 l 296 -14 q 222 -14 166 18 q 109 49 78 107 q 46 164 46 242 l 46 242 l 46 254 q 46 332 77 390 q 108 447 164 479 q 220 510 294 510 l 294 510 q 367 510 421 478 q 475 445 505 388 q 535 330 535 254 l 535 254 l 535 211 l 174 211 q 176 160 212 128 q 248 96 300 96 l 300 96 q 353 96 378 119 q 403 142 416 170 l 416 170 l 519 116 q 505 90 479 60 q 452 29 408 8 q 364 -14 296 -14 z m 175 305 l 175 305 l 407 305 q 403 348 373 374 q 342 400 293 400 l 293 400 q 242 400 212 374 q 182 348 175 305 z m 370 552 l 260 552 l 154 700 l 296 700 l 370 552 z"},"é":{"ha":577,"o":"m 296 -14 l 296 -14 q 222 -14 166 18 q 109 49 78 107 q 46 164 46 242 l 46 242 l 46 254 q 46 332 77 390 q 108 447 164 479 q 220 510 294 510 l 294 510 q 367 510 421 478 q 475 445 505 388 q 535 330 535 254 l 535 254 l 535 211 l 174 211 q 176 160 212 128 q 248 96 300 96 l 300 96 q 353 96 378 119 q 403 142 416 170 l 416 170 l 519 116 q 505 90 479 60 q 452 29 408 8 q 364 -14 296 -14 z m 175 305 l 175 305 l 407 305 q 403 348 373 374 q 342 400 293 400 l 293 400 q 242 400 212 374 q 182 348 175 305 z m 328 552 l 218 552 l 292 700 l 434 700 l 328 552 z"},"ê":{"ha":577,"o":"m 296 -14 l 296 -14 q 222 -14 166 18 q 109 49 78 107 q 46 164 46 242 l 46 242 l 46 254 q 46 332 77 390 q 108 447 164 479 q 220 510 294 510 l 294 510 q 367 510 421 478 q 475 445 505 388 q 535 330 535 254 l 535 254 l 535 211 l 174 211 q 176 160 212 128 q 248 96 300 96 l 300 96 q 353 96 378 119 q 403 142 416 170 l 416 170 l 519 116 q 505 90 479 60 q 452 29 408 8 q 364 -14 296 -14 z m 175 305 l 175 305 l 407 305 q 403 348 373 374 q 342 400 293 400 l 293 400 q 242 400 212 374 q 182 348 175 305 z m 229 552 l 102 552 l 219 700 l 369 700 l 486 552 l 359 552 l 303 626 l 285 626 l 229 552 z"},"ě":{"ha":577,"o":"m 296 -14 l 296 -14 q 222 -14 166 18 q 109 49 78 107 q 46 164 46 242 l 46 242 l 46 254 q 46 332 77 390 q 108 447 164 479 q 220 510 294 510 l 294 510 q 367 510 421 478 q 475 445 505 388 q 535 330 535 254 l 535 254 l 535 211 l 174 211 q 176 160 212 128 q 248 96 300 96 l 300 96 q 353 96 378 119 q 403 142 416 170 l 416 170 l 519 116 q 505 90 479 60 q 452 29 408 8 q 364 -14 296 -14 z m 175 305 l 175 305 l 407 305 q 403 348 373 374 q 342 400 293 400 l 293 400 q 242 400 212 374 q 182 348 175 305 z m 369 552 l 219 552 l 102 700 l 229 700 l 285 626 l 303 626 l 359 700 l 486 700 l 369 552 z"},"ë":{"ha":577,"o":"m 296 -14 l 296 -14 q 222 -14 166 18 q 109 49 78 107 q 46 164 46 242 l 46 242 l 46 254 q 46 332 77 390 q 108 447 164 479 q 220 510 294 510 l 294 510 q 367 510 421 478 q 475 445 505 388 q 535 330 535 254 l 535 254 l 535 211 l 174 211 q 176 160 212 128 q 248 96 300 96 l 300 96 q 353 96 378 119 q 403 142 416 170 l 416 170 l 519 116 q 505 90 479 60 q 452 29 408 8 q 364 -14 296 -14 z m 175 305 l 175 305 l 407 305 q 403 348 373 374 q 342 400 293 400 l 293 400 q 242 400 212 374 q 182 348 175 305 z m 397 550 l 397 550 q 363 550 340 572 q 316 593 316 630 l 316 630 q 316 667 340 689 q 363 710 397 710 l 397 710 q 432 710 455 689 q 478 667 478 630 l 478 630 q 478 593 455 572 q 432 550 397 550 z m 191 550 l 191 550 q 157 550 134 572 q 110 593 110 630 l 110 630 q 110 667 134 689 q 157 710 191 710 l 191 710 q 226 710 249 689 q 272 667 272 630 l 272 630 q 272 593 249 572 q 226 550 191 550 z"},"ē":{"ha":577,"o":"m 296 -14 l 296 -14 q 222 -14 166 18 q 109 49 78 107 q 46 164 46 242 l 46 242 l 46 254 q 46 332 77 390 q 108 447 164 479 q 220 510 294 510 l 294 510 q 367 510 421 478 q 475 445 505 388 q 535 330 535 254 l 535 254 l 535 211 l 174 211 q 176 160 212 128 q 248 96 300 96 l 300 96 q 353 96 378 119 q 403 142 416 170 l 416 170 l 519 116 q 505 90 479 60 q 452 29 408 8 q 364 -14 296 -14 z m 175 305 l 175 305 l 407 305 q 403 348 373 374 q 342 400 293 400 l 293 400 q 242 400 212 374 q 182 348 175 305 z m 458 566 l 130 566 l 130 666 l 458 666 l 458 566 z"},"ĕ":{"ha":577,"o":"m 296 -14 l 296 -14 q 222 -14 166 18 q 109 49 78 107 q 46 164 46 242 l 46 242 l 46 254 q 46 332 77 390 q 108 447 164 479 q 220 510 294 510 l 294 510 q 367 510 421 478 q 475 445 505 388 q 535 330 535 254 l 535 254 l 535 211 l 174 211 q 176 160 212 128 q 248 96 300 96 l 300 96 q 353 96 378 119 q 403 142 416 170 l 416 170 l 519 116 q 505 90 479 60 q 452 29 408 8 q 364 -14 296 -14 z m 175 305 l 175 305 l 407 305 q 403 348 373 374 q 342 400 293 400 l 293 400 q 242 400 212 374 q 182 348 175 305 z m 294 548 l 294 548 q 215 548 172 587 q 128 626 128 694 l 128 694 l 128 700 l 232 700 l 232 696 q 232 668 247 649 q 261 630 294 630 l 294 630 q 327 630 342 649 q 356 668 356 696 l 356 696 l 356 700 l 460 700 l 460 694 q 460 626 417 587 q 373 548 294 548 z"},"ę":{"ha":577,"o":"m 296 -14 l 296 -14 q 222 -14 166 18 q 109 49 78 107 q 46 164 46 242 l 46 242 l 46 254 q 46 332 77 390 q 108 447 164 479 q 220 510 294 510 l 294 510 q 367 510 421 478 q 475 445 505 388 q 535 330 535 254 l 535 254 l 535 211 l 174 211 q 176 160 212 128 q 248 96 300 96 l 300 96 q 353 96 378 119 q 403 142 416 170 l 416 170 l 519 116 q 505 90 479 60 q 452 29 408 8 q 364 -14 296 -14 z m 175 305 l 175 305 l 407 305 q 403 348 373 374 q 342 400 293 400 l 293 400 q 242 400 212 374 q 182 348 175 305 z m 480 -170 l 400 -170 q 366 -170 344 -151 q 322 -132 322 -101 l 322 -101 q 322 -86 325 -69 q 327 -52 331 -36 l 331 -36 l 344 20 l 425 20 l 415 -35 q 414 -42 413 -49 q 411 -57 411 -64 l 411 -64 q 411 -86 434 -86 l 434 -86 l 480 -86 l 480 -170 z"},"ė":{"ha":577,"o":"m 296 -14 l 296 -14 q 222 -14 166 18 q 109 49 78 107 q 46 164 46 242 l 46 242 l 46 254 q 46 332 77 390 q 108 447 164 479 q 220 510 294 510 l 294 510 q 367 510 421 478 q 475 445 505 388 q 535 330 535 254 l 535 254 l 535 211 l 174 211 q 176 160 212 128 q 248 96 300 96 l 300 96 q 353 96 378 119 q 403 142 416 170 l 416 170 l 519 116 q 505 90 479 60 q 452 29 408 8 q 364 -14 296 -14 z m 175 305 l 175 305 l 407 305 q 403 348 373 374 q 342 400 293 400 l 293 400 q 242 400 212 374 q 182 348 175 305 z m 294 554 l 294 554 q 260 554 237 576 q 213 598 213 634 l 213 634 q 213 670 237 692 q 260 714 294 714 l 294 714 q 329 714 352 692 q 375 670 375 634 l 375 634 q 375 598 352 576 q 329 554 294 554 z"},"ĝ":{"ha":638,"o":"m 46 246 l 46 246 l 46 262 q 46 340 77 396 q 108 451 160 481 q 211 510 272 510 l 272 510 q 340 510 375 486 q 410 462 426 436 l 426 436 l 444 436 l 444 496 l 568 496 l 568 -88 q 568 -139 538 -169 q 508 -200 458 -200 l 458 -200 l 126 -200 l 126 -90 l 414 -90 q 442 -90 442 -60 l 442 -60 l 442 69 l 424 69 q 414 53 396 37 q 378 20 348 9 q 318 -2 272 -2 l 272 -2 q 211 -2 160 28 q 108 57 77 113 q 46 168 46 246 z m 308 108 l 308 108 q 366 108 405 145 q 444 182 444 249 l 444 249 l 444 259 q 444 327 406 364 q 367 400 308 400 l 308 400 q 250 400 211 364 q 172 327 172 259 l 172 259 l 172 249 q 172 182 211 145 q 250 108 308 108 z m 263 552 l 136 552 l 253 700 l 403 700 l 520 552 l 393 552 l 337 626 l 319 626 l 263 552 z"},"ğ":{"ha":638,"o":"m 46 246 l 46 246 l 46 262 q 46 340 77 396 q 108 451 160 481 q 211 510 272 510 l 272 510 q 340 510 375 486 q 410 462 426 436 l 426 436 l 444 436 l 444 496 l 568 496 l 568 -88 q 568 -139 538 -169 q 508 -200 458 -200 l 458 -200 l 126 -200 l 126 -90 l 414 -90 q 442 -90 442 -60 l 442 -60 l 442 69 l 424 69 q 414 53 396 37 q 378 20 348 9 q 318 -2 272 -2 l 272 -2 q 211 -2 160 28 q 108 57 77 113 q 46 168 46 246 z m 308 108 l 308 108 q 366 108 405 145 q 444 182 444 249 l 444 249 l 444 259 q 444 327 406 364 q 367 400 308 400 l 308 400 q 250 400 211 364 q 172 327 172 259 l 172 259 l 172 249 q 172 182 211 145 q 250 108 308 108 z m 328 548 l 328 548 q 249 548 206 587 q 162 626 162 694 l 162 694 l 162 700 l 266 700 l 266 696 q 266 668 281 649 q 295 630 328 630 l 328 630 q 361 630 376 649 q 390 668 390 696 l 390 696 l 390 700 l 494 700 l 494 694 q 494 626 451 587 q 407 548 328 548 z"},"ġ":{"ha":638,"o":"m 46 246 l 46 246 l 46 262 q 46 340 77 396 q 108 451 160 481 q 211 510 272 510 l 272 510 q 340 510 375 486 q 410 462 426 436 l 426 436 l 444 436 l 444 496 l 568 496 l 568 -88 q 568 -139 538 -169 q 508 -200 458 -200 l 458 -200 l 126 -200 l 126 -90 l 414 -90 q 442 -90 442 -60 l 442 -60 l 442 69 l 424 69 q 414 53 396 37 q 378 20 348 9 q 318 -2 272 -2 l 272 -2 q 211 -2 160 28 q 108 57 77 113 q 46 168 46 246 z m 308 108 l 308 108 q 366 108 405 145 q 444 182 444 249 l 444 249 l 444 259 q 444 327 406 364 q 367 400 308 400 l 308 400 q 250 400 211 364 q 172 327 172 259 l 172 259 l 172 249 q 172 182 211 145 q 250 108 308 108 z m 328 554 l 328 554 q 294 554 271 576 q 247 598 247 634 l 247 634 q 247 670 271 692 q 294 714 328 714 l 328 714 q 363 714 386 692 q 409 670 409 634 l 409 634 q 409 598 386 576 q 363 554 328 554 z"},"ĥ":{"ha":616,"o":"m 196 0 l 70 0 l 70 700 l 196 700 l 196 435 l 214 435 q 222 451 239 467 q 256 483 285 494 q 313 504 357 504 l 357 504 q 415 504 459 478 q 502 451 526 405 q 550 358 550 296 l 550 296 l 550 0 l 424 0 l 424 286 q 424 342 397 370 q 369 398 318 398 l 318 398 q 260 398 228 360 q 196 321 196 252 l 196 252 l 196 0 z m 75 758 l -59 758 l 55 888 l 211 888 l 325 758 l 191 758 l 142 824 l 124 824 l 75 758 z"},"ħ":{"ha":616,"o":"m 196 0 l 70 0 l 70 700 l 196 700 l 196 435 l 214 435 q 222 451 239 467 q 256 483 285 494 q 313 504 357 504 l 357 504 q 415 504 459 478 q 502 451 526 405 q 550 358 550 296 l 550 296 l 550 0 l 424 0 l 424 286 q 424 342 397 370 q 369 398 318 398 l 318 398 q 260 398 228 360 q 196 321 196 252 l 196 252 l 196 0 z m 340 556 l 0 556 l 0 626 l 340 626 l 340 556 z"},"ì":{"ha":266,"o":"m 196 0 l 70 0 l 70 496 l 196 496 l 196 0 z m 209 552 l 99 552 l -7 700 l 135 700 l 209 552 z"},"í":{"ha":266,"o":"m 196 0 l 70 0 l 70 496 l 196 496 l 196 0 z m 167 552 l 57 552 l 131 700 l 273 700 l 167 552 z"},"î":{"ha":266,"o":"m 196 0 l 70 0 l 70 496 l 196 496 l 196 0 z m 68 552 l -59 552 l 58 700 l 208 700 l 325 552 l 198 552 l 142 626 l 124 626 l 68 552 z"},"ĩ":{"ha":266,"o":"m 196 0 l 70 0 l 70 496 l 196 496 l 196 0 z m 37 566 l 21 542 l -48 586 l -15 643 q 0 669 22 681 q 43 692 68 692 l 68 692 q 90 692 107 684 q 123 675 139 661 l 139 661 q 148 653 159 645 q 169 637 182 637 l 182 637 q 197 637 207 647 q 216 657 223 668 l 223 668 l 239 692 l 308 648 l 275 591 q 260 566 239 554 q 218 542 192 542 l 192 542 q 170 542 154 551 q 137 559 121 573 l 121 573 q 112 581 102 589 q 92 597 78 597 l 78 597 q 63 597 54 587 q 45 577 37 566 l 37 566 z"},"ï":{"ha":266,"o":"m 196 0 l 70 0 l 70 496 l 196 496 l 196 0 z m 236 550 l 236 550 q 202 550 179 572 q 155 593 155 630 l 155 630 q 155 667 179 689 q 202 710 236 710 l 236 710 q 271 710 294 689 q 317 667 317 630 l 317 630 q 317 593 294 572 q 271 550 236 550 z m 30 550 l 30 550 q -4 550 -27 572 q -51 593 -51 630 l -51 630 q -51 667 -27 689 q -4 710 30 710 l 30 710 q 65 710 88 689 q 111 667 111 630 l 111 630 q 111 593 88 572 q 65 550 30 550 z"},"ī":{"ha":266,"o":"m 196 0 l 70 0 l 70 496 l 196 496 l 196 0 z m 297 566 l -31 566 l -31 666 l 297 666 l 297 566 z"},"į":{"ha":266,"o":"m 196 0 l 70 0 l 70 496 l 196 496 l 196 0 z m 133 554 l 133 554 q 99 554 76 576 q 52 598 52 634 l 52 634 q 52 670 76 692 q 99 714 133 714 l 133 714 q 168 714 191 692 q 214 670 214 634 l 214 634 q 214 598 191 576 q 168 554 133 554 z m 229 -170 l 149 -170 q 115 -170 93 -151 q 71 -132 71 -101 l 71 -101 q 71 -86 74 -69 q 76 -52 80 -36 l 80 -36 l 93 20 l 174 20 l 164 -35 q 163 -42 162 -49 q 160 -57 160 -64 l 160 -64 q 160 -86 183 -86 l 183 -86 l 229 -86 l 229 -170 z"},"ĭ":{"ha":266,"o":"m 196 0 l 70 0 l 70 496 l 196 496 l 196 0 z m 133 548 l 133 548 q 54 548 11 587 q -33 626 -33 694 l -33 694 l -33 700 l 71 700 l 71 696 q 71 668 86 649 q 100 630 133 630 l 133 630 q 166 630 181 649 q 195 668 195 696 l 195 696 l 195 700 l 299 700 l 299 694 q 299 626 256 587 q 212 548 133 548 z"},"ĵ":{"ha":268,"o":"m 88 -200 l -22 -200 l -22 -92 l 44 -92 q 72 -92 72 -62 l 72 -62 l 72 496 l 198 496 l 198 -88 q 198 -139 168 -169 q 138 -200 88 -200 l 88 -200 z m 70 552 l -57 552 l 60 700 l 210 700 l 327 552 l 200 552 l 144 626 l 126 626 l 70 552 z"},"ĸ":{"ha":564,"o":"m 196 0 l 70 0 l 70 496 l 196 496 l 196 313 l 214 313 l 378 496 l 542 496 l 313 256 l 550 0 l 388 0 l 214 197 l 196 197 l 196 0 z"},"ĺ":{"ha":266,"o":"m 196 0 l 70 0 l 70 700 l 196 700 l 196 0 z m 167 758 l 55 758 l 125 888 l 271 888 l 167 758 z"},"ľ":{"ha":356,"o":"m 196 0 l 70 0 l 70 700 l 196 700 l 196 0 z m 338 498 l 252 498 l 260 700 l 380 700 l 338 498 z"},"ḹ":{"ha":266,"o":"m 196 0 l 70 0 l 70 700 l 196 700 l 196 0 z m 133 -214 l 133 -214 q 99 -214 76 -192 q 52 -170 52 -134 l 52 -134 q 52 -98 76 -76 q 99 -54 133 -54 l 133 -54 q 168 -54 191 -76 q 214 -98 214 -134 l 214 -134 q 214 -170 191 -192 q 168 -214 133 -214 z m 297 762 l -31 762 l -31 862 l 297 862 l 297 762 z"},"ł":{"ha":420,"o":"m 404 359 l 53 187 l 16 262 l 367 434 l 404 359 z m 273 0 l 147 0 l 147 700 l 273 700 l 273 0 z"},"ŀ":{"ha":448,"o":"m 196 0 l 70 0 l 70 700 l 196 700 l 196 0 z m 357 178 l 357 178 q 323 178 300 200 q 276 222 276 258 l 276 258 q 276 294 300 316 q 323 338 357 338 l 357 338 q 392 338 415 316 q 438 294 438 258 l 438 258 q 438 222 415 200 q 392 178 357 178 z"},"ń":{"ha":616,"o":"m 196 0 l 70 0 l 70 496 l 194 496 l 194 431 l 212 431 q 224 457 257 481 q 290 504 357 504 l 357 504 q 415 504 459 478 q 502 451 526 405 q 550 358 550 296 l 550 296 l 550 0 l 424 0 l 424 286 q 424 342 397 370 q 369 398 318 398 l 318 398 q 260 398 228 360 q 196 321 196 252 l 196 252 l 196 0 z m 337 552 l 227 552 l 301 700 l 443 700 l 337 552 z"},"ň":{"ha":616,"o":"m 196 0 l 70 0 l 70 496 l 194 496 l 194 431 l 212 431 q 224 457 257 481 q 290 504 357 504 l 357 504 q 415 504 459 478 q 502 451 526 405 q 550 358 550 296 l 550 296 l 550 0 l 424 0 l 424 286 q 424 342 397 370 q 369 398 318 398 l 318 398 q 260 398 228 360 q 196 321 196 252 l 196 252 l 196 0 z m 378 552 l 228 552 l 111 700 l 238 700 l 294 626 l 312 626 l 368 700 l 495 700 l 378 552 z"},"ñ":{"ha":616,"o":"m 196 0 l 70 0 l 70 496 l 194 496 l 194 431 l 212 431 q 224 457 257 481 q 290 504 357 504 l 357 504 q 415 504 459 478 q 502 451 526 405 q 550 358 550 296 l 550 296 l 550 0 l 424 0 l 424 286 q 424 342 397 370 q 369 398 318 398 l 318 398 q 260 398 228 360 q 196 321 196 252 l 196 252 l 196 0 z m 207 566 l 191 542 l 122 586 l 155 643 q 170 669 192 681 q 213 692 238 692 l 238 692 q 260 692 277 684 q 293 675 309 661 l 309 661 q 318 653 329 645 q 339 637 352 637 l 352 637 q 367 637 377 647 q 386 657 393 668 l 393 668 l 409 692 l 478 648 l 445 591 q 430 566 409 554 q 388 542 362 542 l 362 542 q 340 542 324 551 q 307 559 291 573 l 291 573 q 282 581 272 589 q 262 597 248 597 l 248 597 q 233 597 224 587 q 215 577 207 566 l 207 566 z"},"ŉ":{"ha":616,"o":"m 196 0 l 70 0 l 70 496 l 194 496 l 194 431 l 212 431 q 224 457 257 481 q 290 504 357 504 l 357 504 q 415 504 459 478 q 502 451 526 405 q 550 358 550 296 l 550 296 l 550 0 l 424 0 l 424 286 q 424 342 397 370 q 369 398 318 398 l 318 398 q 260 398 228 360 q 196 321 196 252 l 196 252 l 196 0 z m 103 550 l 70 550 l 70 609 l 100 609 q 123 609 132 618 q 141 627 141 649 l 141 649 l 141 669 l 130 669 q 96 669 75 690 q 53 710 53 742 l 53 742 q 53 777 75 799 q 96 820 130 820 l 130 820 q 165 820 186 798 q 207 776 207 738 l 207 738 l 207 650 q 207 550 103 550 l 103 550 z"},"ò":{"ha":612,"o":"m 306 -14 l 306 -14 q 232 -14 173 16 q 114 46 80 103 q 46 160 46 240 l 46 240 l 46 256 q 46 336 80 393 q 114 450 173 480 q 232 510 306 510 l 306 510 q 380 510 439 480 q 498 450 532 393 q 566 336 566 256 l 566 256 l 566 240 q 566 160 532 103 q 498 46 439 16 q 380 -14 306 -14 z m 306 98 l 306 98 q 364 98 402 136 q 440 173 440 243 l 440 243 l 440 253 q 440 323 403 361 q 365 398 306 398 l 306 398 q 248 398 210 361 q 172 323 172 253 l 172 253 l 172 243 q 172 173 210 136 q 248 98 306 98 z m 382 552 l 272 552 l 166 700 l 308 700 l 382 552 z"},"ó":{"ha":612,"o":"m 306 -14 l 306 -14 q 232 -14 173 16 q 114 46 80 103 q 46 160 46 240 l 46 240 l 46 256 q 46 336 80 393 q 114 450 173 480 q 232 510 306 510 l 306 510 q 380 510 439 480 q 498 450 532 393 q 566 336 566 256 l 566 256 l 566 240 q 566 160 532 103 q 498 46 439 16 q 380 -14 306 -14 z m 306 98 l 306 98 q 364 98 402 136 q 440 173 440 243 l 440 243 l 440 253 q 440 323 403 361 q 365 398 306 398 l 306 398 q 248 398 210 361 q 172 323 172 253 l 172 253 l 172 243 q 172 173 210 136 q 248 98 306 98 z m 340 552 l 230 552 l 304 700 l 446 700 l 340 552 z"},"ô":{"ha":612,"o":"m 306 -14 l 306 -14 q 232 -14 173 16 q 114 46 80 103 q 46 160 46 240 l 46 240 l 46 256 q 46 336 80 393 q 114 450 173 480 q 232 510 306 510 l 306 510 q 380 510 439 480 q 498 450 532 393 q 566 336 566 256 l 566 256 l 566 240 q 566 160 532 103 q 498 46 439 16 q 380 -14 306 -14 z m 306 98 l 306 98 q 364 98 402 136 q 440 173 440 243 l 440 243 l 440 253 q 440 323 403 361 q 365 398 306 398 l 306 398 q 248 398 210 361 q 172 323 172 253 l 172 253 l 172 243 q 172 173 210 136 q 248 98 306 98 z m 241 552 l 114 552 l 231 700 l 381 700 l 498 552 l 371 552 l 315 626 l 297 626 l 241 552 z"},"õ":{"ha":612,"o":"m 306 -14 l 306 -14 q 232 -14 173 16 q 114 46 80 103 q 46 160 46 240 l 46 240 l 46 256 q 46 336 80 393 q 114 450 173 480 q 232 510 306 510 l 306 510 q 380 510 439 480 q 498 450 532 393 q 566 336 566 256 l 566 256 l 566 240 q 566 160 532 103 q 498 46 439 16 q 380 -14 306 -14 z m 306 98 l 306 98 q 364 98 402 136 q 440 173 440 243 l 440 243 l 440 253 q 440 323 403 361 q 365 398 306 398 l 306 398 q 248 398 210 361 q 172 323 172 253 l 172 253 l 172 243 q 172 173 210 136 q 248 98 306 98 z m 210 566 l 194 542 l 125 586 l 158 643 q 173 669 195 681 q 216 692 241 692 l 241 692 q 263 692 280 684 q 296 675 312 661 l 312 661 q 321 653 332 645 q 342 637 355 637 l 355 637 q 370 637 380 647 q 389 657 396 668 l 396 668 l 412 692 l 481 648 l 448 591 q 433 566 412 554 q 391 542 365 542 l 365 542 q 343 542 327 551 q 310 559 294 573 l 294 573 q 285 581 275 589 q 265 597 251 597 l 251 597 q 236 597 227 587 q 218 577 210 566 l 210 566 z"},"ö":{"ha":612,"o":"m 306 -14 l 306 -14 q 232 -14 173 16 q 114 46 80 103 q 46 160 46 240 l 46 240 l 46 256 q 46 336 80 393 q 114 450 173 480 q 232 510 306 510 l 306 510 q 380 510 439 480 q 498 450 532 393 q 566 336 566 256 l 566 256 l 566 240 q 566 160 532 103 q 498 46 439 16 q 380 -14 306 -14 z m 306 98 l 306 98 q 364 98 402 136 q 440 173 440 243 l 440 243 l 440 253 q 440 323 403 361 q 365 398 306 398 l 306 398 q 248 398 210 361 q 172 323 172 253 l 172 253 l 172 243 q 172 173 210 136 q 248 98 306 98 z m 409 550 l 409 550 q 375 550 352 572 q 328 593 328 630 l 328 630 q 328 667 352 689 q 375 710 409 710 l 409 710 q 444 710 467 689 q 490 667 490 630 l 490 630 q 490 593 467 572 q 444 550 409 550 z m 203 550 l 203 550 q 169 550 146 572 q 122 593 122 630 l 122 630 q 122 667 146 689 q 169 710 203 710 l 203 710 q 238 710 261 689 q 284 667 284 630 l 284 630 q 284 593 261 572 q 238 550 203 550 z"},"ō":{"ha":612,"o":"m 306 -14 l 306 -14 q 232 -14 173 16 q 114 46 80 103 q 46 160 46 240 l 46 240 l 46 256 q 46 336 80 393 q 114 450 173 480 q 232 510 306 510 l 306 510 q 380 510 439 480 q 498 450 532 393 q 566 336 566 256 l 566 256 l 566 240 q 566 160 532 103 q 498 46 439 16 q 380 -14 306 -14 z m 306 98 l 306 98 q 364 98 402 136 q 440 173 440 243 l 440 243 l 440 253 q 440 323 403 361 q 365 398 306 398 l 306 398 q 248 398 210 361 q 172 323 172 253 l 172 253 l 172 243 q 172 173 210 136 q 248 98 306 98 z m 470 566 l 142 566 l 142 666 l 470 666 l 470 566 z"},"ő":{"ha":612,"o":"m 306 -14 l 306 -14 q 232 -14 173 16 q 114 46 80 103 q 46 160 46 240 l 46 240 l 46 256 q 46 336 80 393 q 114 450 173 480 q 232 510 306 510 l 306 510 q 380 510 439 480 q 498 450 532 393 q 566 336 566 256 l 566 256 l 566 240 q 566 160 532 103 q 498 46 439 16 q 380 -14 306 -14 z m 306 98 l 306 98 q 364 98 402 136 q 440 173 440 243 l 440 243 l 440 253 q 440 323 403 361 q 365 398 306 398 l 306 398 q 248 398 210 361 q 172 323 172 253 l 172 253 l 172 243 q 172 173 210 136 q 248 98 306 98 z m 424 552 l 324 552 l 384 700 l 514 700 l 424 552 z m 261 552 l 163 552 l 211 700 l 329 700 l 261 552 z"},"ŏ":{"ha":612,"o":"m 306 -14 l 306 -14 q 232 -14 173 16 q 114 46 80 103 q 46 160 46 240 l 46 240 l 46 256 q 46 336 80 393 q 114 450 173 480 q 232 510 306 510 l 306 510 q 380 510 439 480 q 498 450 532 393 q 566 336 566 256 l 566 256 l 566 240 q 566 160 532 103 q 498 46 439 16 q 380 -14 306 -14 z m 306 98 l 306 98 q 364 98 402 136 q 440 173 440 243 l 440 243 l 440 253 q 440 323 403 361 q 365 398 306 398 l 306 398 q 248 398 210 361 q 172 323 172 253 l 172 253 l 172 243 q 172 173 210 136 q 248 98 306 98 z m 306 548 l 306 548 q 227 548 184 587 q 140 626 140 694 l 140 694 l 140 700 l 244 700 l 244 696 q 244 668 259 649 q 273 630 306 630 l 306 630 q 339 630 354 649 q 368 668 368 696 l 368 696 l 368 700 l 472 700 l 472 694 q 472 626 429 587 q 385 548 306 548 z"},"ø":{"ha":612,"o":"m 306 -14 l 306 -14 q 232 -14 173 16 q 114 46 80 103 q 46 160 46 240 l 46 240 l 46 256 q 46 336 80 393 q 114 450 173 480 q 232 510 306 510 l 306 510 q 380 510 439 480 q 498 450 532 393 q 566 336 566 256 l 566 256 l 566 240 q 566 160 532 103 q 498 46 439 16 q 380 -14 306 -14 z m 306 98 l 306 98 q 364 98 402 136 q 440 173 440 243 l 440 243 l 440 253 q 440 323 403 361 q 365 398 306 398 l 306 398 q 248 398 210 361 q 172 323 172 253 l 172 253 l 172 243 q 172 173 210 136 q 248 98 306 98 z m 534 517 l 148 -71 l 78 -25 l 464 563 l 534 517 z"},"œ":{"ha":984,"o":"m 299 -14 l 299 -14 q 228 -14 171 16 q 113 46 80 103 q 46 160 46 240 l 46 240 l 46 256 q 46 336 80 393 q 113 450 171 480 q 228 510 299 510 l 299 510 q 370 510 419 484 q 468 457 497 412 l 497 412 l 515 412 q 545 457 593 484 q 641 510 701 510 l 701 510 q 774 510 828 478 q 882 445 912 388 q 942 330 942 254 l 942 254 l 942 211 l 581 211 q 583 160 619 128 q 655 96 707 96 l 707 96 q 760 96 785 119 q 810 142 823 170 l 823 170 l 926 116 q 912 90 886 60 q 860 29 817 8 q 773 -14 707 -14 l 707 -14 q 640 -14 590 13 q 540 40 515 84 l 515 84 l 497 84 q 468 39 419 13 q 370 -14 299 -14 z m 306 98 l 306 98 q 364 98 402 136 q 440 173 440 243 l 440 243 l 440 253 q 440 323 403 361 q 365 398 306 398 l 306 398 q 248 398 210 361 q 172 323 172 253 l 172 253 l 172 243 q 172 173 210 136 q 248 98 306 98 z m 582 305 l 582 305 l 814 305 q 810 348 780 374 q 749 400 700 400 l 700 400 q 649 400 619 373 q 588 346 582 305 z"},"ŕ":{"ha":396,"o":"m 196 0 l 70 0 l 70 496 l 194 496 l 194 440 l 212 440 q 223 470 249 484 q 274 498 308 498 l 308 498 l 368 498 l 368 386 l 306 386 q 258 386 227 361 q 196 335 196 282 l 196 282 l 196 0 z m 250 552 l 140 552 l 214 700 l 356 700 l 250 552 z"},"ř":{"ha":396,"o":"m 196 0 l 70 0 l 70 496 l 194 496 l 194 440 l 212 440 q 223 470 249 484 q 274 498 308 498 l 308 498 l 368 498 l 368 386 l 306 386 q 258 386 227 361 q 196 335 196 282 l 196 282 l 196 0 z m 291 552 l 141 552 l 24 700 l 151 700 l 207 626 l 225 626 l 281 700 l 408 700 l 291 552 z"},"ṝ":{"ha":396,"o":"m 196 0 l 70 0 l 70 496 l 194 496 l 194 440 l 212 440 q 223 470 249 484 q 274 498 308 498 l 308 498 l 368 498 l 368 386 l 306 386 q 258 386 227 361 q 196 335 196 282 l 196 282 l 196 0 z m 135 -214 l 135 -214 q 101 -214 78 -192 q 54 -170 54 -134 l 54 -134 q 54 -98 78 -76 q 101 -54 135 -54 l 135 -54 q 170 -54 193 -76 q 216 -98 216 -134 l 216 -134 q 216 -170 193 -192 q 170 -214 135 -214 z m 380 566 l 52 566 l 52 666 l 380 666 l 380 566 z"},"ś":{"ha":524,"o":"m 276 -14 l 276 -14 q 179 -14 117 28 q 55 70 42 148 l 42 148 l 158 178 q 165 143 182 123 q 198 103 223 95 q 247 86 276 86 l 276 86 q 320 86 341 102 q 362 117 362 140 l 362 140 q 362 163 342 176 q 322 188 278 196 l 278 196 l 250 201 q 198 211 155 229 q 112 246 86 277 q 60 308 60 357 l 60 357 q 60 431 114 471 q 168 510 256 510 l 256 510 q 339 510 394 473 q 449 436 466 376 l 466 376 l 349 340 q 341 378 317 394 q 292 410 256 410 l 256 410 q 220 410 201 398 q 182 385 182 363 l 182 363 q 182 339 202 328 q 222 316 256 310 l 256 310 l 284 305 q 340 295 386 279 q 431 262 458 232 q 484 201 484 149 l 484 149 q 484 71 428 29 q 371 -14 276 -14 z m 295 552 l 185 552 l 259 700 l 401 700 l 295 552 z"},"ŝ":{"ha":524,"o":"m 276 -14 l 276 -14 q 179 -14 117 28 q 55 70 42 148 l 42 148 l 158 178 q 165 143 182 123 q 198 103 223 95 q 247 86 276 86 l 276 86 q 320 86 341 102 q 362 117 362 140 l 362 140 q 362 163 342 176 q 322 188 278 196 l 278 196 l 250 201 q 198 211 155 229 q 112 246 86 277 q 60 308 60 357 l 60 357 q 60 431 114 471 q 168 510 256 510 l 256 510 q 339 510 394 473 q 449 436 466 376 l 466 376 l 349 340 q 341 378 317 394 q 292 410 256 410 l 256 410 q 220 410 201 398 q 182 385 182 363 l 182 363 q 182 339 202 328 q 222 316 256 310 l 256 310 l 284 305 q 340 295 386 279 q 431 262 458 232 q 484 201 484 149 l 484 149 q 484 71 428 29 q 371 -14 276 -14 z m 196 552 l 69 552 l 186 700 l 336 700 l 453 552 l 326 552 l 270 626 l 252 626 l 196 552 z"},"š":{"ha":524,"o":"m 276 -14 l 276 -14 q 179 -14 117 28 q 55 70 42 148 l 42 148 l 158 178 q 165 143 182 123 q 198 103 223 95 q 247 86 276 86 l 276 86 q 320 86 341 102 q 362 117 362 140 l 362 140 q 362 163 342 176 q 322 188 278 196 l 278 196 l 250 201 q 198 211 155 229 q 112 246 86 277 q 60 308 60 357 l 60 357 q 60 431 114 471 q 168 510 256 510 l 256 510 q 339 510 394 473 q 449 436 466 376 l 466 376 l 349 340 q 341 378 317 394 q 292 410 256 410 l 256 410 q 220 410 201 398 q 182 385 182 363 l 182 363 q 182 339 202 328 q 222 316 256 310 l 256 310 l 284 305 q 340 295 386 279 q 431 262 458 232 q 484 201 484 149 l 484 149 q 484 71 428 29 q 371 -14 276 -14 z m 336 552 l 186 552 l 69 700 l 196 700 l 252 626 l 270 626 l 326 700 l 453 700 l 336 552 z"},"ş":{"ha":524,"o":"m 276 -14 l 276 -14 q 179 -14 117 28 q 55 70 42 148 l 42 148 l 158 178 q 165 143 182 123 q 198 103 223 95 q 247 86 276 86 l 276 86 q 320 86 341 102 q 362 117 362 140 l 362 140 q 362 163 342 176 q 322 188 278 196 l 278 196 l 250 201 q 198 211 155 229 q 112 246 86 277 q 60 308 60 357 l 60 357 q 60 431 114 471 q 168 510 256 510 l 256 510 q 339 510 394 473 q 449 436 466 376 l 466 376 l 349 340 q 341 378 317 394 q 292 410 256 410 l 256 410 q 220 410 201 398 q 182 385 182 363 l 182 363 q 182 339 202 328 q 222 316 256 310 l 256 310 l 284 305 q 340 295 386 279 q 431 262 458 232 q 484 201 484 149 l 484 149 q 484 71 428 29 q 371 -14 276 -14 z m 265 -214 l 265 -214 q 233 -214 203 -208 q 172 -202 150 -195 l 150 -195 l 170 -120 q 189 -126 211 -131 q 232 -136 259 -136 l 259 -136 q 279 -136 292 -129 q 305 -122 305 -107 l 305 -107 q 305 -93 294 -86 q 282 -80 256 -80 l 256 -80 l 218 -80 l 225 20 l 311 20 l 307 -39 q 345 -39 372 -60 q 398 -81 398 -122 l 398 -122 q 398 -154 379 -174 q 360 -195 330 -204 q 299 -214 265 -214 z"},"ß":{"ha":651,"o":"m 426 -14 l 426 -14 q 363 -14 320 8 q 277 29 253 62 q 228 94 219 127 l 219 127 l 333 164 q 341 130 364 109 q 386 88 426 88 l 426 88 q 462 88 483 109 q 503 129 503 159 l 503 159 q 503 179 494 193 q 485 206 468 216 q 451 225 427 233 l 427 233 l 385 248 q 341 264 321 289 q 300 314 300 347 l 300 347 q 300 382 317 405 q 333 427 365 450 l 365 450 q 389 467 409 490 q 428 512 428 543 l 428 543 q 428 572 403 590 q 377 608 336 608 l 336 608 q 303 608 271 592 q 238 575 217 537 q 196 499 196 434 l 196 434 l 196 0 l 70 0 l 70 430 q 70 520 104 584 q 138 647 198 681 q 258 714 336 714 l 336 714 q 398 714 447 693 q 496 671 524 633 q 552 595 552 547 l 552 547 q 552 504 537 474 q 522 443 498 422 q 473 400 446 382 l 446 382 q 438 377 434 372 q 429 367 429 360 l 429 360 q 429 346 455 337 l 455 337 l 480 328 q 522 313 556 292 q 589 271 608 239 q 627 207 627 158 l 627 158 q 627 109 603 70 q 579 31 534 9 q 489 -14 426 -14 z"},"ſ":{"ha":370,"o":"m 258 0 l 132 0 l 132 392 l 26 392 l 26 496 l 132 496 l 132 588 q 132 639 163 670 q 193 700 242 700 l 242 700 l 372 700 l 372 596 l 286 596 q 258 596 258 566 l 258 566 l 258 0 z"},"ť":{"ha":456,"o":"m 400 0 l 260 0 q 211 0 181 31 q 150 61 150 112 l 150 112 l 150 392 l 26 392 l 26 496 l 150 496 l 150 650 l 276 650 l 276 496 l 412 496 l 412 392 l 276 392 l 276 134 q 276 104 304 104 l 304 104 l 400 104 l 400 0 z m 422 555 l 336 555 l 344 757 l 464 757 l 422 555 z"},"ŧ":{"ha":456,"o":"m 400 0 l 260 0 q 211 0 181 31 q 150 61 150 112 l 150 112 l 150 392 l 26 392 l 26 496 l 150 496 l 150 650 l 276 650 l 276 496 l 412 496 l 412 392 l 276 392 l 276 134 q 276 104 304 104 l 304 104 l 400 104 l 400 0 z m 412 208 l 26 208 l 26 292 l 412 292 l 412 208 z"},"ù":{"ha":616,"o":"m 259 -8 l 259 -8 q 201 -8 158 19 q 114 45 90 92 q 66 139 66 200 l 66 200 l 66 496 l 192 496 l 192 210 q 192 154 220 126 q 247 98 298 98 l 298 98 q 356 98 388 137 q 420 175 420 244 l 420 244 l 420 496 l 546 496 l 546 0 l 422 0 l 422 65 l 404 65 q 392 40 359 16 q 326 -8 259 -8 z m 382 552 l 272 552 l 166 700 l 308 700 l 382 552 z"},"ú":{"ha":616,"o":"m 259 -8 l 259 -8 q 201 -8 158 19 q 114 45 90 92 q 66 139 66 200 l 66 200 l 66 496 l 192 496 l 192 210 q 192 154 220 126 q 247 98 298 98 l 298 98 q 356 98 388 137 q 420 175 420 244 l 420 244 l 420 496 l 546 496 l 546 0 l 422 0 l 422 65 l 404 65 q 392 40 359 16 q 326 -8 259 -8 z m 340 552 l 230 552 l 304 700 l 446 700 l 340 552 z"},"û":{"ha":616,"o":"m 259 -8 l 259 -8 q 201 -8 158 19 q 114 45 90 92 q 66 139 66 200 l 66 200 l 66 496 l 192 496 l 192 210 q 192 154 220 126 q 247 98 298 98 l 298 98 q 356 98 388 137 q 420 175 420 244 l 420 244 l 420 496 l 546 496 l 546 0 l 422 0 l 422 65 l 404 65 q 392 40 359 16 q 326 -8 259 -8 z m 241 552 l 114 552 l 231 700 l 381 700 l 498 552 l 371 552 l 315 626 l 297 626 l 241 552 z"},"ũ":{"ha":616,"o":"m 259 -8 l 259 -8 q 201 -8 158 19 q 114 45 90 92 q 66 139 66 200 l 66 200 l 66 496 l 192 496 l 192 210 q 192 154 220 126 q 247 98 298 98 l 298 98 q 356 98 388 137 q 420 175 420 244 l 420 244 l 420 496 l 546 496 l 546 0 l 422 0 l 422 65 l 404 65 q 392 40 359 16 q 326 -8 259 -8 z m 210 566 l 194 542 l 125 586 l 158 643 q 173 669 195 681 q 216 692 241 692 l 241 692 q 263 692 280 684 q 296 675 312 661 l 312 661 q 321 653 332 645 q 342 637 355 637 l 355 637 q 370 637 380 647 q 389 657 396 668 l 396 668 l 412 692 l 481 648 l 448 591 q 433 566 412 554 q 391 542 365 542 l 365 542 q 343 542 327 551 q 310 559 294 573 l 294 573 q 285 581 275 589 q 265 597 251 597 l 251 597 q 236 597 227 587 q 218 577 210 566 l 210 566 z"},"ü":{"ha":616,"o":"m 259 -8 l 259 -8 q 201 -8 158 19 q 114 45 90 92 q 66 139 66 200 l 66 200 l 66 496 l 192 496 l 192 210 q 192 154 220 126 q 247 98 298 98 l 298 98 q 356 98 388 137 q 420 175 420 244 l 420 244 l 420 496 l 546 496 l 546 0 l 422 0 l 422 65 l 404 65 q 392 40 359 16 q 326 -8 259 -8 z m 409 550 l 409 550 q 375 550 352 572 q 328 593 328 630 l 328 630 q 328 667 352 689 q 375 710 409 710 l 409 710 q 444 710 467 689 q 490 667 490 630 l 490 630 q 490 593 467 572 q 444 550 409 550 z m 203 550 l 203 550 q 169 550 146 572 q 122 593 122 630 l 122 630 q 122 667 146 689 q 169 710 203 710 l 203 710 q 238 710 261 689 q 284 667 284 630 l 284 630 q 284 593 261 572 q 238 550 203 550 z"},"ū":{"ha":616,"o":"m 259 -8 l 259 -8 q 201 -8 158 19 q 114 45 90 92 q 66 139 66 200 l 66 200 l 66 496 l 192 496 l 192 210 q 192 154 220 126 q 247 98 298 98 l 298 98 q 356 98 388 137 q 420 175 420 244 l 420 244 l 420 496 l 546 496 l 546 0 l 422 0 l 422 65 l 404 65 q 392 40 359 16 q 326 -8 259 -8 z m 470 566 l 142 566 l 142 666 l 470 666 l 470 566 z"},"ŭ":{"ha":616,"o":"m 259 -8 l 259 -8 q 201 -8 158 19 q 114 45 90 92 q 66 139 66 200 l 66 200 l 66 496 l 192 496 l 192 210 q 192 154 220 126 q 247 98 298 98 l 298 98 q 356 98 388 137 q 420 175 420 244 l 420 244 l 420 496 l 546 496 l 546 0 l 422 0 l 422 65 l 404 65 q 392 40 359 16 q 326 -8 259 -8 z m 306 548 l 306 548 q 227 548 184 587 q 140 626 140 694 l 140 694 l 140 700 l 244 700 l 244 696 q 244 668 259 649 q 273 630 306 630 l 306 630 q 339 630 354 649 q 368 668 368 696 l 368 696 l 368 700 l 472 700 l 472 694 q 472 626 429 587 q 385 548 306 548 z"},"ů":{"ha":616,"o":"m 259 -8 l 259 -8 q 201 -8 158 19 q 114 45 90 92 q 66 139 66 200 l 66 200 l 66 496 l 192 496 l 192 210 q 192 154 220 126 q 247 98 298 98 l 298 98 q 356 98 388 137 q 420 175 420 244 l 420 244 l 420 496 l 546 496 l 546 0 l 422 0 l 422 65 l 404 65 q 392 40 359 16 q 326 -8 259 -8 z m 306 539 l 306 539 q 263 539 233 568 q 202 596 202 639 l 202 639 q 202 682 232 711 q 262 739 306 739 l 306 739 q 350 739 380 711 q 410 683 410 639 l 410 639 q 410 593 379 566 q 347 539 306 539 z m 306 609 l 306 609 q 320 609 328 618 q 336 626 336 639 l 336 639 q 336 652 328 661 q 320 669 306 669 l 306 669 q 293 669 285 661 q 276 652 276 639 l 276 639 q 276 626 285 618 q 293 609 306 609 z"},"ű":{"ha":616,"o":"m 259 -8 l 259 -8 q 201 -8 158 19 q 114 45 90 92 q 66 139 66 200 l 66 200 l 66 496 l 192 496 l 192 210 q 192 154 220 126 q 247 98 298 98 l 298 98 q 356 98 388 137 q 420 175 420 244 l 420 244 l 420 496 l 546 496 l 546 0 l 422 0 l 422 65 l 404 65 q 392 40 359 16 q 326 -8 259 -8 z m 424 552 l 324 552 l 384 700 l 514 700 l 424 552 z m 261 552 l 163 552 l 211 700 l 329 700 l 261 552 z"},"ų":{"ha":616,"o":"m 259 -8 l 259 -8 q 201 -8 158 19 q 114 45 90 92 q 66 139 66 200 l 66 200 l 66 496 l 192 496 l 192 210 q 192 154 220 126 q 247 98 298 98 l 298 98 q 356 98 388 137 q 420 175 420 244 l 420 244 l 420 496 l 546 496 l 546 0 l 422 0 l 422 65 l 404 65 q 392 40 359 16 q 326 -8 259 -8 z m 580 -170 l 500 -170 q 466 -170 444 -151 q 422 -132 422 -101 l 422 -101 q 422 -86 425 -69 q 427 -52 431 -36 l 431 -36 l 444 20 l 525 20 l 515 -35 q 514 -42 513 -49 q 511 -57 511 -64 l 511 -64 q 511 -86 534 -86 l 534 -86 l 580 -86 l 580 -170 z"},"ŵ":{"ha":784,"o":"m 319 0 l 110 0 l 40 496 l 165 496 l 209 85 l 227 85 l 291 496 l 493 496 l 557 85 l 575 85 l 619 496 l 744 496 l 674 0 l 465 0 l 401 411 l 383 411 l 319 0 z m 327 552 l 200 552 l 317 700 l 467 700 l 584 552 l 457 552 l 401 626 l 383 626 l 327 552 z"},"ý":{"ha":616,"o":"m 436 -200 l 124 -200 l 124 -90 l 394 -90 q 422 -90 422 -60 l 422 -60 l 422 65 l 404 65 q 396 48 379 31 q 362 14 333 3 q 304 -8 259 -8 l 259 -8 q 201 -8 158 19 q 114 45 90 92 q 66 139 66 200 l 66 200 l 66 496 l 192 496 l 192 210 q 192 154 220 126 q 247 98 298 98 l 298 98 q 356 98 388 137 q 420 175 420 244 l 420 244 l 420 496 l 546 496 l 546 -88 q 546 -139 516 -169 q 486 -200 436 -200 l 436 -200 z m 340 552 l 230 552 l 304 700 l 446 700 l 340 552 z"},"ŷ":{"ha":616,"o":"m 436 -200 l 124 -200 l 124 -90 l 394 -90 q 422 -90 422 -60 l 422 -60 l 422 65 l 404 65 q 396 48 379 31 q 362 14 333 3 q 304 -8 259 -8 l 259 -8 q 201 -8 158 19 q 114 45 90 92 q 66 139 66 200 l 66 200 l 66 496 l 192 496 l 192 210 q 192 154 220 126 q 247 98 298 98 l 298 98 q 356 98 388 137 q 420 175 420 244 l 420 244 l 420 496 l 546 496 l 546 -88 q 546 -139 516 -169 q 486 -200 436 -200 l 436 -200 z m 241 552 l 114 552 l 231 700 l 381 700 l 498 552 l 371 552 l 315 626 l 297 626 l 241 552 z"},"ÿ":{"ha":616,"o":"m 436 -200 l 124 -200 l 124 -90 l 394 -90 q 422 -90 422 -60 l 422 -60 l 422 65 l 404 65 q 396 48 379 31 q 362 14 333 3 q 304 -8 259 -8 l 259 -8 q 201 -8 158 19 q 114 45 90 92 q 66 139 66 200 l 66 200 l 66 496 l 192 496 l 192 210 q 192 154 220 126 q 247 98 298 98 l 298 98 q 356 98 388 137 q 420 175 420 244 l 420 244 l 420 496 l 546 496 l 546 -88 q 546 -139 516 -169 q 486 -200 436 -200 l 436 -200 z m 409 550 l 409 550 q 375 550 352 572 q 328 593 328 630 l 328 630 q 328 667 352 689 q 375 710 409 710 l 409 710 q 444 710 467 689 q 490 667 490 630 l 490 630 q 490 593 467 572 q 444 550 409 550 z m 203 550 l 203 550 q 169 550 146 572 q 122 593 122 630 l 122 630 q 122 667 146 689 q 169 710 203 710 l 203 710 q 238 710 261 689 q 284 667 284 630 l 284 630 q 284 593 261 572 q 238 550 203 550 z"},"ź":{"ha":518,"o":"m 470 0 l 52 0 l 52 150 l 324 376 l 324 392 l 62 392 l 62 496 l 462 496 l 462 346 l 190 120 l 190 104 l 470 104 l 470 0 z m 294 552 l 184 552 l 258 700 l 400 700 l 294 552 z"},"ž":{"ha":518,"o":"m 470 0 l 52 0 l 52 150 l 324 376 l 324 392 l 62 392 l 62 496 l 462 496 l 462 346 l 190 120 l 190 104 l 470 104 l 470 0 z m 335 552 l 185 552 l 68 700 l 195 700 l 251 626 l 269 626 l 325 700 l 452 700 l 335 552 z"},"ż":{"ha":518,"o":"m 470 0 l 52 0 l 52 150 l 324 376 l 324 392 l 62 392 l 62 496 l 462 496 l 462 346 l 190 120 l 190 104 l 470 104 l 470 0 z m 260 554 l 260 554 q 226 554 203 576 q 179 598 179 634 l 179 634 q 179 670 203 692 q 226 714 260 714 l 260 714 q 295 714 318 692 q 341 670 341 634 l 341 634 q 341 598 318 576 q 295 554 260 554 z"},"þ":{"ha":638,"o":"m 196 -200 l 70 -200 l 70 700 l 196 700 l 196 439 l 214 439 q 225 457 244 473 q 262 489 293 500 q 323 510 368 510 l 368 510 q 428 510 479 481 q 530 451 561 394 q 592 337 592 256 l 592 256 l 592 240 q 592 159 561 102 q 530 45 479 16 q 428 -14 368 -14 l 368 -14 q 323 -14 293 -3 q 262 7 244 24 q 225 40 214 57 l 214 57 l 196 57 l 196 -200 z m 330 96 l 330 96 q 389 96 428 134 q 466 171 466 243 l 466 243 l 466 253 q 466 325 428 363 q 389 400 330 400 l 330 400 q 272 400 233 363 q 194 325 194 253 l 194 253 l 194 243 q 194 171 233 134 q 272 96 330 96 z"},"ŋ":{"ha":616,"o":"m 196 0 l 70 0 l 70 496 l 194 496 l 194 431 l 212 431 q 224 457 257 481 q 290 504 357 504 l 357 504 q 415 504 459 478 q 502 451 526 405 q 550 358 550 296 l 550 296 l 550 0 l 424 0 l 424 286 q 424 342 397 370 q 369 398 318 398 l 318 398 q 260 398 228 360 q 196 321 196 252 l 196 252 l 196 0 z m 440 -200 l 314 -200 l 314 -92 l 396 -92 q 424 -92 424 -62 l 424 -62 l 424 0 l 550 0 l 550 -88 q 550 -138 520 -169 q 490 -200 440 -200 l 440 -200 z"},"ĳ":{"ha":534,"o":"m 196 0 l 70 0 l 70 496 l 196 496 l 196 0 z m 133 554 l 133 554 q 99 554 76 576 q 52 598 52 634 l 52 634 q 52 670 76 692 q 99 714 133 714 l 133 714 q 168 714 191 692 q 214 670 214 634 l 214 634 q 214 598 191 576 q 168 554 133 554 z m 354 -200 l 244 -200 l 244 -92 l 310 -92 q 338 -92 338 -62 l 338 -62 l 338 496 l 464 496 l 464 -88 q 464 -139 434 -169 q 404 -200 354 -200 l 354 -200 z m 401 554 l 401 554 q 367 554 344 576 q 320 598 320 634 l 320 634 q 320 670 344 692 q 367 714 401 714 l 401 714 q 436 714 459 692 q 482 670 482 634 l 482 634 q 482 598 459 576 q 436 554 401 554 z"},"":{"ha":534,"o":"m 196 0 l 70 0 l 70 496 l 196 496 l 196 0 z m 167 552 l 57 552 l 131 700 l 273 700 l 167 552 z m 354 -200 l 244 -200 l 244 -92 l 310 -92 q 338 -92 338 -62 l 338 -62 l 338 496 l 464 496 l 464 -88 q 464 -139 434 -169 q 404 -200 354 -200 l 354 -200 z m 435 552 l 325 552 l 399 700 l 541 700 l 435 552 z"},"ɑ":{"ha":660,"o":"m 270 -14 l 270 -14 q 210 -14 159 16 q 108 45 77 102 q 46 159 46 240 l 46 240 l 46 256 q 46 337 77 394 q 108 451 160 481 q 211 510 270 510 l 270 510 q 338 510 374 488 q 409 465 426 436 l 426 436 l 444 436 l 444 496 l 568 496 l 568 134 q 568 104 596 104 l 596 104 l 636 104 l 636 0 l 536 0 q 500 0 477 20 q 453 40 453 75 l 453 75 l 453 76 l 435 76 q 418 39 381 13 q 343 -14 270 -14 z m 308 96 l 308 96 q 367 96 406 134 q 444 171 444 243 l 444 243 l 444 253 q 444 325 405 363 q 366 400 308 400 l 308 400 q 250 400 211 363 q 172 325 172 253 l 172 253 l 172 243 q 172 171 211 134 q 250 96 308 96 z"},"π":{"ha":578,"o":"m 230 0 l 104 0 l 104 392 l 26 392 l 26 496 l 540 496 l 540 392 l 462 392 l 462 134 q 462 104 490 104 l 490 104 l 540 104 l 540 0 l 446 0 q 397 0 367 31 q 336 61 336 112 l 336 112 l 336 392 l 230 392 l 230 0 z"},"ª":{"ha":419,"o":"m 161 340 l 161 340 q 106 340 70 369 q 34 397 34 452 l 34 452 q 34 505 71 534 q 108 562 166 562 l 166 562 l 255 562 l 255 578 q 255 604 242 620 q 228 636 196 636 l 196 636 q 165 636 149 621 q 133 606 128 586 l 128 586 l 47 613 q 58 653 96 682 q 133 710 199 710 l 199 710 q 265 710 306 677 q 347 643 347 574 l 347 574 l 347 443 q 347 422 366 422 l 366 422 l 399 422 l 399 350 l 333 350 q 307 350 292 362 q 276 374 274 395 l 274 395 l 262 395 q 259 386 248 373 q 237 360 216 350 q 195 340 161 340 z m 179 414 l 179 414 q 214 414 235 431 q 255 448 255 485 l 255 485 l 255 496 l 175 496 q 153 496 140 485 q 126 473 126 456 l 126 456 q 126 438 140 426 q 154 414 179 414 z"},"º":{"ha":436,"o":"m 218 340 l 218 340 q 134 340 83 389 q 32 437 32 525 l 32 525 q 32 614 83 662 q 134 710 218 710 l 218 710 q 302 710 353 662 q 404 614 404 525 l 404 525 q 404 437 353 389 q 302 340 218 340 z m 218 416 l 218 416 q 260 416 285 444 q 310 471 310 525 l 310 525 q 310 579 285 607 q 260 634 218 634 l 218 634 q 176 634 151 607 q 126 579 126 525 l 126 525 q 126 471 151 444 q 176 416 218 416 z"},"†":{"ha":570,"o":"m 348 0 l 222 0 l 222 392 l 62 392 l 62 496 l 222 496 l 222 700 l 348 700 l 348 496 l 508 496 l 508 392 l 348 392 l 348 0 z"},"‡":{"ha":570,"o":"m 348 0 l 222 0 l 222 180 l 62 180 l 62 284 l 222 284 l 222 418 l 62 418 l 62 522 l 222 522 l 222 700 l 348 700 l 348 522 l 508 522 l 508 418 l 348 418 l 348 284 l 508 284 l 508 180 l 348 180 l 348 0 z"},"§":{"ha":474,"o":"m 240 -14 l 240 -14 q 143 -14 87 41 q 30 95 30 184 l 30 184 l 30 198 l 138 198 l 138 186 q 138 142 163 115 q 187 88 239 88 l 239 88 q 282 88 303 104 q 324 120 324 152 l 324 152 q 324 182 304 199 q 284 215 231 225 l 231 225 q 147 240 100 279 q 52 318 52 390 l 52 390 q 52 414 58 435 q 63 455 73 472 l 73 472 q 52 505 52 550 l 52 550 l 52 556 q 52 606 76 641 q 99 676 140 695 q 180 714 232 714 l 232 714 q 318 714 372 670 q 426 625 426 548 l 426 548 l 426 526 l 318 526 l 318 538 q 318 558 310 575 q 302 592 284 602 q 265 612 235 612 l 235 612 q 201 612 182 597 q 162 582 162 556 l 162 556 q 162 524 191 510 q 220 495 263 487 l 263 487 q 353 471 394 431 q 434 390 434 324 l 434 324 q 434 274 416 238 l 416 238 q 425 222 430 204 q 434 185 434 164 l 434 164 l 434 156 q 434 81 384 34 q 333 -14 240 -14 z m 320 309 l 320 309 q 321 311 321 314 q 321 316 321 320 l 321 320 q 321 346 303 363 q 284 380 231 389 l 231 389 q 214 392 198 397 q 182 401 166 406 l 166 406 q 163 400 163 390 l 163 390 q 163 359 193 345 q 222 331 263 323 l 263 323 q 280 320 293 317 q 306 314 320 309 z"},"¶":{"ha":614,"o":"m 362 0 l 254 0 l 254 284 l 228 284 q 166 284 118 311 q 70 337 43 383 q 16 428 16 486 l 16 486 l 16 498 q 16 558 44 604 q 72 649 122 675 q 171 700 234 700 l 234 700 l 548 700 l 548 0 l 440 0 l 440 598 l 362 598 l 362 0 z m 222 386 l 222 386 l 254 386 l 254 598 l 222 598 q 179 598 152 570 q 124 542 124 495 l 124 495 l 124 489 q 124 442 153 414 q 182 386 222 386 z"},"©":{"ha":720,"o":"m 370 -12 l 350 -12 q 258 -12 191 24 q 123 60 87 128 q 50 195 50 290 l 50 290 l 50 410 q 50 505 87 573 q 123 640 191 676 q 258 712 350 712 l 350 712 l 370 712 q 462 712 530 676 q 597 640 634 573 q 670 505 670 410 l 670 410 l 670 290 q 670 195 634 128 q 597 60 530 24 q 462 -12 370 -12 l 370 -12 z m 352 84 l 352 84 l 368 84 q 464 84 516 137 q 568 189 568 288 l 568 288 l 568 412 q 568 511 516 564 q 464 616 368 616 l 368 616 l 352 616 q 256 616 204 564 q 152 511 152 412 l 152 412 l 152 288 q 152 189 204 137 q 256 84 352 84 z m 362 154 l 362 154 q 298 154 260 193 q 222 232 222 304 l 222 304 l 222 398 q 222 470 260 509 q 298 548 362 548 l 362 548 q 433 548 467 510 q 500 471 500 408 l 500 408 l 500 394 l 406 394 l 406 414 q 406 434 396 446 q 385 458 362 458 l 362 458 q 340 458 329 446 q 318 434 318 414 l 318 414 l 318 288 q 318 268 329 256 q 340 244 362 244 l 362 244 q 385 244 396 256 q 406 268 406 288 l 406 288 l 406 308 l 500 308 l 500 294 q 500 231 467 193 q 433 154 362 154 z"},"®":{"ha":516,"o":"m 258 298 l 258 298 q 198 298 151 325 q 103 351 76 398 q 48 445 48 506 l 48 506 q 48 567 76 614 q 103 661 151 688 q 198 714 258 714 l 258 714 q 318 714 366 688 q 413 661 441 614 q 468 567 468 506 l 468 506 q 468 445 441 398 q 413 351 366 325 q 318 298 258 298 z m 258 340 l 258 340 q 333 340 379 386 q 424 431 424 506 l 424 506 q 424 581 379 627 q 333 672 258 672 l 258 672 q 183 672 138 627 q 92 581 92 506 l 92 506 q 92 431 138 386 q 183 340 258 340 z m 228 397 l 186 397 l 186 619 l 271 619 q 308 619 327 601 q 346 583 346 559 l 346 559 q 346 540 337 526 q 327 511 306 503 l 306 503 l 306 493 q 323 492 331 482 q 338 472 338 455 l 338 455 l 338 397 l 296 397 l 296 457 q 296 478 275 478 l 275 478 l 228 478 l 228 397 z m 228 581 l 228 516 l 271 516 q 288 516 296 526 q 304 536 304 549 l 304 549 q 304 563 296 572 q 288 581 271 581 l 271 581 l 228 581 z"},"™":{"ha":552,"o":"m 294 478 l 252 478 l 252 700 l 332 700 l 374 516 l 384 516 l 426 700 l 506 700 l 506 478 l 464 478 l 464 662 l 454 662 l 412 478 l 346 478 l 304 662 l 294 662 l 294 478 z m 148 478 l 106 478 l 106 662 l 32 662 l 32 700 l 222 700 l 222 662 l 148 662 l 148 478 z"},"℠":{"ha":546,"o":"m 288 478 l 246 478 l 246 700 l 326 700 l 368 516 l 378 516 l 420 700 l 500 700 l 500 478 l 458 478 l 458 662 l 448 662 l 406 478 l 340 478 l 298 662 l 288 662 l 288 478 z m 129 474 l 129 474 q 90 474 66 494 q 42 513 42 550 l 42 550 l 42 559 l 82 559 l 82 550 q 82 531 95 520 q 107 509 129 509 l 129 509 q 150 509 161 519 q 171 528 171 541 l 171 541 q 171 555 160 562 q 148 569 127 573 l 127 573 l 117 575 q 83 582 65 596 q 47 610 47 641 l 47 641 q 47 671 69 688 q 90 704 125 704 l 125 704 q 160 704 183 687 q 206 669 206 633 l 206 633 l 206 623 l 166 623 l 166 633 q 166 669 125 669 l 125 669 q 88 669 88 641 l 88 641 q 88 618 127 610 l 127 610 l 137 608 q 169 601 191 588 q 212 575 212 542 l 212 542 q 212 511 190 493 q 167 474 129 474 z"},"#":{"ha":636,"o":"m 262 0 l 148 0 l 148 186 l 40 186 l 40 294 l 148 294 l 148 406 l 40 406 l 40 514 l 148 514 l 148 700 l 262 700 l 262 514 l 374 514 l 374 700 l 488 700 l 488 514 l 596 514 l 596 406 l 488 406 l 488 294 l 596 294 l 596 186 l 488 186 l 488 0 l 374 0 l 374 186 l 262 186 l 262 0 z m 262 406 l 262 294 l 374 294 l 374 406 l 262 406 z"},"¤":{"ha":620,"o":"m 176 139 l 115 78 l 38 155 l 99 216 q 80 245 70 279 q 60 312 60 350 l 60 350 q 60 387 70 421 q 80 455 99 484 l 99 484 l 38 545 l 115 622 l 176 561 q 205 579 239 590 q 272 600 310 600 l 310 600 q 347 600 381 590 q 415 579 444 561 l 444 561 l 505 622 l 582 545 l 521 484 q 539 455 550 421 q 560 387 560 350 l 560 350 q 560 312 550 279 q 539 245 521 216 l 521 216 l 582 155 l 505 78 l 444 139 q 415 120 381 110 q 347 100 310 100 l 310 100 q 272 100 239 110 q 205 120 176 139 l 176 139 z m 310 208 l 310 208 q 350 208 382 227 q 414 246 433 278 q 452 310 452 350 l 452 350 q 452 390 433 422 q 414 454 382 473 q 350 492 310 492 l 310 492 q 271 492 239 473 q 206 454 187 422 q 168 390 168 350 l 168 350 q 168 311 187 279 q 206 246 238 227 q 270 208 310 208 z"},"$":{"ha":606,"o":"m 309 -14 l 309 -14 q 228 -14 166 15 q 104 44 69 98 q 34 152 34 228 l 34 228 l 34 256 l 164 256 l 164 228 q 164 165 203 134 q 242 102 309 102 l 309 102 q 377 102 411 129 q 444 156 444 198 l 444 198 q 444 227 428 245 q 412 263 381 275 q 350 286 305 296 l 305 296 l 282 301 q 210 317 159 342 q 107 366 80 406 q 52 446 52 510 l 52 510 q 52 574 83 620 q 113 665 169 690 q 224 714 299 714 l 299 714 q 374 714 433 689 q 491 663 525 613 q 558 562 558 486 l 558 486 l 558 456 l 428 456 l 428 486 q 428 526 413 551 q 397 575 368 587 q 339 598 299 598 l 299 598 q 239 598 211 576 q 182 553 182 514 l 182 514 q 182 488 196 470 q 209 452 236 440 q 263 428 305 419 l 305 419 l 328 414 q 403 398 458 373 q 513 348 544 307 q 574 266 574 202 l 574 202 q 574 138 542 90 q 509 41 450 14 q 390 -14 309 -14 z m 368 -116 l 248 -116 l 248 816 l 368 816 l 368 -116 z"},"£":{"ha":638,"o":"m 586 0 l 52 0 l 52 114 l 126 114 l 126 286 l 56 286 l 56 388 l 126 388 l 126 494 q 126 598 188 656 q 249 714 354 714 l 354 714 q 459 714 521 656 q 582 598 582 494 l 582 494 l 582 432 l 456 432 l 456 498 q 456 546 429 573 q 401 600 354 600 l 354 600 q 308 600 280 573 q 252 546 252 498 l 252 498 l 252 388 l 352 388 l 352 286 l 252 286 l 252 114 l 586 114 l 586 0 z"},"¥":{"ha":620,"o":"m 376 0 l 244 0 l 244 267 l 223 277 l -2 700 l 148 700 l 301 402 l 319 402 l 472 700 l 622 700 l 397 277 l 376 267 l 376 0 z m 537 106 l 83 106 l 83 208 l 537 208 l 537 106 z m 537 262 l 83 262 l 83 364 l 537 364 l 537 262 z"},"¢":{"ha":598,"o":"m 307 -14 l 307 -14 q 235 -14 177 16 q 118 46 84 103 q 50 160 50 241 l 50 241 l 50 255 q 50 336 84 393 q 118 450 177 480 q 235 510 307 510 l 307 510 q 378 510 429 485 q 480 460 512 417 q 543 373 553 318 l 553 318 l 431 292 q 427 322 413 346 q 399 370 374 384 q 348 398 310 398 l 310 398 q 272 398 242 382 q 211 365 194 333 q 176 300 176 253 l 176 253 l 176 243 q 176 196 194 164 q 211 131 242 115 q 272 98 310 98 l 310 98 q 367 98 397 128 q 426 157 434 205 l 434 205 l 556 176 q 543 123 512 80 q 480 36 429 11 q 378 -14 307 -14 z m 365 -116 l 253 -116 l 253 612 l 365 612 l 365 -116 z"},"⁄":{"ha":638,"o":"m 622 655 l 83 -10 l 16 45 l 555 710 l 622 655 z"},"%":{"ha":758,"o":"m 686 652 l 148 -13 l 72 48 l 610 713 l 686 652 z m 570 -10 l 570 -10 q 494 -10 451 31 q 408 71 408 141 l 408 141 l 408 148 q 408 219 451 260 q 494 300 570 300 l 570 300 q 644 300 688 260 q 732 219 732 148 l 732 148 l 732 141 q 732 71 689 31 q 646 -10 570 -10 z m 570 72 l 570 72 q 599 72 616 90 q 632 108 632 137 l 632 137 l 632 153 q 632 182 616 200 q 599 218 570 218 l 570 218 q 541 218 525 200 q 508 182 508 153 l 508 153 l 508 137 q 508 108 525 90 q 541 72 570 72 z m 188 400 l 188 400 q 112 400 69 441 q 26 481 26 551 l 26 551 l 26 558 q 26 629 69 670 q 112 710 188 710 l 188 710 q 262 710 306 670 q 350 629 350 558 l 350 558 l 350 551 q 350 481 307 441 q 264 400 188 400 z m 188 482 l 188 482 q 217 482 234 500 q 250 518 250 547 l 250 547 l 250 563 q 250 592 234 610 q 217 628 188 628 l 188 628 q 159 628 143 610 q 126 592 126 563 l 126 563 l 126 547 q 126 518 143 500 q 159 482 188 482 z"},"‰":{"ha":954,"o":"m 686 652 l 148 -13 l 72 48 l 610 713 l 686 652 z m 551 -10 l 551 -10 q 484 -10 447 31 q 410 72 410 142 l 410 142 l 410 148 q 410 219 447 260 q 484 300 551 300 l 551 300 q 618 300 652 260 q 686 219 686 148 l 686 148 l 686 142 q 686 72 652 31 q 618 -10 551 -10 z m 562 72 l 562 72 q 588 72 604 91 q 620 109 620 139 l 620 139 l 620 151 q 620 181 604 200 q 588 218 562 218 l 562 218 q 536 218 520 200 q 504 181 504 151 l 504 151 l 504 139 q 504 109 520 91 q 536 72 562 72 z m 188 400 l 188 400 q 112 400 69 441 q 26 481 26 551 l 26 551 l 26 558 q 26 629 69 670 q 112 710 188 710 l 188 710 q 262 710 306 670 q 350 629 350 558 l 350 558 l 350 551 q 350 481 307 441 q 264 400 188 400 z m 188 482 l 188 482 q 217 482 234 500 q 250 518 250 547 l 250 547 l 250 563 q 250 592 234 610 q 217 628 188 628 l 188 628 q 159 628 143 610 q 126 592 126 563 l 126 563 l 126 547 q 126 518 143 500 q 159 482 188 482 z m 678 42 l 660 42 l 660 248 l 678 248 l 678 42 z m 776 72 l 776 72 q 802 72 818 91 q 834 109 834 139 l 834 139 l 834 151 q 834 181 818 200 q 802 218 776 218 l 776 218 q 750 218 734 200 q 718 181 718 151 l 718 151 l 718 139 q 718 109 734 91 q 750 72 776 72 z m 787 -10 l 787 -10 q 720 -10 686 31 q 652 72 652 142 l 652 142 l 652 148 q 652 219 686 260 q 720 300 787 300 l 787 300 q 855 300 892 260 q 928 219 928 148 l 928 148 l 928 142 q 928 72 892 31 q 855 -10 787 -10 z"},"¼":{"ha":830,"o":"m 222 350 l 130 350 l 130 622 l 116 622 l 101 544 l 16 544 l 54 700 l 222 700 l 222 350 z m 684 655 l 145 -10 l 78 45 l 617 710 l 684 655 z m 754 0 l 660 0 l 660 71 l 458 71 l 458 159 l 591 350 l 754 350 l 754 147 l 814 147 l 814 71 l 754 71 l 754 0 z m 558 159 l 558 147 l 660 147 l 660 286 l 646 286 l 558 159 z"},"½":{"ha":824,"o":"m 222 350 l 130 350 l 130 622 l 116 622 l 101 544 l 16 544 l 54 700 l 222 700 l 222 350 z m 684 655 l 145 -10 l 78 45 l 617 710 l 684 655 z m 794 0 l 486 0 l 486 44 q 486 104 518 138 q 550 172 617 187 l 617 187 q 661 197 682 210 q 702 223 702 244 l 702 244 q 702 264 686 275 q 670 286 646 286 l 646 286 q 622 286 604 274 q 586 261 584 230 l 584 230 l 490 237 q 495 298 538 330 q 581 362 646 362 l 646 362 q 711 362 754 330 q 796 297 796 243 l 796 243 q 796 189 759 162 q 721 135 657 121 l 657 121 q 617 113 602 103 q 586 93 586 76 l 586 76 l 794 76 l 794 0 z"},"¾":{"ha":891,"o":"m 181 338 l 181 338 q 115 338 70 370 q 25 402 20 460 l 20 460 l 113 470 q 116 445 136 430 q 155 414 181 414 l 181 414 q 210 414 227 429 q 243 444 243 465 l 243 465 q 243 487 227 499 q 210 510 179 510 l 179 510 l 113 510 l 113 576 l 198 612 l 198 626 l 27 626 l 27 700 l 335 700 l 335 622 l 229 572 l 229 558 q 280 556 309 533 q 337 509 337 461 l 337 461 q 337 425 317 398 q 296 370 261 354 q 225 338 181 338 z m 745 655 l 206 -10 l 139 45 l 678 710 l 745 655 z m 815 0 l 721 0 l 721 71 l 519 71 l 519 159 l 652 350 l 815 350 l 815 147 l 875 147 l 875 71 l 815 71 l 815 0 z m 619 159 l 619 147 l 721 147 l 721 286 l 707 286 l 619 159 z"},"⅓":{"ha":863,"o":"m 222 350 l 130 350 l 130 622 l 116 622 l 101 544 l 16 544 l 54 700 l 222 700 l 222 350 z m 684 655 l 145 -10 l 78 45 l 617 710 l 684 655 z m 681 -12 l 681 -12 q 615 -12 570 20 q 525 52 520 110 l 520 110 l 613 120 q 616 95 636 80 q 655 64 681 64 l 681 64 q 710 64 727 79 q 743 94 743 115 l 743 115 q 743 137 727 149 q 710 160 679 160 l 679 160 l 613 160 l 613 226 l 698 262 l 698 276 l 527 276 l 527 350 l 835 350 l 835 272 l 729 222 l 729 208 q 780 206 809 183 q 837 159 837 111 l 837 111 q 837 75 817 48 q 796 20 761 4 q 725 -12 681 -12 z"},"⅔":{"ha":945,"o":"m 334 350 l 26 350 l 26 394 q 26 454 58 488 q 90 522 157 537 l 157 537 q 201 547 222 560 q 242 573 242 594 l 242 594 q 242 614 226 625 q 210 636 186 636 l 186 636 q 162 636 144 624 q 126 611 124 580 l 124 580 l 30 587 q 35 648 78 680 q 121 712 186 712 l 186 712 q 251 712 294 680 q 336 647 336 593 l 336 593 q 336 539 299 512 q 261 485 197 471 l 197 471 q 157 463 142 453 q 126 443 126 426 l 126 426 l 334 426 l 334 350 z m 766 655 l 227 -10 l 160 45 l 699 710 l 766 655 z m 763 -12 l 763 -12 q 697 -12 652 20 q 607 52 602 110 l 602 110 l 695 120 q 698 95 718 80 q 737 64 763 64 l 763 64 q 792 64 809 79 q 825 94 825 115 l 825 115 q 825 137 809 149 q 792 160 761 160 l 761 160 l 695 160 l 695 226 l 780 262 l 780 276 l 609 276 l 609 350 l 917 350 l 917 272 l 811 222 l 811 208 q 862 206 891 183 q 919 159 919 111 l 919 111 q 919 75 899 48 q 878 20 843 4 q 807 -12 763 -12 z"},"⅛":{"ha":838,"o":"m 222 350 l 130 350 l 130 622 l 116 622 l 101 544 l 16 544 l 54 700 l 222 700 l 222 350 z m 684 655 l 145 -10 l 78 45 l 617 710 l 684 655 z m 653 -12 l 653 -12 q 576 -12 535 18 q 494 47 494 93 l 494 93 q 494 121 504 138 q 514 154 528 163 q 542 172 553 175 l 553 175 l 553 189 q 539 194 520 211 q 500 228 500 264 l 500 264 q 500 308 541 335 q 582 362 652 362 l 652 362 q 722 362 763 335 q 804 308 804 264 l 804 264 q 804 228 785 211 q 765 194 751 189 l 751 189 l 751 175 q 762 172 776 163 q 790 154 800 138 q 810 121 810 93 l 810 93 q 810 47 770 18 q 729 -12 653 -12 z m 652 64 l 652 64 q 683 64 701 75 q 718 85 718 103 l 718 103 q 718 121 701 132 q 683 142 652 142 l 652 142 q 621 142 604 132 q 586 121 586 103 l 586 103 q 586 85 604 75 q 621 64 652 64 z m 652 218 l 652 218 q 681 218 697 228 q 712 238 712 253 l 712 253 q 712 268 697 277 q 681 286 653 286 l 653 286 q 624 286 608 277 q 592 268 592 253 l 592 253 q 592 238 608 228 q 624 218 652 218 z"},"⅜":{"ha":899,"o":"m 181 338 l 181 338 q 115 338 70 370 q 25 402 20 460 l 20 460 l 113 470 q 116 445 136 430 q 155 414 181 414 l 181 414 q 210 414 227 429 q 243 444 243 465 l 243 465 q 243 487 227 499 q 210 510 179 510 l 179 510 l 113 510 l 113 576 l 198 612 l 198 626 l 27 626 l 27 700 l 335 700 l 335 622 l 229 572 l 229 558 q 280 556 309 533 q 337 509 337 461 l 337 461 q 337 425 317 398 q 296 370 261 354 q 225 338 181 338 z m 745 655 l 206 -10 l 139 45 l 678 710 l 745 655 z m 714 -12 l 714 -12 q 637 -12 596 18 q 555 47 555 93 l 555 93 q 555 121 565 138 q 575 154 589 163 q 603 172 614 175 l 614 175 l 614 189 q 600 194 581 211 q 561 228 561 264 l 561 264 q 561 308 602 335 q 643 362 713 362 l 713 362 q 783 362 824 335 q 865 308 865 264 l 865 264 q 865 228 846 211 q 826 194 812 189 l 812 189 l 812 175 q 823 172 837 163 q 851 154 861 138 q 871 121 871 93 l 871 93 q 871 47 831 18 q 790 -12 714 -12 z m 713 64 l 713 64 q 744 64 762 75 q 779 85 779 103 l 779 103 q 779 121 762 132 q 744 142 713 142 l 713 142 q 682 142 665 132 q 647 121 647 103 l 647 103 q 647 85 665 75 q 682 64 713 64 z m 713 218 l 713 218 q 742 218 758 228 q 773 238 773 253 l 773 253 q 773 268 758 277 q 742 286 714 286 l 714 286 q 685 286 669 277 q 653 268 653 253 l 653 253 q 653 238 669 228 q 685 218 713 218 z"},"⅝":{"ha":896,"o":"m 182 338 l 182 338 q 112 338 71 371 q 30 404 24 453 l 24 453 l 118 460 q 122 441 139 428 q 156 414 182 414 l 182 414 q 209 414 226 429 q 242 443 242 466 l 242 466 q 242 489 227 501 q 211 513 189 513 l 189 513 q 168 513 157 506 q 145 498 139 491 l 139 491 l 34 491 l 34 700 l 326 700 l 326 624 l 128 624 l 128 556 l 142 556 q 152 565 170 574 q 187 582 220 582 l 220 582 q 249 582 276 569 q 302 556 319 531 q 336 505 336 467 l 336 467 q 336 411 296 375 q 256 338 182 338 z m 742 655 l 203 -10 l 136 45 l 675 710 l 742 655 z m 711 -12 l 711 -12 q 634 -12 593 18 q 552 47 552 93 l 552 93 q 552 121 562 138 q 572 154 586 163 q 600 172 611 175 l 611 175 l 611 189 q 597 194 578 211 q 558 228 558 264 l 558 264 q 558 308 599 335 q 640 362 710 362 l 710 362 q 780 362 821 335 q 862 308 862 264 l 862 264 q 862 228 843 211 q 823 194 809 189 l 809 189 l 809 175 q 820 172 834 163 q 848 154 858 138 q 868 121 868 93 l 868 93 q 868 47 828 18 q 787 -12 711 -12 z m 710 64 l 710 64 q 741 64 759 75 q 776 85 776 103 l 776 103 q 776 121 759 132 q 741 142 710 142 l 710 142 q 679 142 662 132 q 644 121 644 103 l 644 103 q 644 85 662 75 q 679 64 710 64 z m 710 218 l 710 218 q 739 218 755 228 q 770 238 770 253 l 770 253 q 770 268 755 277 q 739 286 711 286 l 711 286 q 682 286 666 277 q 650 268 650 253 l 650 253 q 650 238 666 228 q 682 218 710 218 z"},"⅞":{"ha":816,"o":"m 169 350 l 77 350 q 77 383 84 407 q 90 430 112 459 l 112 459 l 225 610 l 225 624 l 12 624 l 12 700 l 322 700 l 322 594 l 190 416 q 177 397 173 385 q 169 372 169 350 l 169 350 z m 662 655 l 123 -10 l 56 45 l 595 710 l 662 655 z m 631 -12 l 631 -12 q 554 -12 513 18 q 472 47 472 93 l 472 93 q 472 121 482 138 q 492 154 506 163 q 520 172 531 175 l 531 175 l 531 189 q 517 194 498 211 q 478 228 478 264 l 478 264 q 478 308 519 335 q 560 362 630 362 l 630 362 q 700 362 741 335 q 782 308 782 264 l 782 264 q 782 228 763 211 q 743 194 729 189 l 729 189 l 729 175 q 740 172 754 163 q 768 154 778 138 q 788 121 788 93 l 788 93 q 788 47 748 18 q 707 -12 631 -12 z m 630 64 l 630 64 q 661 64 679 75 q 696 85 696 103 l 696 103 q 696 121 679 132 q 661 142 630 142 l 630 142 q 599 142 582 132 q 564 121 564 103 l 564 103 q 564 85 582 75 q 599 64 630 64 z m 630 218 l 630 218 q 659 218 675 228 q 690 238 690 253 l 690 253 q 690 268 675 277 q 659 286 631 286 l 631 286 q 602 286 586 277 q 570 268 570 253 l 570 253 q 570 238 586 228 q 602 218 630 218 z"},"+":{"ha":620,"o":"m 369 141 l 251 141 l 251 293 l 101 293 l 101 407 l 251 407 l 251 559 l 369 559 l 369 407 l 519 407 l 519 293 l 369 293 l 369 141 z"},"−":{"ha":620,"o":"m 519 293 l 101 293 l 101 407 l 519 407 l 519 293 z"},"×":{"ha":620,"o":"m 310 269 l 177 138 l 96 219 l 228 350 l 96 481 l 177 562 l 310 431 l 443 562 l 524 481 l 392 350 l 524 219 l 443 138 l 310 269 z"},"÷":{"ha":620,"o":"m 519 293 l 101 293 l 101 407 l 519 407 l 519 293 z m 310 73 l 310 73 q 274 73 249 99 q 224 124 224 159 l 224 159 q 224 194 249 220 q 274 245 310 245 l 310 245 q 346 245 371 220 q 396 194 396 159 l 396 159 q 396 124 371 99 q 346 73 310 73 z m 310 455 l 310 455 q 274 455 249 481 q 224 506 224 541 l 224 541 q 224 576 249 602 q 274 627 310 627 l 310 627 q 346 627 371 602 q 396 576 396 541 l 396 541 q 396 506 371 481 q 346 455 310 455 z"},"=":{"ha":620,"o":"m 519 380 l 101 380 l 101 494 l 519 494 l 519 380 z m 519 206 l 101 206 l 101 320 l 519 320 l 519 206 z"},"<":{"ha":620,"o":"m 520 250 l 520 130 l 100 272 l 100 428 l 520 570 l 520 450 l 222 359 l 222 341 l 520 250 z"},">":{"ha":620,"o":"m 520 272 l 100 130 l 100 250 l 398 341 l 398 359 l 100 450 l 100 570 l 520 428 l 520 272 z"},"≤":{"ha":620,"o":"m 520 250 l 520 130 l 100 272 l 100 428 l 520 570 l 520 450 l 222 359 l 222 341 l 520 250 z m 519 0 l 101 0 l 101 108 l 519 108 l 519 0 z"},"≥":{"ha":620,"o":"m 520 272 l 100 130 l 100 250 l 398 341 l 398 359 l 100 450 l 100 570 l 520 428 l 520 272 z m 519 0 l 101 0 l 101 108 l 519 108 l 519 0 z"},"±":{"ha":620,"o":"m 369 162 l 251 162 l 251 294 l 101 294 l 101 408 l 251 408 l 251 540 l 369 540 l 369 408 l 519 408 l 519 294 l 369 294 l 369 162 z m 519 0 l 101 0 l 101 114 l 519 114 l 519 0 z"},"^":{"ha":620,"o":"m 210 424 l 70 424 l 216 700 l 404 700 l 550 424 l 410 424 l 319 620 l 301 620 l 210 424 z"},"≠":{"ha":620,"o":"m 441 558 l 292 107 l 179 142 l 328 593 l 441 558 z m 519 206 l 101 206 l 101 320 l 519 320 l 519 206 z m 519 380 l 101 380 l 101 494 l 519 494 l 519 380 z"},"~":{"ha":620,"o":"m 192 296 l 113 237 l 43 330 l 163 420 q 183 436 206 447 q 228 457 257 457 l 257 457 q 286 457 306 446 q 325 434 338 416 l 338 416 q 352 397 360 389 q 368 381 381 381 l 381 381 q 393 381 404 388 q 414 394 427 404 l 427 404 l 506 463 l 576 370 l 456 280 q 436 264 414 254 q 391 243 362 243 l 362 243 q 333 243 314 255 q 294 266 281 284 l 281 284 q 267 304 260 312 q 252 319 238 319 l 238 319 q 226 319 216 313 q 205 306 192 296 l 192 296 z"},"≈":{"ha":620,"o":"m 192 406 l 113 347 l 43 440 l 163 530 q 183 546 206 557 q 228 567 257 567 l 257 567 q 286 567 306 556 q 325 544 338 526 l 338 526 q 352 507 360 499 q 368 491 381 491 l 381 491 q 393 491 404 498 q 414 504 427 514 l 427 514 l 506 573 l 576 480 l 456 390 q 436 374 414 364 q 391 353 362 353 l 362 353 q 333 353 314 365 q 294 376 281 394 l 281 394 q 267 414 260 422 q 252 429 238 429 l 238 429 q 226 429 216 423 q 205 416 192 406 l 192 406 z m 192 186 l 113 127 l 43 220 l 163 310 q 183 326 206 337 q 228 347 257 347 l 257 347 q 286 347 306 336 q 325 324 338 306 l 338 306 q 352 287 360 279 q 368 271 381 271 l 381 271 q 393 271 404 278 q 414 284 427 294 l 427 294 l 506 353 l 576 260 l 456 170 q 436 154 414 144 q 391 133 362 133 l 362 133 q 333 133 314 145 q 294 156 281 174 l 281 174 q 267 194 260 202 q 252 209 238 209 l 238 209 q 226 209 216 203 q 205 196 192 186 l 192 186 z"},"¬":{"ha":620,"o":"m 520 162 l 408 162 l 408 293 l 100 293 l 100 407 l 520 407 l 520 162 z"},"∞":{"ha":620,"o":"m 196 187 l 196 187 q 150 187 114 208 q 78 229 57 266 q 36 302 36 350 l 36 350 q 36 398 57 435 q 78 472 114 493 q 150 513 196 513 l 196 513 q 230 513 258 501 q 285 489 301 465 l 301 465 l 319 465 q 335 489 363 501 q 390 513 424 513 l 424 513 q 470 513 506 493 q 542 472 563 435 q 584 398 584 350 l 584 350 q 584 302 563 266 q 542 229 506 208 q 470 187 424 187 l 424 187 q 390 187 363 199 q 335 211 319 235 l 319 235 l 301 235 q 285 211 258 199 q 230 187 196 187 z m 201 293 l 201 293 q 224 293 240 309 q 256 324 256 350 l 256 350 q 256 376 240 392 q 224 407 201 407 l 201 407 q 178 407 162 392 q 146 376 146 350 l 146 350 q 146 324 162 309 q 178 293 201 293 z m 419 293 l 419 293 q 442 293 458 309 q 474 324 474 350 l 474 350 q 474 376 458 392 q 442 407 419 407 l 419 407 q 396 407 380 392 q 364 376 364 350 l 364 350 q 364 324 380 309 q 396 293 419 293 z"},"°":{"ha":394,"o":"m 197 394 l 197 394 q 151 394 114 415 q 76 435 54 472 q 32 508 32 555 l 32 555 q 32 601 54 637 q 76 673 114 694 q 151 714 197 714 l 197 714 q 243 714 281 694 q 318 673 340 637 q 362 601 362 554 l 362 554 q 362 508 340 472 q 318 435 281 415 q 243 394 197 394 z m 197 490 l 197 490 q 225 490 244 508 q 262 526 262 554 l 262 554 q 262 583 244 601 q 225 618 197 618 l 197 618 q 169 618 151 601 q 132 583 132 554 l 132 554 q 132 526 151 508 q 169 490 197 490 z"},"∂":{"ha":620,"o":"m 305 -14 l 305 -14 q 231 -14 174 19 q 116 52 84 110 q 51 168 51 242 l 51 242 l 51 254 q 51 327 79 385 q 106 442 156 476 q 206 510 271 510 l 271 510 q 318 510 347 499 q 375 488 395 464 l 395 464 l 413 464 q 395 510 358 541 q 321 571 269 589 q 216 607 151 614 l 151 614 l 171 728 q 365 708 467 597 q 569 485 569 291 l 569 291 q 569 200 538 131 q 507 62 448 24 q 389 -14 305 -14 z m 306 106 l 306 106 q 345 106 374 122 q 403 138 420 171 q 436 204 436 254 l 436 254 q 436 296 420 327 q 403 357 374 374 q 345 390 306 390 l 306 390 q 268 390 239 373 q 209 356 193 325 q 177 293 177 251 l 177 251 l 177 245 q 177 201 193 170 q 209 139 239 123 q 268 106 306 106 z"},"◊":{"ha":620,"o":"m 411 0 l 209 0 l 44 350 l 209 700 l 411 700 l 576 350 l 411 0 z m 184 350 l 301 98 l 319 98 l 436 350 l 319 602 l 301 602 l 184 350 z"},"∫":{"ha":620,"o":"m 272 -200 l 122 -200 l 122 -86 l 220 -86 q 247 -86 247 -56 l 247 -56 l 247 598 q 247 641 276 671 q 305 700 348 700 l 348 700 l 498 700 l 498 586 l 400 586 q 373 586 373 556 l 373 556 l 373 -98 q 373 -141 344 -170 q 315 -200 272 -200 l 272 -200 z"},"√":{"ha":620,"o":"m 424 0 l 197 0 l 141 298 l 32 298 l 32 412 l 245 412 l 303 85 l 319 85 l 463 856 l 594 856 l 424 0 z"},"∑":{"ha":620,"o":"m 580 -200 l 60 -200 l 60 -44 l 298 250 l 60 544 l 60 700 l 580 700 l 580 586 l 201 586 l 201 570 l 460 250 l 201 -70 l 201 -86 l 580 -86 l 580 -200 z"},"∏":{"ha":620,"o":"m 184 -200 l 58 -200 l 58 700 l 562 700 l 562 -200 l 436 -200 l 436 586 l 184 586 l 184 -200 z"},"Ω":{"ha":620,"o":"m 274 0 l 40 0 l 40 114 l 138 114 l 138 132 q 101 155 77 198 q 52 241 52 314 l 52 314 l 52 436 q 52 520 83 583 q 114 645 172 680 q 229 714 310 714 l 310 714 q 391 714 449 680 q 507 645 538 583 q 568 520 568 436 l 568 436 l 568 314 q 568 240 544 198 q 520 155 482 132 l 482 132 l 482 114 l 580 114 l 580 0 l 346 0 l 346 144 q 388 155 408 178 q 428 201 434 239 q 440 276 440 332 l 440 332 l 440 438 q 440 518 405 558 q 370 598 310 598 l 310 598 q 250 598 215 558 q 180 518 180 438 l 180 438 l 180 332 q 180 276 186 239 q 192 201 212 178 q 232 155 274 144 l 274 144 l 274 0 z"},"Δ":{"ha":620,"o":"m 594 0 l 26 0 l 199 700 l 421 700 l 594 0 z m 301 597 l 182 116 l 438 116 l 319 597 l 301 597 z"},"`":{"ha":296,"o":"m 256 552 l 146 552 l 40 700 l 182 700 l 256 552 z"},"´":{"ha":296,"o":"m 150 552 l 40 552 l 114 700 l 256 700 l 150 552 z"},"ˆ":{"ha":464,"o":"m 167 552 l 40 552 l 157 700 l 307 700 l 424 552 l 297 552 l 241 626 l 223 626 l 167 552 z"},"ˇ":{"ha":464,"o":"m 307 552 l 157 552 l 40 700 l 167 700 l 223 626 l 241 626 l 297 700 l 424 700 l 307 552 z"},"˜":{"ha":436,"o":"m 125 566 l 109 542 l 40 586 l 73 643 q 88 669 110 681 q 131 692 156 692 l 156 692 q 178 692 195 684 q 211 675 227 661 l 227 661 q 236 653 247 645 q 257 637 270 637 l 270 637 q 285 637 295 647 q 304 657 311 668 l 311 668 l 327 692 l 396 648 l 363 591 q 348 566 327 554 q 306 542 280 542 l 280 542 q 258 542 242 551 q 225 559 209 573 l 209 573 q 200 581 190 589 q 180 597 166 597 l 166 597 q 151 597 142 587 q 133 577 125 566 l 125 566 z"},"¨":{"ha":448,"o":"m 327 550 l 327 550 q 293 550 270 572 q 246 593 246 630 l 246 630 q 246 667 270 689 q 293 710 327 710 l 327 710 q 362 710 385 689 q 408 667 408 630 l 408 630 q 408 593 385 572 q 362 550 327 550 z m 121 550 l 121 550 q 87 550 64 572 q 40 593 40 630 l 40 630 q 40 667 64 689 q 87 710 121 710 l 121 710 q 156 710 179 689 q 202 667 202 630 l 202 630 q 202 593 179 572 q 156 550 121 550 z"},"¯":{"ha":408,"o":"m 368 566 l 40 566 l 40 666 l 368 666 l 368 566 z"},"˘":{"ha":412,"o":"m 206 548 l 206 548 q 127 548 84 587 q 40 626 40 694 l 40 694 l 40 700 l 144 700 l 144 696 q 144 668 159 649 q 173 630 206 630 l 206 630 q 239 630 254 649 q 268 668 268 696 l 268 696 l 268 700 l 372 700 l 372 694 q 372 626 329 587 q 285 548 206 548 z"},"˚":{"ha":288,"o":"m 144 539 l 144 539 q 101 539 71 568 q 40 596 40 639 l 40 639 q 40 682 70 711 q 100 739 144 739 l 144 739 q 188 739 218 711 q 248 683 248 639 l 248 639 q 248 593 217 566 q 185 539 144 539 z m 144 609 l 144 609 q 158 609 166 618 q 174 626 174 639 l 174 639 q 174 652 166 661 q 158 669 144 669 l 144 669 q 131 669 123 661 q 114 652 114 639 l 114 639 q 114 626 123 618 q 131 609 144 609 z"},"˝":{"ha":431,"o":"m 301 552 l 201 552 l 261 700 l 391 700 l 301 552 z m 138 552 l 40 552 l 88 700 l 206 700 l 138 552 z"},"˙":{"ha":242,"o":"m 121 554 l 121 554 q 87 554 64 576 q 40 598 40 634 l 40 634 q 40 670 64 692 q 87 714 121 714 l 121 714 q 156 714 179 692 q 202 670 202 634 l 202 634 q 202 598 179 576 q 156 554 121 554 z"},"¸":{"ha":328,"o":"m 155 -214 l 155 -214 q 123 -214 93 -208 q 62 -202 40 -195 l 40 -195 l 60 -120 q 79 -126 101 -131 q 122 -136 149 -136 l 149 -136 q 169 -136 182 -129 q 195 -122 195 -107 l 195 -107 q 195 -93 184 -86 q 172 -80 146 -80 l 146 -80 l 108 -80 l 115 20 l 201 20 l 197 -39 q 235 -39 262 -60 q 288 -81 288 -122 l 288 -122 q 288 -154 269 -174 q 250 -195 220 -204 q 189 -214 155 -214 z"},"˛":{"ha":238,"o":"m 198 -170 l 118 -170 q 84 -170 62 -151 q 40 -132 40 -101 l 40 -101 q 40 -86 43 -69 q 45 -52 49 -36 l 49 -36 l 62 20 l 143 20 l 133 -35 q 132 -42 131 -49 q 129 -57 129 -64 l 129 -64 q 129 -86 152 -86 l 152 -86 l 198 -86 l 198 -170 z"},"ﬁ":{"ha":674,"o":"m 278 0 l 152 0 l 152 392 l 26 392 l 26 496 l 152 496 l 152 588 q 152 639 183 670 q 213 700 262 700 l 262 700 l 382 700 l 382 596 l 306 596 q 278 596 278 566 l 278 566 l 278 496 l 478 496 l 478 392 l 278 392 l 278 0 z m 604 0 l 478 0 l 478 496 l 604 496 l 604 0 z m 541 550 l 541 550 q 507 550 484 572 q 460 594 460 630 l 460 630 q 460 666 484 688 q 507 710 541 710 l 541 710 q 576 710 599 688 q 622 666 622 630 l 622 630 q 622 594 599 572 q 576 550 541 550 z"},"ﬂ":{"ha":674,"o":"m 278 0 l 152 0 l 152 392 l 26 392 l 26 496 l 152 496 l 152 588 q 152 639 183 670 q 213 700 262 700 l 262 700 l 392 700 l 392 596 l 306 596 q 278 596 278 566 l 278 566 l 278 496 l 408 496 l 408 392 l 278 392 l 278 0 z m 604 0 l 478 0 l 478 700 l 604 700 l 604 0 z"},"ƒ":{"ha":620,"o":"m 271 0 l 64 0 l 64 120 l 219 120 q 246 120 246 150 l 246 150 l 246 342 l 105 342 l 105 462 l 246 462 l 246 598 q 246 641 275 671 q 304 700 347 700 l 347 700 l 569 700 l 569 580 l 399 580 q 372 580 372 550 l 372 550 l 372 462 l 517 462 l 517 342 l 372 342 l 372 102 q 372 59 343 30 q 314 0 271 0 l 271 0 z"},"́":{"ha":0,"o":"m 150 552 l 40 552 l 114 700 l 256 700 l 150 552 z"},"¹":{"ha":262,"o":"m 222 350 l 130 350 l 130 622 l 116 622 l 101 544 l 16 544 l 54 700 l 222 700 l 222 350 z"},"²":{"ha":364,"o":"m 334 350 l 26 350 l 26 394 q 26 454 58 488 q 90 522 157 537 l 157 537 q 201 547 222 560 q 242 573 242 594 l 242 594 q 242 614 226 625 q 210 636 186 636 l 186 636 q 162 636 144 624 q 126 611 124 580 l 124 580 l 30 587 q 35 648 78 680 q 121 712 186 712 l 186 712 q 251 712 294 680 q 336 647 336 593 l 336 593 q 336 539 299 512 q 261 485 197 471 l 197 471 q 157 463 142 453 q 126 443 126 426 l 126 426 l 334 426 l 334 350 z"},"³":{"ha":363,"o":"m 181 338 l 181 338 q 115 338 70 370 q 25 402 20 460 l 20 460 l 113 470 q 116 445 136 430 q 155 414 181 414 l 181 414 q 210 414 227 429 q 243 444 243 465 l 243 465 q 243 487 227 499 q 210 510 179 510 l 179 510 l 113 510 l 113 576 l 198 612 l 198 626 l 27 626 l 27 700 l 335 700 l 335 622 l 229 572 l 229 558 q 280 556 309 533 q 337 509 337 461 l 337 461 q 337 425 317 398 q 296 370 261 354 q 225 338 181 338 z"},"ⁱ":{"ha":200,"o":"m 147 350 l 53 350 l 53 700 l 147 700 l 147 350 z m 100 746 l 100 746 q 73 746 55 764 q 36 782 36 808 l 36 808 q 36 834 55 852 q 73 870 100 870 l 100 870 q 127 870 146 852 q 164 834 164 808 l 164 808 q 164 782 146 764 q 127 746 100 746 z"},"ⁿ":{"ha":446,"o":"m 144 350 l 50 350 l 50 700 l 142 700 l 142 654 l 156 654 q 165 672 190 690 q 214 708 260 708 l 260 708 q 325 708 363 666 q 400 624 400 558 l 400 558 l 400 350 l 306 350 l 306 550 q 306 630 231 630 l 231 630 q 190 630 167 603 q 144 575 144 526 l 144 526 l 144 350 z"},"ₔ":{"ha":413,"o":"m 205 -210 l 205 -210 q 126 -210 79 -161 q 32 -113 32 -35 l 32 -35 l 32 3 l 292 3 q 292 35 267 61 q 242 86 203 86 l 203 86 q 164 86 145 72 q 126 57 115 35 l 115 35 l 45 72 q 64 104 102 132 q 139 160 206 160 l 206 160 q 259 160 299 137 q 338 113 360 72 q 381 30 381 -23 l 381 -23 l 381 -31 q 381 -110 333 -160 q 285 -210 205 -210 z m 206 -136 l 206 -136 q 247 -136 268 -114 q 289 -92 292 -63 l 292 -63 l 123 -63 q 125 -92 146 -114 q 167 -136 206 -136 z"},"Ǽ":{"ha":821,"o":"m 789 0 l 375 0 l 375 700 l 783 700 l 783 580 l 505 580 l 505 413 l 755 413 l 755 293 l 505 293 l 505 120 l 789 120 l 789 0 z m 153 0 l 18 0 l 252 700 l 375 700 l 375 630 l 357 630 l 242 276 l 375 276 l 375 154 l 203 154 l 153 0 z m 459 758 l 347 758 l 417 888 l 563 888 l 459 758 z"},"Ắ":{"ha":634,"o":"m 154 0 l 18 0 l 202 700 l 432 700 l 616 0 l 480 0 l 442 154 l 192 154 l 154 0 z m 308 617 l 223 276 l 411 276 l 326 617 l 308 617 z m 317 752 l 317 752 q 240 752 197 788 q 153 823 153 884 l 153 884 l 153 888 l 255 888 l 255 884 q 255 860 270 843 q 284 826 317 826 l 317 826 q 350 826 365 843 q 379 860 379 884 l 379 884 l 379 888 l 481 888 l 481 884 q 481 823 438 788 q 394 752 317 752 z m 357 924 l 245 924 l 315 1054 l 461 1054 l 357 924 z"},"Ặ":{"ha":634,"o":"m 154 0 l 18 0 l 202 700 l 432 700 l 616 0 l 480 0 l 442 154 l 192 154 l 154 0 z m 308 617 l 223 276 l 411 276 l 326 617 l 308 617 z m 317 -214 l 317 -214 q 283 -214 260 -192 q 236 -170 236 -134 l 236 -134 q 236 -98 260 -76 q 283 -54 317 -54 l 317 -54 q 352 -54 375 -76 q 398 -98 398 -134 l 398 -134 q 398 -170 375 -192 q 352 -214 317 -214 z m 317 752 l 317 752 q 240 752 197 788 q 153 823 153 884 l 153 884 l 153 888 l 255 888 l 255 884 q 255 860 270 843 q 284 826 317 826 l 317 826 q 350 826 365 843 q 379 860 379 884 l 379 884 l 379 888 l 481 888 l 481 884 q 481 823 438 788 q 394 752 317 752 z"},"Ằ":{"ha":634,"o":"m 154 0 l 18 0 l 202 700 l 432 700 l 616 0 l 480 0 l 442 154 l 192 154 l 154 0 z m 308 617 l 223 276 l 411 276 l 326 617 l 308 617 z m 317 752 l 317 752 q 240 752 197 788 q 153 823 153 884 l 153 884 l 153 888 l 255 888 l 255 884 q 255 860 270 843 q 284 826 317 826 l 317 826 q 350 826 365 843 q 379 860 379 884 l 379 884 l 379 888 l 481 888 l 481 884 q 481 823 438 788 q 394 752 317 752 z m 389 924 l 277 924 l 173 1054 l 319 1054 l 389 924 z"},"Ẳ":{"ha":634,"o":"m 154 0 l 18 0 l 202 700 l 432 700 l 616 0 l 480 0 l 442 154 l 192 154 l 154 0 z m 308 617 l 223 276 l 411 276 l 326 617 l 308 617 z m 317 752 l 317 752 q 240 752 197 788 q 153 823 153 884 l 153 884 l 153 888 l 255 888 l 255 884 q 255 860 270 843 q 284 826 317 826 l 317 826 q 350 826 365 843 q 379 860 379 884 l 379 884 l 379 888 l 481 888 l 481 884 q 481 823 438 788 q 394 752 317 752 z m 364 916 l 277 916 l 272 996 l 310 996 q 336 996 348 1004 q 359 1011 359 1025 l 359 1025 q 359 1041 346 1049 q 333 1056 313 1056 l 313 1056 q 286 1056 265 1051 q 243 1046 224 1040 l 224 1040 l 204 1115 q 226 1123 257 1129 q 287 1134 319 1134 l 319 1134 q 353 1134 384 1124 q 414 1114 433 1094 q 452 1073 452 1040 l 452 1040 q 452 1000 426 978 q 399 955 361 955 l 361 955 l 364 916 z"},"Ẵ":{"ha":634,"o":"m 154 0 l 18 0 l 202 700 l 432 700 l 616 0 l 480 0 l 442 154 l 192 154 l 154 0 z m 308 617 l 223 276 l 411 276 l 326 617 l 308 617 z m 317 752 l 317 752 q 240 752 197 788 q 153 823 153 884 l 153 884 l 153 888 l 255 888 l 255 884 q 255 860 270 843 q 284 826 317 826 l 317 826 q 350 826 365 843 q 379 860 379 884 l 379 884 l 379 888 l 481 888 l 481 884 q 481 823 438 788 q 394 752 317 752 z m 217 948 l 200 926 l 136 977 l 168 1020 q 186 1044 207 1057 q 227 1070 255 1070 l 255 1070 q 279 1070 294 1063 q 309 1056 326 1042 l 326 1042 q 336 1034 347 1026 q 357 1017 372 1017 l 372 1017 q 388 1017 398 1027 q 408 1037 417 1048 l 417 1048 l 434 1070 l 498 1019 l 466 976 q 448 952 428 939 q 407 926 379 926 l 379 926 q 355 926 340 933 q 325 940 308 954 l 308 954 q 298 962 288 971 q 277 979 262 979 l 262 979 q 246 979 236 969 q 226 959 217 948 l 217 948 z"},"Ǎ":{"ha":634,"o":"m 154 0 l 18 0 l 202 700 l 432 700 l 616 0 l 480 0 l 442 154 l 192 154 l 154 0 z m 308 617 l 223 276 l 411 276 l 326 617 l 308 617 z m 395 758 l 239 758 l 125 888 l 259 888 l 308 822 l 326 822 l 375 888 l 509 888 l 395 758 z"},"Ấ":{"ha":634,"o":"m 154 0 l 18 0 l 202 700 l 432 700 l 616 0 l 480 0 l 442 154 l 192 154 l 154 0 z m 308 617 l 223 276 l 411 276 l 326 617 l 308 617 z m 259 758 l 125 758 l 239 888 l 395 888 l 509 758 l 375 758 l 326 824 l 308 824 l 259 758 z m 557 850 l 463 850 l 503 982 l 619 982 l 557 850 z"},"Ậ":{"ha":634,"o":"m 154 0 l 18 0 l 202 700 l 432 700 l 616 0 l 480 0 l 442 154 l 192 154 l 154 0 z m 308 617 l 223 276 l 411 276 l 326 617 l 308 617 z m 317 -214 l 317 -214 q 283 -214 260 -192 q 236 -170 236 -134 l 236 -134 q 236 -98 260 -76 q 283 -54 317 -54 l 317 -54 q 352 -54 375 -76 q 398 -98 398 -134 l 398 -134 q 398 -170 375 -192 q 352 -214 317 -214 z m 259 758 l 125 758 l 239 888 l 395 888 l 509 758 l 375 758 l 326 824 l 308 824 l 259 758 z"},"Ầ":{"ha":634,"o":"m 154 0 l 18 0 l 202 700 l 432 700 l 616 0 l 480 0 l 442 154 l 192 154 l 154 0 z m 308 617 l 223 276 l 411 276 l 326 617 l 308 617 z m 259 758 l 125 758 l 239 888 l 395 888 l 509 758 l 375 758 l 326 824 l 308 824 l 259 758 z m 574 850 l 480 850 l 416 982 l 532 982 l 574 850 z"},"Ẩ":{"ha":634,"o":"m 154 0 l 18 0 l 202 700 l 432 700 l 616 0 l 480 0 l 442 154 l 192 154 l 154 0 z m 308 617 l 223 276 l 411 276 l 326 617 l 308 617 z m 259 758 l 125 758 l 239 888 l 395 888 l 509 758 l 375 758 l 326 824 l 308 824 l 259 758 z m 549 856 l 462 856 l 457 936 l 495 936 q 521 936 533 944 q 544 951 544 965 l 544 965 q 544 981 531 989 q 518 996 498 996 l 498 996 q 471 996 450 991 q 428 986 409 980 l 409 980 l 389 1055 q 411 1063 442 1069 q 472 1074 504 1074 l 504 1074 q 538 1074 569 1064 q 599 1054 618 1034 q 637 1013 637 980 l 637 980 q 637 940 611 918 q 584 895 546 895 l 546 895 l 549 856 z"},"Ẫ":{"ha":634,"o":"m 154 0 l 18 0 l 202 700 l 432 700 l 616 0 l 480 0 l 442 154 l 192 154 l 154 0 z m 308 617 l 223 276 l 411 276 l 326 617 l 308 617 z m 259 758 l 125 758 l 239 888 l 395 888 l 509 758 l 375 758 l 326 824 l 308 824 l 259 758 z m 217 946 l 200 924 l 136 975 l 168 1018 q 186 1042 207 1055 q 227 1068 255 1068 l 255 1068 q 279 1068 294 1061 q 309 1054 326 1040 l 326 1040 q 336 1032 347 1024 q 357 1015 372 1015 l 372 1015 q 388 1015 398 1025 q 408 1035 417 1046 l 417 1046 l 434 1068 l 498 1017 l 466 974 q 448 950 428 937 q 407 924 379 924 l 379 924 q 355 924 340 931 q 325 938 308 952 l 308 952 q 298 960 288 969 q 277 977 262 977 l 262 977 q 246 977 236 967 q 226 957 217 946 l 217 946 z"},"Ȁ":{"ha":634,"o":"m 154 0 l 18 0 l 202 700 l 432 700 l 616 0 l 480 0 l 442 154 l 192 154 l 154 0 z m 308 617 l 223 276 l 411 276 l 326 617 l 308 617 z m 303 758 l 199 758 l 102 888 l 232 888 l 303 758 z m 460 758 l 366 758 l 286 888 l 406 888 l 460 758 z"},"Ạ":{"ha":634,"o":"m 154 0 l 18 0 l 202 700 l 432 700 l 616 0 l 480 0 l 442 154 l 192 154 l 154 0 z m 308 617 l 223 276 l 411 276 l 326 617 l 308 617 z m 317 -214 l 317 -214 q 283 -214 260 -192 q 236 -170 236 -134 l 236 -134 q 236 -98 260 -76 q 283 -54 317 -54 l 317 -54 q 352 -54 375 -76 q 398 -98 398 -134 l 398 -134 q 398 -170 375 -192 q 352 -214 317 -214 z"},"Ả":{"ha":634,"o":"m 154 0 l 18 0 l 202 700 l 432 700 l 616 0 l 480 0 l 442 154 l 192 154 l 154 0 z m 308 617 l 223 276 l 411 276 l 326 617 l 308 617 z m 367 748 l 280 748 l 275 828 l 313 828 q 339 828 351 836 q 362 843 362 857 l 362 857 q 362 873 349 881 q 336 888 316 888 l 316 888 q 289 888 268 883 q 246 878 227 872 l 227 872 l 207 947 q 229 955 260 961 q 290 966 322 966 l 322 966 q 356 966 387 956 q 417 946 436 926 q 455 905 455 872 l 455 872 q 455 832 429 810 q 402 787 364 787 l 364 787 l 367 748 z"},"Ȃ":{"ha":634,"o":"m 154 0 l 18 0 l 202 700 l 432 700 l 616 0 l 480 0 l 442 154 l 192 154 l 154 0 z m 308 617 l 223 276 l 411 276 l 326 617 l 308 617 z m 255 756 l 151 756 l 151 762 q 151 830 195 869 q 238 908 317 908 l 317 908 q 396 908 440 869 q 483 830 483 762 l 483 762 l 483 756 l 379 756 l 379 760 q 379 788 365 807 q 350 826 317 826 l 317 826 q 284 826 270 807 q 255 788 255 760 l 255 760 l 255 756 z"},"Ǻ":{"ha":634,"o":"m 154 0 l 18 0 l 202 700 l 432 700 l 616 0 l 480 0 l 442 154 l 192 154 l 154 0 z m 308 617 l 223 276 l 411 276 l 326 617 l 308 617 z m 397 898 l 301 898 l 381 1036 l 501 1036 l 397 898 z m 317 748 l 317 748 q 274 748 244 777 q 213 805 213 848 l 213 848 q 213 891 243 920 q 273 948 317 948 l 317 948 q 361 948 391 920 q 421 892 421 848 l 421 848 q 421 802 390 775 q 358 748 317 748 z m 317 818 l 317 818 q 331 818 339 827 q 347 835 347 848 l 347 848 q 347 861 339 870 q 331 878 317 878 l 317 878 q 304 878 296 870 q 287 861 287 848 l 287 848 q 287 835 296 827 q 304 818 317 818 z"},"Ƀ":{"ha":664,"o":"m 410 0 l 46 0 l 46 116 l 138 116 l 138 584 l 46 584 l 46 700 l 406 700 q 470 700 518 679 q 565 657 592 618 q 618 578 618 523 l 618 523 l 618 513 q 618 465 600 435 q 582 404 558 388 q 533 371 511 364 l 511 364 l 511 346 q 533 340 559 324 q 585 307 604 276 q 622 245 622 195 l 622 195 l 622 185 q 622 127 595 86 q 568 44 521 22 q 473 0 410 0 l 410 0 z m 270 292 l 270 120 l 394 120 q 437 120 464 141 q 490 162 490 201 l 490 201 l 490 211 q 490 250 464 271 q 438 292 394 292 l 394 292 l 270 292 z m 270 580 l 270 412 l 392 412 q 433 412 460 433 q 486 454 486 491 l 486 491 l 486 501 q 486 539 460 560 q 434 580 392 580 l 392 580 l 270 580 z m 386 160 l 46 160 l 46 250 l 386 250 l 386 160 z"},"Ḉ":{"ha":644,"o":"m 332 -14 l 332 -14 q 202 -14 126 59 q 50 131 50 266 l 50 266 l 50 434 q 50 569 126 642 q 202 714 332 714 l 332 714 q 461 714 532 644 q 602 573 602 450 l 602 450 l 602 444 l 472 444 l 472 454 q 472 516 438 556 q 403 596 332 596 l 332 596 q 262 596 222 553 q 182 510 182 436 l 182 436 l 182 264 q 182 191 222 148 q 262 104 332 104 l 332 104 q 403 104 438 145 q 472 185 472 246 l 472 246 l 472 264 l 602 264 l 602 250 q 602 127 532 57 q 461 -14 332 -14 z m 332 -214 l 332 -214 q 300 -214 270 -208 q 239 -202 217 -195 l 217 -195 l 237 -120 q 256 -126 278 -131 q 299 -136 326 -136 l 326 -136 q 346 -136 359 -129 q 372 -122 372 -107 l 372 -107 q 372 -93 361 -86 q 349 -80 323 -80 l 323 -80 l 285 -80 l 292 20 l 378 20 l 374 -39 q 412 -39 439 -60 q 465 -81 465 -122 l 465 -122 q 465 -154 446 -174 q 427 -195 397 -204 q 366 -214 332 -214 z m 366 758 l 254 758 l 324 888 l 470 888 l 366 758 z"},"Ǆ":{"ha":1230,"o":"m 334 0 l 46 0 l 46 116 l 138 116 l 138 584 l 46 584 l 46 700 l 334 700 q 475 700 549 629 q 622 557 622 416 l 622 416 l 622 284 q 622 143 549 72 q 475 0 334 0 l 334 0 z m 270 580 l 270 120 l 336 120 q 416 120 453 162 q 490 204 490 280 l 490 280 l 490 420 q 490 497 453 539 q 416 580 336 580 l 336 580 l 270 580 z m 1186 0 l 700 0 l 700 168 l 1046 566 l 1046 582 l 710 582 l 710 700 l 1184 700 l 1184 532 l 838 134 l 838 118 l 1186 118 l 1186 0 z m 1025 758 l 869 758 l 755 888 l 889 888 l 938 822 l 956 822 l 1005 888 l 1139 888 l 1025 758 z"},"Ḍ":{"ha":666,"o":"m 334 0 l 46 0 l 46 116 l 138 116 l 138 584 l 46 584 l 46 700 l 334 700 q 475 700 549 629 q 622 557 622 416 l 622 416 l 622 284 q 622 143 549 72 q 475 0 334 0 l 334 0 z m 270 580 l 270 120 l 336 120 q 416 120 453 162 q 490 204 490 280 l 490 280 l 490 420 q 490 497 453 539 q 416 580 336 580 l 336 580 l 270 580 z m 320 -214 l 320 -214 q 286 -214 263 -192 q 239 -170 239 -134 l 239 -134 q 239 -98 263 -76 q 286 -54 320 -54 l 320 -54 q 355 -54 378 -76 q 401 -98 401 -134 l 401 -134 q 401 -170 378 -192 q 355 -214 320 -214 z"},"Ḏ":{"ha":666,"o":"m 334 0 l 46 0 l 46 116 l 138 116 l 138 584 l 46 584 l 46 700 l 334 700 q 475 700 549 629 q 622 557 622 416 l 622 416 l 622 284 q 622 143 549 72 q 475 0 334 0 l 334 0 z m 270 580 l 270 120 l 336 120 q 416 120 453 162 q 490 204 490 280 l 490 280 l 490 420 q 490 497 453 539 q 416 580 336 580 l 336 580 l 270 580 z m 484 -170 l 156 -170 l 156 -70 l 484 -70 l 484 -170 z"},"ǅ":{"ha":1184,"o":"m 334 0 l 46 0 l 46 116 l 138 116 l 138 584 l 46 584 l 46 700 l 334 700 q 475 700 549 629 q 622 557 622 416 l 622 416 l 622 284 q 622 143 549 72 q 475 0 334 0 l 334 0 z m 270 580 l 270 120 l 336 120 q 416 120 453 162 q 490 204 490 280 l 490 280 l 490 420 q 490 497 453 539 q 416 580 336 580 l 336 580 l 270 580 z m 1136 0 l 718 0 l 718 150 l 990 376 l 990 392 l 728 392 l 728 496 l 1128 496 l 1128 346 l 856 120 l 856 104 l 1136 104 l 1136 0 z m 1001 552 l 851 552 l 734 700 l 861 700 l 917 626 l 935 626 l 991 700 l 1118 700 l 1001 552 z"},"Ḝ":{"ha":554,"o":"m 522 0 l 66 0 l 66 700 l 516 700 l 516 580 l 198 580 l 198 413 l 488 413 l 488 293 l 198 293 l 198 120 l 522 120 l 522 0 z m 294 -214 l 294 -214 q 262 -214 232 -208 q 201 -202 179 -195 l 179 -195 l 199 -120 q 218 -126 240 -131 q 261 -136 288 -136 l 288 -136 q 308 -136 321 -129 q 334 -122 334 -107 l 334 -107 q 334 -93 323 -86 q 311 -80 285 -80 l 285 -80 l 247 -80 l 254 20 l 340 20 l 336 -39 q 374 -39 401 -60 q 427 -81 427 -122 l 427 -122 q 427 -154 408 -174 q 389 -195 359 -204 q 328 -214 294 -214 z m 296 752 l 296 752 q 219 752 176 788 q 132 823 132 884 l 132 884 l 132 888 l 234 888 l 234 884 q 234 860 249 843 q 263 826 296 826 l 296 826 q 329 826 344 843 q 358 860 358 884 l 358 884 l 358 888 l 460 888 l 460 884 q 460 823 417 788 q 373 752 296 752 z"},"Ế":{"ha":554,"o":"m 522 0 l 66 0 l 66 700 l 516 700 l 516 580 l 198 580 l 198 413 l 488 413 l 488 293 l 198 293 l 198 120 l 522 120 l 522 0 z m 238 758 l 104 758 l 218 888 l 374 888 l 488 758 l 354 758 l 305 824 l 287 824 l 238 758 z m 536 850 l 442 850 l 482 982 l 598 982 l 536 850 z"},"Ệ":{"ha":554,"o":"m 522 0 l 66 0 l 66 700 l 516 700 l 516 580 l 198 580 l 198 413 l 488 413 l 488 293 l 198 293 l 198 120 l 522 120 l 522 0 z m 294 -214 l 294 -214 q 260 -214 237 -192 q 213 -170 213 -134 l 213 -134 q 213 -98 237 -76 q 260 -54 294 -54 l 294 -54 q 329 -54 352 -76 q 375 -98 375 -134 l 375 -134 q 375 -170 352 -192 q 329 -214 294 -214 z m 238 758 l 104 758 l 218 888 l 374 888 l 488 758 l 354 758 l 305 824 l 287 824 l 238 758 z"},"Ề":{"ha":554,"o":"m 522 0 l 66 0 l 66 700 l 516 700 l 516 580 l 198 580 l 198 413 l 488 413 l 488 293 l 198 293 l 198 120 l 522 120 l 522 0 z m 238 758 l 104 758 l 218 888 l 374 888 l 488 758 l 354 758 l 305 824 l 287 824 l 238 758 z m 553 850 l 459 850 l 395 982 l 511 982 l 553 850 z"},"Ể":{"ha":554,"o":"m 522 0 l 66 0 l 66 700 l 516 700 l 516 580 l 198 580 l 198 413 l 488 413 l 488 293 l 198 293 l 198 120 l 522 120 l 522 0 z m 238 758 l 104 758 l 218 888 l 374 888 l 488 758 l 354 758 l 305 824 l 287 824 l 238 758 z m 528 856 l 441 856 l 436 936 l 474 936 q 500 936 512 944 q 523 951 523 965 l 523 965 q 523 981 510 989 q 497 996 477 996 l 477 996 q 450 996 429 991 q 407 986 388 980 l 388 980 l 368 1055 q 390 1063 421 1069 q 451 1074 483 1074 l 483 1074 q 517 1074 548 1064 q 578 1054 597 1034 q 616 1013 616 980 l 616 980 q 616 940 590 918 q 563 895 525 895 l 525 895 l 528 856 z"},"Ễ":{"ha":554,"o":"m 522 0 l 66 0 l 66 700 l 516 700 l 516 580 l 198 580 l 198 413 l 488 413 l 488 293 l 198 293 l 198 120 l 522 120 l 522 0 z m 238 758 l 104 758 l 218 888 l 374 888 l 488 758 l 354 758 l 305 824 l 287 824 l 238 758 z m 196 946 l 179 924 l 115 975 l 147 1018 q 165 1042 186 1055 q 206 1068 234 1068 l 234 1068 q 258 1068 273 1061 q 288 1054 305 1040 l 305 1040 q 315 1032 326 1024 q 336 1015 351 1015 l 351 1015 q 367 1015 377 1025 q 387 1035 396 1046 l 396 1046 l 413 1068 l 477 1017 l 445 974 q 427 950 407 937 q 386 924 358 924 l 358 924 q 334 924 319 931 q 304 938 287 952 l 287 952 q 277 960 267 969 q 256 977 241 977 l 241 977 q 225 977 215 967 q 205 957 196 946 l 196 946 z"},"Ȅ":{"ha":554,"o":"m 522 0 l 66 0 l 66 700 l 516 700 l 516 580 l 198 580 l 198 413 l 488 413 l 488 293 l 198 293 l 198 120 l 522 120 l 522 0 z m 282 758 l 178 758 l 81 888 l 211 888 l 282 758 z m 439 758 l 345 758 l 265 888 l 385 888 l 439 758 z"},"Ẹ":{"ha":554,"o":"m 522 0 l 66 0 l 66 700 l 516 700 l 516 580 l 198 580 l 198 413 l 488 413 l 488 293 l 198 293 l 198 120 l 522 120 l 522 0 z m 294 -214 l 294 -214 q 260 -214 237 -192 q 213 -170 213 -134 l 213 -134 q 213 -98 237 -76 q 260 -54 294 -54 l 294 -54 q 329 -54 352 -76 q 375 -98 375 -134 l 375 -134 q 375 -170 352 -192 q 329 -214 294 -214 z"},"Ẻ":{"ha":554,"o":"m 522 0 l 66 0 l 66 700 l 516 700 l 516 580 l 198 580 l 198 413 l 488 413 l 488 293 l 198 293 l 198 120 l 522 120 l 522 0 z m 346 748 l 259 748 l 254 828 l 292 828 q 318 828 330 836 q 341 843 341 857 l 341 857 q 341 873 328 881 q 315 888 295 888 l 295 888 q 268 888 247 883 q 225 878 206 872 l 206 872 l 186 947 q 208 955 239 961 q 269 966 301 966 l 301 966 q 335 966 366 956 q 396 946 415 926 q 434 905 434 872 l 434 872 q 434 832 408 810 q 381 787 343 787 l 343 787 l 346 748 z"},"Ȇ":{"ha":554,"o":"m 522 0 l 66 0 l 66 700 l 516 700 l 516 580 l 198 580 l 198 413 l 488 413 l 488 293 l 198 293 l 198 120 l 522 120 l 522 0 z m 234 756 l 130 756 l 130 762 q 130 830 174 869 q 217 908 296 908 l 296 908 q 375 908 419 869 q 462 830 462 762 l 462 762 l 462 756 l 358 756 l 358 760 q 358 788 344 807 q 329 826 296 826 l 296 826 q 263 826 249 807 q 234 788 234 760 l 234 760 l 234 756 z"},"Ḗ":{"ha":554,"o":"m 522 0 l 66 0 l 66 700 l 516 700 l 516 580 l 198 580 l 198 413 l 488 413 l 488 293 l 198 293 l 198 120 l 522 120 l 522 0 z m 460 762 l 132 762 l 132 862 l 460 862 l 460 762 z m 330 912 l 218 912 l 288 1042 l 434 1042 l 330 912 z"},"Ḕ":{"ha":554,"o":"m 522 0 l 66 0 l 66 700 l 516 700 l 516 580 l 198 580 l 198 413 l 488 413 l 488 293 l 198 293 l 198 120 l 522 120 l 522 0 z m 460 762 l 132 762 l 132 862 l 460 862 l 460 762 z m 374 912 l 262 912 l 158 1042 l 304 1042 l 374 912 z"},"Ẽ":{"ha":554,"o":"m 522 0 l 66 0 l 66 700 l 516 700 l 516 580 l 198 580 l 198 413 l 488 413 l 488 293 l 198 293 l 198 120 l 522 120 l 522 0 z m 196 768 l 179 746 l 115 797 l 147 840 q 165 864 186 877 q 206 890 234 890 l 234 890 q 258 890 273 883 q 288 876 305 862 l 305 862 q 315 854 326 846 q 336 837 351 837 l 351 837 q 367 837 377 847 q 387 857 396 868 l 396 868 l 413 890 l 477 839 l 445 796 q 427 772 407 759 q 386 746 358 746 l 358 746 q 334 746 319 753 q 304 760 287 774 l 287 774 q 277 782 267 791 q 256 799 241 799 l 241 799 q 225 799 215 789 q 205 779 196 768 l 196 768 z"},"Ǧ":{"ha":662,"o":"m 308 -14 l 308 -14 q 236 -14 178 19 q 119 51 85 114 q 50 176 50 266 l 50 266 l 50 434 q 50 569 126 642 q 202 714 332 714 l 332 714 q 461 714 532 646 q 602 577 602 460 l 602 460 l 602 456 l 472 456 l 472 464 q 472 501 457 531 q 441 561 410 579 q 379 596 332 596 l 332 596 q 262 596 222 553 q 182 510 182 436 l 182 436 l 182 264 q 182 191 222 147 q 262 102 334 102 l 334 102 q 406 102 439 140 q 472 178 472 236 l 472 236 l 472 246 l 306 246 l 306 358 l 602 358 l 602 0 l 480 0 l 480 67 l 462 67 q 455 50 440 31 q 424 12 393 -1 q 362 -14 308 -14 z m 413 758 l 257 758 l 143 888 l 277 888 l 326 822 l 344 822 l 393 888 l 527 888 l 413 758 z"},"Ģ":{"ha":662,"o":"m 308 -14 l 308 -14 q 236 -14 178 19 q 119 51 85 114 q 50 176 50 266 l 50 266 l 50 434 q 50 569 126 642 q 202 714 332 714 l 332 714 q 461 714 532 646 q 602 577 602 460 l 602 460 l 602 456 l 472 456 l 472 464 q 472 501 457 531 q 441 561 410 579 q 379 596 332 596 l 332 596 q 262 596 222 553 q 182 510 182 436 l 182 436 l 182 264 q 182 191 222 147 q 262 102 334 102 l 334 102 q 406 102 439 140 q 472 178 472 236 l 472 236 l 472 246 l 306 246 l 306 358 l 602 358 l 602 0 l 480 0 l 480 67 l 462 67 q 455 50 440 31 q 424 12 393 -1 q 362 -14 308 -14 z m 309 -292 l 276 -292 l 276 -233 l 306 -233 q 329 -233 338 -224 q 347 -215 347 -195 l 347 -195 l 347 -189 l 334 -189 q 299 -189 279 -170 q 259 -151 259 -120 l 259 -120 q 259 -88 280 -69 q 301 -50 335 -50 l 335 -50 q 370 -50 392 -70 q 413 -91 413 -130 l 413 -130 l 413 -198 q 413 -243 387 -267 q 360 -292 309 -292 l 309 -292 z"},"ẞ":{"ha":651,"o":"m 430 -14 l 430 -14 q 336 -14 284 37 q 232 87 232 168 l 232 168 l 362 168 q 362 137 381 121 q 400 104 430 104 l 430 104 q 460 104 477 120 q 493 135 493 159 l 493 159 q 493 185 474 199 q 455 213 429 224 l 429 224 l 381 245 q 340 263 322 293 q 303 323 303 358 l 303 358 q 303 393 319 422 q 334 451 365 479 l 365 479 l 466 568 l 466 584 l 334 584 q 301 584 269 569 q 236 553 215 518 q 194 482 194 420 l 194 420 l 194 0 l 62 0 l 62 416 q 62 506 97 570 q 131 633 192 667 q 253 700 334 700 l 334 700 l 600 700 l 600 536 l 452 402 q 445 395 439 389 q 433 382 433 371 l 433 371 q 433 361 442 356 q 451 350 462 345 l 462 345 l 496 331 q 532 317 561 296 q 589 274 606 242 q 623 209 623 161 l 623 161 q 623 85 574 36 q 525 -14 430 -14 z"},"Ḡ":{"ha":662,"o":"m 308 -14 l 308 -14 q 236 -14 178 19 q 119 51 85 114 q 50 176 50 266 l 50 266 l 50 434 q 50 569 126 642 q 202 714 332 714 l 332 714 q 461 714 532 646 q 602 577 602 460 l 602 460 l 602 456 l 472 456 l 472 464 q 472 501 457 531 q 441 561 410 579 q 379 596 332 596 l 332 596 q 262 596 222 553 q 182 510 182 436 l 182 436 l 182 264 q 182 191 222 147 q 262 102 334 102 l 334 102 q 406 102 439 140 q 472 178 472 236 l 472 236 l 472 246 l 306 246 l 306 358 l 602 358 l 602 0 l 480 0 l 480 67 l 462 67 q 455 50 440 31 q 424 12 393 -1 q 362 -14 308 -14 z m 499 762 l 171 762 l 171 862 l 499 862 l 499 762 z"},"Ḫ":{"ha":656,"o":"m 198 0 l 66 0 l 66 700 l 198 700 l 198 411 l 458 411 l 458 700 l 590 700 l 590 0 l 458 0 l 458 291 l 198 291 l 198 0 z m 328 -214 l 328 -214 q 249 -214 206 -175 q 162 -136 162 -68 l 162 -68 l 162 -62 l 266 -62 l 266 -66 q 266 -94 281 -113 q 295 -132 328 -132 l 328 -132 q 361 -132 376 -113 q 390 -94 390 -66 l 390 -66 l 390 -62 l 494 -62 l 494 -68 q 494 -136 451 -175 q 407 -214 328 -214 z"},"Ḥ":{"ha":656,"o":"m 198 0 l 66 0 l 66 700 l 198 700 l 198 411 l 458 411 l 458 700 l 590 700 l 590 0 l 458 0 l 458 291 l 198 291 l 198 0 z m 328 -214 l 328 -214 q 294 -214 271 -192 q 247 -170 247 -134 l 247 -134 q 247 -98 271 -76 q 294 -54 328 -54 l 328 -54 q 363 -54 386 -76 q 409 -98 409 -134 l 409 -134 q 409 -170 386 -192 q 363 -214 328 -214 z"},"Ǐ":{"ha":264,"o":"m 198 0 l 66 0 l 66 700 l 198 700 l 198 0 z m 210 758 l 54 758 l -60 888 l 74 888 l 123 822 l 141 822 l 190 888 l 324 888 l 210 758 z"},"Ȉ":{"ha":264,"o":"m 198 0 l 66 0 l 66 700 l 198 700 l 198 0 z m 118 758 l 14 758 l -83 888 l 47 888 l 118 758 z m 275 758 l 181 758 l 101 888 l 221 888 l 275 758 z"},"Ḯ":{"ha":264,"o":"m 198 0 l 66 0 l 66 700 l 198 700 l 198 0 z m 243 754 l 243 754 q 209 754 186 776 q 162 797 162 834 l 162 834 q 162 871 186 893 q 209 914 243 914 l 243 914 q 278 914 301 893 q 324 871 324 834 l 324 834 q 324 797 301 776 q 278 754 243 754 z m 21 754 l 21 754 q -13 754 -36 776 q -60 797 -60 834 l -60 834 q -60 871 -36 893 q -13 914 21 914 l 21 914 q 56 914 79 893 q 102 871 102 834 l 102 834 q 102 797 79 776 q 56 754 21 754 z m 166 956 l 54 956 l 124 1086 l 270 1086 l 166 956 z"},"Ị":{"ha":264,"o":"m 198 0 l 66 0 l 66 700 l 198 700 l 198 0 z m 132 -214 l 132 -214 q 98 -214 75 -192 q 51 -170 51 -134 l 51 -134 q 51 -98 75 -76 q 98 -54 132 -54 l 132 -54 q 167 -54 190 -76 q 213 -98 213 -134 l 213 -134 q 213 -170 190 -192 q 167 -214 132 -214 z"},"Ỉ":{"ha":264,"o":"m 198 0 l 66 0 l 66 700 l 198 700 l 198 0 z m 182 748 l 95 748 l 90 828 l 128 828 q 154 828 166 836 q 177 843 177 857 l 177 857 q 177 873 164 881 q 151 888 131 888 l 131 888 q 104 888 83 883 q 61 878 42 872 l 42 872 l 22 947 q 44 955 75 961 q 105 966 137 966 l 137 966 q 171 966 202 956 q 232 946 251 926 q 270 905 270 872 l 270 872 q 270 832 244 810 q 217 787 179 787 l 179 787 l 182 748 z"},"Ȋ":{"ha":264,"o":"m 198 0 l 66 0 l 66 700 l 198 700 l 198 0 z m 70 756 l -34 756 l -34 762 q -34 830 10 869 q 53 908 132 908 l 132 908 q 211 908 255 869 q 298 830 298 762 l 298 762 l 298 756 l 194 756 l 194 760 q 194 788 180 807 q 165 826 132 826 l 132 826 q 99 826 85 807 q 70 788 70 760 l 70 760 l 70 756 z"},"Ķ":{"ha":626,"o":"m 198 0 l 66 0 l 66 700 l 198 700 l 198 422 l 216 422 l 443 700 l 612 700 l 320 355 l 622 0 l 448 0 l 216 284 l 198 284 l 198 0 z m 284 -292 l 251 -292 l 251 -233 l 281 -233 q 304 -233 313 -224 q 322 -215 322 -195 l 322 -195 l 322 -189 l 309 -189 q 274 -189 254 -170 q 234 -151 234 -120 l 234 -120 q 234 -88 255 -69 q 276 -50 310 -50 l 310 -50 q 345 -50 367 -70 q 388 -91 388 -130 l 388 -130 l 388 -198 q 388 -243 362 -267 q 335 -292 284 -292 l 284 -292 z"},"Ǉ":{"ha":1152,"o":"m 518 0 l 66 0 l 66 700 l 198 700 l 198 120 l 518 120 l 518 0 z m 809 -14 l 809 -14 q 701 -14 638 45 q 574 104 574 210 l 574 210 l 574 276 l 706 276 l 706 210 q 706 163 732 137 q 758 110 805 110 l 805 110 q 849 110 874 136 q 898 162 898 210 l 898 210 l 898 580 l 778 580 l 778 700 l 1110 700 l 1110 580 l 1030 580 l 1030 210 q 1030 101 971 44 q 912 -14 809 -14 z"},"Ļ":{"ha":542,"o":"m 518 0 l 66 0 l 66 700 l 198 700 l 198 120 l 518 120 l 518 0 z m 265 -292 l 232 -292 l 232 -233 l 262 -233 q 285 -233 294 -224 q 303 -215 303 -195 l 303 -195 l 303 -189 l 290 -189 q 255 -189 235 -170 q 215 -151 215 -120 l 215 -120 q 215 -88 236 -69 q 257 -50 291 -50 l 291 -50 q 326 -50 348 -70 q 369 -91 369 -130 l 369 -130 l 369 -198 q 369 -243 343 -267 q 316 -292 265 -292 l 265 -292 z"},"Ḷ":{"ha":542,"o":"m 518 0 l 66 0 l 66 700 l 198 700 l 198 120 l 518 120 l 518 0 z m 292 -214 l 292 -214 q 258 -214 235 -192 q 211 -170 211 -134 l 211 -134 q 211 -98 235 -76 q 258 -54 292 -54 l 292 -54 q 327 -54 350 -76 q 373 -98 373 -134 l 373 -134 q 373 -170 350 -192 q 327 -214 292 -214 z"},"ǈ":{"ha":810,"o":"m 518 0 l 66 0 l 66 700 l 198 700 l 198 120 l 518 120 l 518 0 z m 630 -200 l 520 -200 l 520 -92 l 586 -92 q 614 -92 614 -62 l 614 -62 l 614 496 l 740 496 l 740 -88 q 740 -139 710 -169 q 680 -200 630 -200 l 630 -200 z m 677 554 l 677 554 q 643 554 620 576 q 596 598 596 634 l 596 634 q 596 670 620 692 q 643 714 677 714 l 677 714 q 712 714 735 692 q 758 670 758 634 l 758 634 q 758 598 735 576 q 712 554 677 554 z"},"Ḻ":{"ha":542,"o":"m 518 0 l 66 0 l 66 700 l 198 700 l 198 120 l 518 120 l 518 0 z m 456 -170 l 128 -170 l 128 -70 l 456 -70 l 456 -170 z"},"Ṃ":{"ha":882,"o":"m 194 0 l 66 0 l 66 700 l 311 700 l 432 90 l 450 90 l 571 700 l 816 700 l 816 0 l 688 0 l 688 603 l 670 603 l 550 0 l 332 0 l 212 603 l 194 603 l 194 0 z m 441 -214 l 441 -214 q 407 -214 384 -192 q 360 -170 360 -134 l 360 -134 q 360 -98 384 -76 q 407 -54 441 -54 l 441 -54 q 476 -54 499 -76 q 522 -98 522 -134 l 522 -134 q 522 -170 499 -192 q 476 -214 441 -214 z"},"Ǌ":{"ha":1280,"o":"m 196 0 l 66 0 l 66 700 l 317 700 l 456 90 l 474 90 l 474 700 l 604 700 l 604 0 l 353 0 l 214 610 l 196 610 l 196 0 z m 937 -14 l 937 -14 q 829 -14 766 45 q 702 104 702 210 l 702 210 l 702 276 l 834 276 l 834 210 q 834 163 860 137 q 886 110 933 110 l 933 110 q 977 110 1002 136 q 1026 162 1026 210 l 1026 210 l 1026 580 l 906 580 l 906 700 l 1238 700 l 1238 580 l 1158 580 l 1158 210 q 1158 101 1099 44 q 1040 -14 937 -14 z"},"Ņ":{"ha":670,"o":"m 196 0 l 66 0 l 66 700 l 317 700 l 456 90 l 474 90 l 474 700 l 604 700 l 604 0 l 353 0 l 214 610 l 196 610 l 196 0 z m 309 -292 l 276 -292 l 276 -233 l 306 -233 q 329 -233 338 -224 q 347 -215 347 -195 l 347 -195 l 347 -189 l 334 -189 q 299 -189 279 -170 q 259 -151 259 -120 l 259 -120 q 259 -88 280 -69 q 301 -50 335 -50 l 335 -50 q 370 -50 392 -70 q 413 -91 413 -130 l 413 -130 l 413 -198 q 413 -243 387 -267 q 360 -292 309 -292 l 309 -292 z"},"Ṅ":{"ha":670,"o":"m 196 0 l 66 0 l 66 700 l 317 700 l 456 90 l 474 90 l 474 700 l 604 700 l 604 0 l 353 0 l 214 610 l 196 610 l 196 0 z m 334 754 l 334 754 q 300 754 277 776 q 253 798 253 834 l 253 834 q 253 870 277 892 q 300 914 334 914 l 334 914 q 369 914 392 892 q 415 870 415 834 l 415 834 q 415 798 392 776 q 369 754 334 754 z"},"Ṇ":{"ha":670,"o":"m 196 0 l 66 0 l 66 700 l 317 700 l 456 90 l 474 90 l 474 700 l 604 700 l 604 0 l 353 0 l 214 610 l 196 610 l 196 0 z m 336 -214 l 336 -214 q 302 -214 279 -192 q 255 -170 255 -134 l 255 -134 q 255 -98 279 -76 q 302 -54 336 -54 l 336 -54 q 371 -54 394 -76 q 417 -98 417 -134 l 417 -134 q 417 -170 394 -192 q 371 -214 336 -214 z"},"ǋ":{"ha":938,"o":"m 196 0 l 66 0 l 66 700 l 317 700 l 456 90 l 474 90 l 474 700 l 604 700 l 604 0 l 353 0 l 214 610 l 196 610 l 196 0 z m 758 -200 l 648 -200 l 648 -92 l 714 -92 q 742 -92 742 -62 l 742 -62 l 742 496 l 868 496 l 868 -88 q 868 -139 838 -169 q 808 -200 758 -200 l 758 -200 z m 805 554 l 805 554 q 771 554 748 576 q 724 598 724 634 l 724 634 q 724 670 748 692 q 771 714 805 714 l 805 714 q 840 714 863 692 q 886 670 886 634 l 886 634 q 886 598 863 576 q 840 554 805 554 z"},"Ṉ":{"ha":670,"o":"m 196 0 l 66 0 l 66 700 l 317 700 l 456 90 l 474 90 l 474 700 l 604 700 l 604 0 l 353 0 l 214 610 l 196 610 l 196 0 z m 500 -170 l 172 -170 l 172 -70 l 500 -70 l 500 -170 z"},"Ǒ":{"ha":676,"o":"m 338 -14 l 338 -14 q 206 -14 128 59 q 50 131 50 266 l 50 266 l 50 434 q 50 569 128 642 q 206 714 338 714 l 338 714 q 470 714 548 642 q 626 569 626 434 l 626 434 l 626 266 q 626 131 548 59 q 470 -14 338 -14 z m 338 104 l 338 104 q 412 104 453 147 q 494 190 494 262 l 494 262 l 494 438 q 494 510 453 553 q 412 596 338 596 l 338 596 q 265 596 224 553 q 182 510 182 438 l 182 438 l 182 262 q 182 190 224 147 q 265 104 338 104 z m 416 758 l 260 758 l 146 888 l 280 888 l 329 822 l 347 822 l 396 888 l 530 888 l 416 758 z"},"Ố":{"ha":676,"o":"m 338 -14 l 338 -14 q 206 -14 128 59 q 50 131 50 266 l 50 266 l 50 434 q 50 569 128 642 q 206 714 338 714 l 338 714 q 470 714 548 642 q 626 569 626 434 l 626 434 l 626 266 q 626 131 548 59 q 470 -14 338 -14 z m 338 104 l 338 104 q 412 104 453 147 q 494 190 494 262 l 494 262 l 494 438 q 494 510 453 553 q 412 596 338 596 l 338 596 q 265 596 224 553 q 182 510 182 438 l 182 438 l 182 262 q 182 190 224 147 q 265 104 338 104 z m 280 758 l 146 758 l 260 888 l 416 888 l 530 758 l 396 758 l 347 824 l 329 824 l 280 758 z m 578 850 l 484 850 l 524 982 l 640 982 l 578 850 z"},"Ộ":{"ha":676,"o":"m 338 -14 l 338 -14 q 206 -14 128 59 q 50 131 50 266 l 50 266 l 50 434 q 50 569 128 642 q 206 714 338 714 l 338 714 q 470 714 548 642 q 626 569 626 434 l 626 434 l 626 266 q 626 131 548 59 q 470 -14 338 -14 z m 338 104 l 338 104 q 412 104 453 147 q 494 190 494 262 l 494 262 l 494 438 q 494 510 453 553 q 412 596 338 596 l 338 596 q 265 596 224 553 q 182 510 182 438 l 182 438 l 182 262 q 182 190 224 147 q 265 104 338 104 z m 338 -214 l 338 -214 q 304 -214 281 -192 q 257 -170 257 -134 l 257 -134 q 257 -98 281 -76 q 304 -54 338 -54 l 338 -54 q 373 -54 396 -76 q 419 -98 419 -134 l 419 -134 q 419 -170 396 -192 q 373 -214 338 -214 z m 280 758 l 146 758 l 260 888 l 416 888 l 530 758 l 396 758 l 347 824 l 329 824 l 280 758 z"},"Ồ":{"ha":676,"o":"m 338 -14 l 338 -14 q 206 -14 128 59 q 50 131 50 266 l 50 266 l 50 434 q 50 569 128 642 q 206 714 338 714 l 338 714 q 470 714 548 642 q 626 569 626 434 l 626 434 l 626 266 q 626 131 548 59 q 470 -14 338 -14 z m 338 104 l 338 104 q 412 104 453 147 q 494 190 494 262 l 494 262 l 494 438 q 494 510 453 553 q 412 596 338 596 l 338 596 q 265 596 224 553 q 182 510 182 438 l 182 438 l 182 262 q 182 190 224 147 q 265 104 338 104 z m 280 758 l 146 758 l 260 888 l 416 888 l 530 758 l 396 758 l 347 824 l 329 824 l 280 758 z m 595 850 l 501 850 l 437 982 l 553 982 l 595 850 z"},"Ổ":{"ha":676,"o":"m 338 -14 l 338 -14 q 206 -14 128 59 q 50 131 50 266 l 50 266 l 50 434 q 50 569 128 642 q 206 714 338 714 l 338 714 q 470 714 548 642 q 626 569 626 434 l 626 434 l 626 266 q 626 131 548 59 q 470 -14 338 -14 z m 338 104 l 338 104 q 412 104 453 147 q 494 190 494 262 l 494 262 l 494 438 q 494 510 453 553 q 412 596 338 596 l 338 596 q 265 596 224 553 q 182 510 182 438 l 182 438 l 182 262 q 182 190 224 147 q 265 104 338 104 z m 280 758 l 146 758 l 260 888 l 416 888 l 530 758 l 396 758 l 347 824 l 329 824 l 280 758 z m 570 856 l 483 856 l 478 936 l 516 936 q 542 936 554 944 q 565 951 565 965 l 565 965 q 565 981 552 989 q 539 996 519 996 l 519 996 q 492 996 471 991 q 449 986 430 980 l 430 980 l 410 1055 q 432 1063 463 1069 q 493 1074 525 1074 l 525 1074 q 559 1074 590 1064 q 620 1054 639 1034 q 658 1013 658 980 l 658 980 q 658 940 632 918 q 605 895 567 895 l 567 895 l 570 856 z"},"Ỗ":{"ha":676,"o":"m 338 -14 l 338 -14 q 206 -14 128 59 q 50 131 50 266 l 50 266 l 50 434 q 50 569 128 642 q 206 714 338 714 l 338 714 q 470 714 548 642 q 626 569 626 434 l 626 434 l 626 266 q 626 131 548 59 q 470 -14 338 -14 z m 338 104 l 338 104 q 412 104 453 147 q 494 190 494 262 l 494 262 l 494 438 q 494 510 453 553 q 412 596 338 596 l 338 596 q 265 596 224 553 q 182 510 182 438 l 182 438 l 182 262 q 182 190 224 147 q 265 104 338 104 z m 280 758 l 146 758 l 260 888 l 416 888 l 530 758 l 396 758 l 347 824 l 329 824 l 280 758 z m 238 946 l 221 924 l 157 975 l 189 1018 q 207 1042 228 1055 q 248 1068 276 1068 l 276 1068 q 300 1068 315 1061 q 330 1054 347 1040 l 347 1040 q 357 1032 368 1024 q 378 1015 393 1015 l 393 1015 q 409 1015 419 1025 q 429 1035 438 1046 l 438 1046 l 455 1068 l 519 1017 l 487 974 q 469 950 449 937 q 428 924 400 924 l 400 924 q 376 924 361 931 q 346 938 329 952 l 329 952 q 319 960 309 969 q 298 977 283 977 l 283 977 q 267 977 257 967 q 247 957 238 946 l 238 946 z"},"Ȍ":{"ha":676,"o":"m 338 -14 l 338 -14 q 206 -14 128 59 q 50 131 50 266 l 50 266 l 50 434 q 50 569 128 642 q 206 714 338 714 l 338 714 q 470 714 548 642 q 626 569 626 434 l 626 434 l 626 266 q 626 131 548 59 q 470 -14 338 -14 z m 338 104 l 338 104 q 412 104 453 147 q 494 190 494 262 l 494 262 l 494 438 q 494 510 453 553 q 412 596 338 596 l 338 596 q 265 596 224 553 q 182 510 182 438 l 182 438 l 182 262 q 182 190 224 147 q 265 104 338 104 z m 324 758 l 220 758 l 123 888 l 253 888 l 324 758 z m 481 758 l 387 758 l 307 888 l 427 888 l 481 758 z"},"Ȫ":{"ha":676,"o":"m 338 -14 l 338 -14 q 206 -14 128 59 q 50 131 50 266 l 50 266 l 50 434 q 50 569 128 642 q 206 714 338 714 l 338 714 q 470 714 548 642 q 626 569 626 434 l 626 434 l 626 266 q 626 131 548 59 q 470 -14 338 -14 z m 338 104 l 338 104 q 412 104 453 147 q 494 190 494 262 l 494 262 l 494 438 q 494 510 453 553 q 412 596 338 596 l 338 596 q 265 596 224 553 q 182 510 182 438 l 182 438 l 182 262 q 182 190 224 147 q 265 104 338 104 z m 449 754 l 449 754 q 415 754 392 776 q 368 797 368 834 l 368 834 q 368 871 392 893 q 415 914 449 914 l 449 914 q 484 914 507 893 q 530 871 530 834 l 530 834 q 530 797 507 776 q 484 754 449 754 z m 227 754 l 227 754 q 193 754 170 776 q 146 797 146 834 l 146 834 q 146 871 170 893 q 193 914 227 914 l 227 914 q 262 914 285 893 q 308 871 308 834 l 308 834 q 308 797 285 776 q 262 754 227 754 z m 502 960 l 174 960 l 174 1060 l 502 1060 l 502 960 z"},"Ȱ":{"ha":676,"o":"m 338 -14 l 338 -14 q 206 -14 128 59 q 50 131 50 266 l 50 266 l 50 434 q 50 569 128 642 q 206 714 338 714 l 338 714 q 470 714 548 642 q 626 569 626 434 l 626 434 l 626 266 q 626 131 548 59 q 470 -14 338 -14 z m 338 104 l 338 104 q 412 104 453 147 q 494 190 494 262 l 494 262 l 494 438 q 494 510 453 553 q 412 596 338 596 l 338 596 q 265 596 224 553 q 182 510 182 438 l 182 438 l 182 262 q 182 190 224 147 q 265 104 338 104 z m 338 754 l 338 754 q 304 754 281 776 q 257 798 257 834 l 257 834 q 257 870 281 892 q 304 914 338 914 l 338 914 q 373 914 396 892 q 419 870 419 834 l 419 834 q 419 798 396 776 q 373 754 338 754 z m 502 950 l 174 950 l 174 1050 l 502 1050 l 502 950 z"},"Ọ":{"ha":676,"o":"m 338 -14 l 338 -14 q 206 -14 128 59 q 50 131 50 266 l 50 266 l 50 434 q 50 569 128 642 q 206 714 338 714 l 338 714 q 470 714 548 642 q 626 569 626 434 l 626 434 l 626 266 q 626 131 548 59 q 470 -14 338 -14 z m 338 104 l 338 104 q 412 104 453 147 q 494 190 494 262 l 494 262 l 494 438 q 494 510 453 553 q 412 596 338 596 l 338 596 q 265 596 224 553 q 182 510 182 438 l 182 438 l 182 262 q 182 190 224 147 q 265 104 338 104 z m 338 -214 l 338 -214 q 304 -214 281 -192 q 257 -170 257 -134 l 257 -134 q 257 -98 281 -76 q 304 -54 338 -54 l 338 -54 q 373 -54 396 -76 q 419 -98 419 -134 l 419 -134 q 419 -170 396 -192 q 373 -214 338 -214 z"},"Ω":{"ha":620,"o":"m 274 0 l 40 0 l 40 114 l 138 114 l 138 132 q 101 155 77 198 q 52 241 52 314 l 52 314 l 52 436 q 52 520 83 583 q 114 645 172 680 q 229 714 310 714 l 310 714 q 391 714 449 680 q 507 645 538 583 q 568 520 568 436 l 568 436 l 568 314 q 568 240 544 198 q 520 155 482 132 l 482 132 l 482 114 l 580 114 l 580 0 l 346 0 l 346 144 q 388 155 408 178 q 428 201 434 239 q 440 276 440 332 l 440 332 l 440 438 q 440 518 405 558 q 370 598 310 598 l 310 598 q 250 598 215 558 q 180 518 180 438 l 180 438 l 180 332 q 180 276 186 239 q 192 201 212 178 q 232 155 274 144 l 274 144 l 274 0 z"},"Ỏ":{"ha":676,"o":"m 338 -14 l 338 -14 q 206 -14 128 59 q 50 131 50 266 l 50 266 l 50 434 q 50 569 128 642 q 206 714 338 714 l 338 714 q 470 714 548 642 q 626 569 626 434 l 626 434 l 626 266 q 626 131 548 59 q 470 -14 338 -14 z m 338 104 l 338 104 q 412 104 453 147 q 494 190 494 262 l 494 262 l 494 438 q 494 510 453 553 q 412 596 338 596 l 338 596 q 265 596 224 553 q 182 510 182 438 l 182 438 l 182 262 q 182 190 224 147 q 265 104 338 104 z m 388 748 l 301 748 l 296 828 l 334 828 q 360 828 372 836 q 383 843 383 857 l 383 857 q 383 873 370 881 q 357 888 337 888 l 337 888 q 310 888 289 883 q 267 878 248 872 l 248 872 l 228 947 q 250 955 281 961 q 311 966 343 966 l 343 966 q 377 966 408 956 q 438 946 457 926 q 476 905 476 872 l 476 872 q 476 832 450 810 q 423 787 385 787 l 385 787 l 388 748 z"},"Ơ":{"ha":692,"o":"m 338 -14 l 338 -14 q 206 -14 128 59 q 50 131 50 266 l 50 266 l 50 434 q 50 569 128 642 q 206 714 338 714 l 338 714 q 470 714 548 642 q 626 569 626 434 l 626 434 l 626 266 q 626 131 548 59 q 470 -14 338 -14 z m 338 104 l 338 104 q 412 104 453 147 q 494 190 494 262 l 494 262 l 494 438 q 494 510 453 553 q 412 596 338 596 l 338 596 q 265 596 224 553 q 182 510 182 438 l 182 438 l 182 262 q 182 190 224 147 q 265 104 338 104 z m 533 586 l 533 586 l 485 665 q 528 667 547 684 q 566 701 566 746 l 566 746 l 566 794 l 684 794 l 684 742 q 684 681 666 647 q 647 612 613 599 q 579 585 533 586 z"},"Ớ":{"ha":692,"o":"m 338 -14 l 338 -14 q 206 -14 128 59 q 50 131 50 266 l 50 266 l 50 434 q 50 569 128 642 q 206 714 338 714 l 338 714 q 470 714 548 642 q 626 569 626 434 l 626 434 l 626 266 q 626 131 548 59 q 470 -14 338 -14 z m 338 104 l 338 104 q 412 104 453 147 q 494 190 494 262 l 494 262 l 494 438 q 494 510 453 553 q 412 596 338 596 l 338 596 q 265 596 224 553 q 182 510 182 438 l 182 438 l 182 262 q 182 190 224 147 q 265 104 338 104 z m 533 586 l 533 586 l 485 665 q 528 667 547 684 q 566 701 566 746 l 566 746 l 566 794 l 684 794 l 684 742 q 684 681 666 647 q 647 612 613 599 q 579 585 533 586 z m 372 758 l 260 758 l 330 888 l 476 888 l 372 758 z"},"Ợ":{"ha":692,"o":"m 338 -14 l 338 -14 q 206 -14 128 59 q 50 131 50 266 l 50 266 l 50 434 q 50 569 128 642 q 206 714 338 714 l 338 714 q 470 714 548 642 q 626 569 626 434 l 626 434 l 626 266 q 626 131 548 59 q 470 -14 338 -14 z m 338 104 l 338 104 q 412 104 453 147 q 494 190 494 262 l 494 262 l 494 438 q 494 510 453 553 q 412 596 338 596 l 338 596 q 265 596 224 553 q 182 510 182 438 l 182 438 l 182 262 q 182 190 224 147 q 265 104 338 104 z m 533 586 l 533 586 l 485 665 q 528 667 547 684 q 566 701 566 746 l 566 746 l 566 794 l 684 794 l 684 742 q 684 681 666 647 q 647 612 613 599 q 579 585 533 586 z m 338 -214 l 338 -214 q 304 -214 281 -192 q 257 -170 257 -134 l 257 -134 q 257 -98 281 -76 q 304 -54 338 -54 l 338 -54 q 373 -54 396 -76 q 419 -98 419 -134 l 419 -134 q 419 -170 396 -192 q 373 -214 338 -214 z"},"Ờ":{"ha":692,"o":"m 338 -14 l 338 -14 q 206 -14 128 59 q 50 131 50 266 l 50 266 l 50 434 q 50 569 128 642 q 206 714 338 714 l 338 714 q 470 714 548 642 q 626 569 626 434 l 626 434 l 626 266 q 626 131 548 59 q 470 -14 338 -14 z m 338 104 l 338 104 q 412 104 453 147 q 494 190 494 262 l 494 262 l 494 438 q 494 510 453 553 q 412 596 338 596 l 338 596 q 265 596 224 553 q 182 510 182 438 l 182 438 l 182 262 q 182 190 224 147 q 265 104 338 104 z m 533 586 l 533 586 l 485 665 q 528 667 547 684 q 566 701 566 746 l 566 746 l 566 794 l 684 794 l 684 742 q 684 681 666 647 q 647 612 613 599 q 579 585 533 586 z m 416 758 l 304 758 l 200 888 l 346 888 l 416 758 z"}}}
